<?xml version="1.0" encoding="utf-8"?>
<!-- Generator: Adobe Illustrator 19.2.0, SVG Export Plug-In . SVG Version: 6.00 Build 0)  -->
<svg version="1.1" id="Layer_1" xmlns="http://www.w3.org/2000/svg" xmlns:xlink="http://www.w3.org/1999/xlink" x="0px" y="0px"
	 viewBox="0 0 60 60" style="enable-background:new 0 0 60 60;" xml:space="preserve">
<style type="text/css">
	.st0{fill:#262626;}
</style>
<g>
	<g>
		<path class="st0" d="M4.7,33.6v18.1c0,2,1.6,3.6,3.6,3.6c2,0,3.6-1.6,3.6-3.6V33.6H4.7L4.7,33.6z M8.3,57.1c-3,0-5.4-2.4-5.4-5.4
			v-19c0-0.5,0.4-0.9,0.9-0.9h9c0.5,0,0.9,0.4,0.9,0.9v19C13.7,54.7,11.3,57.1,8.3,57.1L8.3,57.1z"/>
	</g>
	<g>
		<path class="st0" d="M12.4,55.3h39.4c2,0,3.6-1.6,3.6-3.6V5.6c0-0.5-0.4-0.9-0.9-0.9H14.6c-0.5,0-0.9,0.4-0.9,0.9v46.2
			C13.7,53.1,13.2,54.3,12.4,55.3L12.4,55.3z M51.7,57.1H8.3c-0.5,0-0.9-0.4-0.9-0.9s0.4-0.9,0.9-0.9c2,0,3.6-1.6,3.6-3.6V5.6
			c0-1.5,1.2-2.7,2.7-2.7h39.8c1.5,0,2.7,1.2,2.7,2.7v46.2C57.1,54.7,54.7,57.1,51.7,57.1L51.7,57.1z"/>
	</g>
	<g>
		<path class="st0" d="M24.4,24.8h-6.2c-1.1,0-2-0.9-2-2v-6.7c0-1.1,0.9-2,2-2h6.2c1.1,0,2,0.9,2,2v6.7
			C26.4,23.9,25.5,24.8,24.4,24.8z M18.2,15.5c-0.4,0-0.7,0.3-0.7,0.7v6.7c0,0.4,0.3,0.7,0.7,0.7h6.2c0.4,0,0.7-0.3,0.7-0.7v-6.7
			c0-0.4-0.3-0.7-0.7-0.7H18.2z"/>
	</g>
	<g>
		<path class="st0" d="M37.6,24.8h-6.2c-1.1,0-2-0.9-2-2v-6.7c0-1.1,0.9-2,2-2h6.2c1.1,0,2,0.9,2,2v6.7
			C39.6,23.9,38.7,24.8,37.6,24.8z M31.4,15.5c-0.4,0-0.7,0.3-0.7,0.7v6.7c0,0.4,0.3,0.7,0.7,0.7h6.2c0.4,0,0.7-0.3,0.7-0.7v-6.7
			c0-0.4-0.3-0.7-0.7-0.7H31.4z"/>
	</g>
	<g>
		<path class="st0" d="M50.7,24.8h-6.2c-1.1,0-2-0.9-2-2v-6.7c0-1.1,0.9-2,2-2h6.2c1.1,0,2,0.9,2,2v6.7
			C52.7,23.9,51.8,24.8,50.7,24.8z M44.5,15.5c-0.4,0-0.7,0.3-0.7,0.7v6.7c0,0.4,0.3,0.7,0.7,0.7h6.2c0.4,0,0.7-0.3,0.7-0.7v-6.7
			c0-0.4-0.3-0.7-0.7-0.7H44.5z"/>
	</g>
	<g>
		<path class="st0" d="M52.7,9.3c0,0.2-0.2,0.4-0.4,0.4h-35c-0.2,0-0.4-0.2-0.4-0.4l0,0c0-0.2,0.2-0.4,0.4-0.4h35
			C52.5,8.9,52.7,9.1,52.7,9.3L52.7,9.3z"/>
		<path class="st0" d="M52.3,10h-35c-0.4,0-0.7-0.3-0.7-0.7c0-0.4,0.3-0.7,0.7-0.7h35c0.4,0,0.7,0.3,0.7,0.7C53,9.7,52.7,10,52.3,10
			z M17.3,9.2C17.2,9.2,17.2,9.3,17.3,9.2c-0.1,0.1,0,0.2,0,0.2h35c0,0,0.1,0,0.1-0.1c0,0,0-0.1-0.1-0.1H17.3z"/>
	</g>
	<g>
		<path class="st0" d="M26.2,30.5c0,0.2,0,0.4-0.1,0.4h-9.4c-0.1,0-0.1-0.2-0.1-0.4l0,0c0-0.2,0-0.4,0.1-0.4h9.4
			C26.2,30.1,26.2,30.3,26.2,30.5L26.2,30.5z"/>
		<path class="st0" d="M26.1,31.2h-9.4c-0.2,0-0.4-0.1-0.4-0.7c0-0.6,0.3-0.7,0.4-0.7h9.4c0.2,0,0.4,0.1,0.4,0.7
			C26.6,31.1,26.3,31.2,26.1,31.2z M16.9,30.6h8.9c0,0,0-0.1,0-0.1c0,0,0-0.1,0-0.1h-8.9C16.9,30.4,16.9,30.5,16.9,30.6
			C16.9,30.5,16.9,30.5,16.9,30.6z"/>
	</g>
	<g>
		<path class="st0" d="M26.2,36.5c0,0.2,0,0.4-0.1,0.4h-9.4c-0.1,0-0.1-0.2-0.1-0.4l0,0c0-0.2,0-0.4,0.1-0.4h9.4
			C26.2,36.1,26.2,36.2,26.2,36.5L26.2,36.5z"/>
		<path class="st0" d="M26.1,37.2h-9.4c-0.2,0-0.4-0.1-0.4-0.7s0.3-0.7,0.4-0.7h9.4c0.2,0,0.4,0.1,0.4,0.7S26.3,37.2,26.1,37.2z
			 M16.9,36.6h8.9c0,0,0-0.1,0-0.1s0-0.1,0-0.1h-8.9C16.9,36.4,16.9,36.4,16.9,36.6C16.9,36.5,16.9,36.5,16.9,36.6z"/>
	</g>
	<g>
		<path class="st0" d="M26.2,42.4c0,0.2,0,0.4-0.1,0.4h-9.4c-0.1,0-0.1-0.2-0.1-0.4l0,0c0-0.2,0-0.4,0.1-0.4h9.4
			C26.2,42,26.2,42.2,26.2,42.4L26.2,42.4z"/>
		<path class="st0" d="M26.1,43.2h-9.4c-0.2,0-0.4-0.1-0.4-0.7c0-0.6,0.3-0.7,0.4-0.7h9.4c0.2,0,0.4,0.1,0.4,0.7
			C26.6,43.1,26.3,43.2,26.1,43.2z M16.9,42.5h8.9c0,0,0-0.1,0-0.1c0,0,0-0.1,0-0.1h-8.9C16.9,42.4,16.9,42.4,16.9,42.5
			C16.9,42.5,16.9,42.5,16.9,42.5z"/>
	</g>
	<g>
		<path class="st0" d="M26.2,49.1c0,0.2,0,0.4-0.1,0.4h-9.4c-0.1,0-0.1-0.2-0.1-0.4l0,0c0-0.2,0-0.4,0.1-0.4h9.4
			C26.2,48.7,26.2,48.9,26.2,49.1L26.2,49.1z"/>
		<path class="st0" d="M26.1,49.8h-9.4c-0.2,0-0.4-0.1-0.4-0.7s0.3-0.7,0.4-0.7h9.4c0.2,0,0.4,0.1,0.4,0.7S26.3,49.8,26.1,49.8z
			 M16.9,49.2h8.9c0,0,0-0.1,0-0.1s0-0.1,0-0.1h-8.9C16.9,49,16.9,49.1,16.9,49.2C16.9,49.1,16.9,49.1,16.9,49.2z"/>
	</g>
	<g>
		<path class="st0" d="M39.6,30.4c0,0.2,0,0.4-0.1,0.4h-9.4c-0.1,0-0.1-0.2-0.1-0.4l0,0c0-0.2,0-0.4,0.1-0.4h9.4
			C39.5,30,39.6,30.2,39.6,30.4L39.6,30.4z"/>
		<path class="st0" d="M39.5,31.2h-9.4c-0.2,0-0.4-0.1-0.4-0.7s0.3-0.7,0.4-0.7h9.4c0.2,0,0.4,0.1,0.4,0.7S39.6,31.2,39.5,31.2z
			 M30.3,30.5h8.9c0,0,0-0.1,0-0.1s0-0.1,0-0.1h-8.9C30.3,30.4,30.3,30.4,30.3,30.5C30.3,30.5,30.3,30.5,30.3,30.5z"/>
	</g>
	<g>
		<path class="st0" d="M39.6,36.4c0,0.2,0,0.4-0.1,0.4h-9.4c-0.1,0-0.1-0.2-0.1-0.4l0,0c0-0.2,0-0.4,0.1-0.4h9.4
			C39.5,36,39.6,36.2,39.6,36.4L39.6,36.4z"/>
		<path class="st0" d="M39.5,37.2h-9.4c-0.2,0-0.4-0.1-0.4-0.7s0.3-0.7,0.4-0.7h9.4c0.2,0,0.4,0.1,0.4,0.7S39.6,37.2,39.5,37.2z
			 M30.3,36.5h8.9c0,0,0-0.1,0-0.1s0-0.1,0-0.1h-8.9C30.3,36.4,30.3,36.4,30.3,36.5C30.3,36.4,30.3,36.5,30.3,36.5z"/>
	</g>
	<g>
		<path class="st0" d="M39.6,42.4c0,0.2,0,0.4-0.1,0.4h-9.4c-0.1,0-0.1-0.2-0.1-0.4l0,0c0-0.2,0-0.4,0.1-0.4h9.4
			C39.5,42,39.6,42.2,39.6,42.4L39.6,42.4z"/>
		<path class="st0" d="M39.5,43.1h-9.4c-0.2,0-0.4-0.1-0.4-0.7s0.3-0.7,0.4-0.7h9.4c0.2,0,0.4,0.1,0.4,0.7S39.6,43.1,39.5,43.1z
			 M30.3,42.5h8.9c0,0,0-0.1,0-0.1s0-0.1,0-0.1h-8.9C30.3,42.3,30.3,42.4,30.3,42.5C30.3,42.4,30.3,42.4,30.3,42.5z"/>
	</g>
	<g>
		<path class="st0" d="M39.6,49c0,0.2,0,0.4-0.1,0.4h-9.4C30,49.4,30,49.3,30,49l0,0c0-0.2,0-0.4,0.1-0.4h9.4
			C39.5,48.6,39.6,48.8,39.6,49L39.6,49z"/>
		<path class="st0" d="M39.5,49.8h-9.4c-0.2,0-0.4-0.1-0.4-0.7s0.3-0.7,0.4-0.7h9.4c0.2,0,0.4,0.1,0.4,0.7S39.6,49.8,39.5,49.8z
			 M30.3,49.1h8.9c0,0,0-0.1,0-0.1s0-0.1,0-0.1h-8.9C30.3,49,30.3,49,30.3,49.1C30.3,49.1,30.3,49.1,30.3,49.1z"/>
	</g>
	<g>
		<path class="st0" d="M53,30.4c0,0.2,0,0.4-0.1,0.4h-9.4c-0.1,0-0.1-0.2-0.1-0.4l0,0c0-0.2,0-0.4,0.1-0.4h9.4
			C52.9,30,53,30.1,53,30.4L53,30.4z"/>
		<path class="st0" d="M52.8,31.1h-9.4c-0.2,0-0.4-0.1-0.4-0.7s0.3-0.7,0.4-0.7h9.4c0.2,0,0.4,0.1,0.4,0.7S53,31.1,52.8,31.1z
			 M43.7,30.4h8.9c0,0,0-0.1,0-0.1s0-0.1,0-0.1h-8.9C43.7,30.3,43.7,30.3,43.7,30.4C43.7,30.4,43.7,30.4,43.7,30.4z"/>
	</g>
	<g>
		<path class="st0" d="M53,36.3c0,0.2,0,0.4-0.1,0.4h-9.4c-0.1,0-0.1-0.2-0.1-0.4l0,0c0-0.2,0-0.4,0.1-0.4h9.4
			C52.9,35.9,53,36.1,53,36.3L53,36.3z"/>
		<path class="st0" d="M52.8,37.1h-9.4c-0.2,0-0.4-0.1-0.4-0.7s0.3-0.7,0.4-0.7h9.4c0.2,0,0.4,0.1,0.4,0.7S53,37.1,52.8,37.1z
			 M43.7,36.4h8.9c0,0,0-0.1,0-0.1s0-0.1,0-0.1h-8.9C43.7,36.3,43.7,36.3,43.7,36.4C43.7,36.4,43.7,36.4,43.7,36.4z"/>
	</g>
	<g>
		<path class="st0" d="M53,42.3c0,0.2,0,0.4-0.1,0.4h-9.4c-0.1,0-0.1-0.2-0.1-0.4l0,0c0-0.2,0-0.4,0.1-0.4h9.4
			C52.9,41.9,53,42.1,53,42.3L53,42.3z"/>
		<path class="st0" d="M52.8,43.1h-9.4c-0.2,0-0.4-0.1-0.4-0.7s0.3-0.7,0.4-0.7h9.4c0.2,0,0.4,0.1,0.4,0.7S53,43.1,52.8,43.1z
			 M43.7,42.4h8.9c0,0,0-0.1,0-0.1s0-0.1,0-0.1h-8.9C43.7,42.3,43.7,42.3,43.7,42.4C43.7,42.4,43.7,42.4,43.7,42.4z"/>
	</g>
	<g>
		<path class="st0" d="M53,49c0,0.2,0,0.4-0.1,0.4h-9.4c-0.1,0-0.1-0.2-0.1-0.4l0,0c0-0.2,0-0.4,0.1-0.4h9.4
			C52.9,48.6,53,48.7,53,49L53,49z"/>
		<path class="st0" d="M52.8,49.7h-9.4c-0.2,0-0.4-0.1-0.4-0.7s0.3-0.7,0.4-0.7h9.4c0.2,0,0.4,0.1,0.4,0.7S53,49.7,52.8,49.7z
			 M43.7,49.1h8.9c0,0,0-0.1,0-0.1s0-0.1,0-0.1h-8.9C43.7,48.9,43.7,48.9,43.7,49.1C43.7,49,43.7,49,43.7,49.1z"/>
	</g>
</g>
</svg>
