<?xml version="1.0" encoding="utf-8"?>
<!-- Generator: Adobe Illustrator 19.2.0, SVG Export Plug-In . SVG Version: 6.00 Build 0)  -->
<svg version="1.1" id="Layer_1" xmlns="http://www.w3.org/2000/svg" xmlns:xlink="http://www.w3.org/1999/xlink" x="0px" y="0px"
	 viewBox="0 0 18 18" style="enable-background:new 0 0 18 18;" xml:space="preserve">
<style type="text/css">
	.st0{clip-path:url(#SVGID_2_);fill:#FFFFFF;}
</style>
<g>
	<g>
		<defs>
			<rect id="SVGID_1_" x="0.7" y="0.8" width="16.7" height="16.4"/>
		</defs>
		<clipPath id="SVGID_2_">
			<use xlink:href="#SVGID_1_"  style="overflow:visible;"/>
		</clipPath>
		<path class="st0" d="M17.3,7.5c0-0.8-0.7-1.5-1.5-1.5h-2.4L11,1.4c-0.3-0.5-0.9-0.7-1.3-0.5C9.2,1.1,9,1.7,9.3,2.3l2,3.8H6.7
			l2-3.8c0.3-0.5,0.1-1.1-0.3-1.4C7.9,0.6,7.3,0.9,7,1.4L4.5,6H2.2C1.3,6,0.7,6.7,0.7,7.5c0,0.6,0.4,1.1,0.9,1.3l0.9,7.3
			c0,0.5,0.4,0.9,1,0.9h11.1c0.5,0,0.9-0.4,1-0.9l0.9-7.3C17,8.6,17.3,8.1,17.3,7.5L17.3,7.5z M14.9,16.1L14.9,16.1
			c0,0.2-0.1,0.4-0.3,0.4H3.4c-0.2,0-0.3-0.1-0.3-0.3L2.2,9h13.6L14.9,16.1z M16.1,8.3L16.1,8.3c-0.1,0-0.2,0-0.2,0.1
			c0,0-0.1,0-0.1,0H2.2c0,0-0.1,0-0.1,0c0,0-0.1,0-0.1,0l-0.1,0C1.5,8.2,1.3,7.9,1.3,7.5c0-0.5,0.4-0.9,0.9-0.9h2.1
			c-0.2,0.5,0,1,0.4,1.2c0.5,0.2,1.1,0,1.3-0.5l0.4-0.7h5.3L12,7.4c0.3,0.5,0.9,0.7,1.3,0.5c0.4-0.2,0.6-0.7,0.4-1.2h2.1
			c0.5,0,0.9,0.4,0.9,0.9C16.7,7.9,16.5,8.2,16.1,8.3L16.1,8.3z M4.4,15.2v-5c0-0.2,0.1-0.3,0.3-0.3c0.2,0,0.3,0.1,0.3,0.3v5
			c0,0.2-0.1,0.3-0.3,0.3C4.5,15.5,4.4,15.4,4.4,15.2L4.4,15.2z M13,15.2v-5c0-0.2,0.1-0.3,0.3-0.3c0.2,0,0.3,0.1,0.3,0.3v5
			c0,0.2-0.1,0.3-0.3,0.3C13.1,15.5,13,15.4,13,15.2L13,15.2z M10.1,15.2v-5c0-0.2,0.1-0.3,0.3-0.3c0.2,0,0.3,0.1,0.3,0.3v5
			c0,0.2-0.1,0.3-0.3,0.3C10.2,15.5,10.1,15.4,10.1,15.2L10.1,15.2z M7.2,15.2v-5c0-0.2,0.1-0.3,0.3-0.3c0.2,0,0.3,0.1,0.3,0.3v5
			c0,0.2-0.1,0.3-0.3,0.3C7.4,15.5,7.2,15.4,7.2,15.2L7.2,15.2z M7.2,15.2"/>
	</g>
</g>
</svg>
