<svg xmlns="http://www.w3.org/2000/svg" viewBox="0 0 18 18" enable-background="new 0 0 18 18"><style type="text/css">.st0{fill:#FFFFFF;}</style><path class="st0" d="M17.3 7.6c0-.8-.7-1.5-1.5-1.5h-2.4l-2.4-4.6c-.3-.5-.9-.7-1.3-.5-.5.2-.7.8-.4 1.4l2 3.8h-4.6l2-3.8c.3-.5.1-1.1-.3-1.4-.5-.3-1.1 0-1.4.5l-2.5 4.6h-2.3c-.9 0-1.5.7-1.5 1.5 0 .6.4 1.1.9 1.3l.9 7.3c0 .5.4.9 1 .9h11.1c.5 0 .9-.4 1-.9l.9-7.3c.5-.2.8-.7.8-1.3zm-2.4 8.6c0 .2-.1.4-.3.4h-11.2c-.2 0-.3-.1-.3-.3l-.9-7.2h13.6l-.9 7.1zm1.2-7.8c-.1 0-.2 0-.2.1h-13.999999999999998c-.4-.2-.6-.5-.6-.9 0-.5.4-.9.9-.9h2.1c-.2.5 0 1 .4 1.2.5.2 1.1 0 1.3-.5l.4-.7h5.3l.3.8c.3.5.9.7 1.3.5.4-.2.6-.7.4-1.2h2.1c.5 0 .9.4.9.9 0 .3-.2.6-.6.7zm-11.7 6.9v-5c0-.2.1-.3.3-.3.2 0 .3.1.3.3v5c0 .2-.1.3-.3.3s-.3-.1-.3-.3zm8.6 0v-5c0-.2.1-.3.3-.3s.3.1.3.3v5c0 .2-.1.3-.3.3s-.3-.1-.3-.3zm-2.9 0v-5c0-.2.1-.3.3-.3s.3.1.3.3v5c0 .2-.1.3-.3.3-.2 0-.3-.1-.3-.3zm-2.9 0v-5c0-.2.1-.3.3-.3.2 0 .3.1.3.3v5c0 .2-.1.3-.3.3-.1 0-.3-.1-.3-.3z"/></svg>