<?xml version="1.0" encoding="utf-8"?>
<!-- Generator: Adobe Illustrator 19.2.0, SVG Export Plug-In . SVG Version: 6.00 Build 0)  -->
<svg version="1.1" id="Layer_1" xmlns="http://www.w3.org/2000/svg" xmlns:xlink="http://www.w3.org/1999/xlink" x="0px" y="0px"
	 viewBox="0 0 30 30" style="enable-background:new 0 0 30 30;" xml:space="preserve">
<style type="text/css">
	.st0{fill:#BABABA;}
</style>
<g>
	<path class="st0" d="M7.6,20.9h15.1c0.4,0,0.7-0.3,0.7-0.7v-9.8l-5.5,4.8l3.2,3c0.2,0.2,0.2,0.5,0,0.7C21,18.9,20.9,19,20.7,19
		c-0.1,0-0.2,0-0.3-0.1l-3.2-3l-0.8,0.7C16,16.8,15.6,17,15.2,17c-0.5,0-0.9-0.2-1.2-0.4l-0.8-0.7l-3.2,3C9.8,18.9,9.7,19,9.6,19
		c-0.1,0-0.3-0.1-0.4-0.2c-0.1-0.1-0.1-0.2-0.1-0.4c0-0.1,0.1-0.3,0.2-0.4l3.2-3l-5.5-4.8v9.8C6.9,20.6,7.2,20.9,7.6,20.9z"/>
	<path class="st0" d="M14.6,15.8c0.3,0.2,0.8,0.2,1.1,0l7-6.1H7.6L14.6,15.8z"/>
	<path class="st0" d="M15,0C6.7,0,0,6.7,0,15s6.7,15,15,15s15-6.7,15-15S23.3,0,15,0z M24.4,20.2c0,0.9-0.7,1.7-1.7,1.7H7.6
		c-0.9,0-1.7-0.7-1.7-1.7v-9.9c0-0.9,0.7-1.7,1.7-1.7h15.1c0.9,0,1.7,0.7,1.7,1.7V20.2z"/>
</g>
</svg>
