<svg xmlns="http://www.w3.org/2000/svg" viewBox="0 0 30 30"><style type="text/css">  
	.st0{fill:#BABABA;}
</style><path class="st0" d="M15 0C6.7 0 0 6.7 0 15s6.7 15 15 15c8.3 0 15-6.7 15-15S23.3 0 15 0zM24.2 11.5c-2.2 0-4.4 0-6.7 0 -0.9 0-1.1 0.3-1.1 1.1 0 2.3 0 2.3 2.3 2.3 1.2 0 2.4 0 3.7 0 0.6 0 0.8 0.2 0.8 0.8 0.2 3.3 0.2 3.3-3.1 3.3 -1 0-1.9 0-2.9 0 -0.6 0-0.8 0.2-0.8 0.8 0 1.4 0 2.8 0 4.2 0 0.7-0.2 0.9-0.9 0.9 -0.9 0-1.9-0.1-2.8 0 -0.8 0-1-0.2-1-1 0-3.7 0-7.4 0-11.2 0-0.4 0.3-1.2-0.3-1.3 -0.8-0.1-1.7-0.3-2.4 0.5 -0.5 0.5-0.6 1.3-0.1 1.7 1 0.9 0.5 1.8 0.3 2.8 0 0.1 0 0.1-0.1 0.2 -0.6 2-0.8 2.1-2.6 0.9 -1.9-1.4-2.7-3.9-2-6.2C5.2 8.9 7.3 7.4 10 7.4c2.4-0.1 4.7 0 7.1 0 0 0 0 0 0 0 2.4 0 4.8 0 7.2 0 0.7 0 1 0.2 0.9 0.9 0 0.7-0.1 1.5 0 2.3C25.4 11.3 25 11.5 24.2 11.5z"/></svg>