<?xml version="1.0" encoding="utf-8"?>
<!-- Generator: Adobe Illustrator 19.2.0, SVG Export Plug-In . SVG Version: 6.00 Build 0)  -->
<svg version="1.1" id="Layer_1" xmlns="http://www.w3.org/2000/svg" xmlns:xlink="http://www.w3.org/1999/xlink" x="0px" y="0px"
	 viewBox="0 0 30 30" style="enable-background:new 0 0 30 30;" xml:space="preserve">
<style type="text/css">
	.st0{fill:#BABABA;}
</style>
<g>
	<circle class="st0" cx="15.1" cy="15" r="3"/>
	<path class="st0" d="M22.1,9.7c-0.2-0.4-0.4-0.7-0.7-1c-0.3-0.3-0.6-0.5-1-0.7c-0.3-0.1-0.8-0.3-1.7-0.3c-1,0-1.2-0.1-3.6-0.1
		s-2.7,0-3.6,0.1c-0.9,0-1.4,0.2-1.7,0.3c-0.4,0.2-0.7,0.4-1,0.7C8.4,9,8.3,9.3,8.1,9.7C8,10,7.8,10.5,7.8,11.4c0,1-0.1,1.2-0.1,3.6
		s0,2.7,0.1,3.6c0,0.9,0.2,1.4,0.3,1.7c0.2,0.4,0.4,0.7,0.7,1c0.3,0.3,0.6,0.5,1,0.7c0.3,0.1,0.8,0.3,1.7,0.3c0.9,0,1.2,0.1,3.6,0.1
		s2.7,0,3.6-0.1c0.9,0,1.4-0.2,1.7-0.3c0.4-0.2,0.7-0.4,1-0.7c0.3-0.3,0.5-0.6,0.7-1c0.1-0.3,0.3-0.8,0.3-1.7c0-1,0.1-1.2,0.1-3.6
		s0-2.7-0.1-3.6C22.4,10.5,22.3,10,22.1,9.7z M15.1,19.6c-2.6,0-4.6-2.1-4.6-4.6s2.1-4.6,4.6-4.6s4.6,2.1,4.6,4.6
		S17.7,19.6,15.1,19.6z M19.9,11.3c-0.6,0-1.1-0.5-1.1-1.1c0-0.6,0.5-1.1,1.1-1.1c0.6,0,1.1,0.5,1.1,1.1
		C21,10.8,20.5,11.3,19.9,11.3z"/>
	<path class="st0" d="M15,0C6.7,0,0,6.7,0,15s6.7,15,15,15s15-6.7,15-15S23.3,0,15,0z M24.1,18.7c0,1-0.2,1.6-0.4,2.2
		c-0.2,0.6-0.5,1.1-1,1.6c-0.5,0.5-1,0.8-1.6,1c-0.6,0.2-1.2,0.4-2.2,0.4c-1,0-1.3,0.1-3.7,0.1s-2.8,0-3.7-0.1c-1,0-1.6-0.2-2.2-0.4
		c-0.6-0.2-1.1-0.5-1.6-1c-0.5-0.5-0.8-1-1-1.6c-0.2-0.6-0.4-1.2-0.4-2.2c0-1-0.1-1.3-0.1-3.7s0-2.8,0.1-3.7c0-1,0.2-1.6,0.4-2.2
		c0.2-0.6,0.5-1.1,1-1.6c0.5-0.5,1-0.8,1.6-1c0.6-0.2,1.2-0.4,2.2-0.4c1,0,1.3-0.1,3.7-0.1s2.8,0,3.7,0.1c1,0,1.6,0.2,2.2,0.4
		c0.6,0.2,1.1,0.5,1.6,1c0.5,0.5,0.8,1,1,1.6c0.2,0.6,0.4,1.2,0.4,2.2c0,1,0.1,1.3,0.1,3.7C24.1,17.4,24.1,17.8,24.1,18.7z"/>
</g>
</svg>
