<svg xmlns="http://www.w3.org/2000/svg" viewBox="0 0 42 42" enable-background="new 0 0 42 42"><style type="text/css">.st0{fill:#BABABA;}</style><path class="st0" d="M25.1 30c0-.1 0-.3.1-.4v-1.3l.1-.3.1-.3.1-.2c0-.1 0-.2.1-.3 0-.1 0-.1.1-.2v-.6000000000000001l-.1-.2v-.1h-.1s-.1.1-.1.2h-.2c-.1 0-.2-.1-.2-.2-.1-.1-.1-.1-.2-.1-.1-.1-.2-.2-.3-.2v4.1l.6.1zm1.3.2l.1-.1v-.7c0-.1 0-.2-.1-.3v-.1l-.1-.2v-.9999999999999999c-.1.1-.1.2-.1.3 0 .1-.1.1-.1.1l-.1.2-.1.2v.7l-.1.4-.1.2.7.3zm-7.1-7.4c-.1 0-.1-.1-.1-.1l-.1-.1-.1-.1-.1-.2h.2c.1 0 .1 0 .2.1l.2.1c.1.1.1.1.1.2 0 0 0 .1-.1.1 0 .1 0 .1-.2 0zm1.4 6.6v-1.4l-.1-.2-.1-.3c0-.1 0-.2-.1-.3 0 0 0-.1-.1-.1l-.1.1v.2c0 .1 0 .2-.1.3l-.1.2-.1.2c0 .2 0 .3.1.5 0 .1 0 .2.1.4v.6h.1l.5-.2zm-5.1.8v-.30000000000000004c0-.1 0-.2-.1-.4l-.1-.3v-.7l-.1-.3-.1-.3c0-.1 0-.2-.1-.2h-.1v.4c0 .3-.1.5-.2.8l-.1.3-.1.3c0 .1 0 .3.1.4l.1.1h.2v.30000000000000004l.6-.1zm-1.4.2v-1.9c0-.1.1-.2.1-.2l.1-.1v-.8l-.1-.2-.1-.2v-.2c0-.1-.1-.1-.2-.1h-.2l-.1-.1-.1-.2-.1-.2c0-.1 0-.1-.1-.2h-.1c-.1 0-.1 0-.2.1l-.2.1s-.1 0-.1.1l.4 4.3 1-.2zm15.6-16.6h-1.3c3 2.4 4.9 6 4.9 10.1 0 1.3-.2 2.6-.6 3.8-.3 1.1-.8 2.2-1.4 3.1l.9.1c.6-1 1.1-2.1 1.4-3.3.3-1.2.5-2.4.5-3.7 0-3.8-1.6-7.3-4.1-9.8l-.3-.3zm-6.8-2.2l-.4.5-.2.2-.5-.3-.9 1.2s.1.1.1.2l5.6-.3c-1.1-.8-2.4-1.2-3.7-1.5zm.8-1l-.7.7c1.5.3 2.8.9 4.1 1.6l1.4-.1c-1.3-1-3-1.8-4.8-2.2zm-6.3 1.1l.5.2-.1.3 1.7.9h.2l.3-.1h.1l1.2-1.7h-.9c-1.1 0-2.1.2-3 .4zm-1.6-.8l1.2.6c1.1-.3 2.2-.5 3.4-.5h1.1l.6-.8c-.5-.1-1.1-.1-1.6-.1-1.7.1-3.2.3-4.7.8zm-4.5 4.2l2.9-.4c.1-.2.2-.4.4-.5.3-.3.4-.4.8-.6l.4-.1c.5 0 .5.2.9-.1.1-.1.1-.2.3-.3.1 0 .2-.1.3 0l.6.2.4.1h.3l.2-.1-2.9-1.1c-1.7.6-3.3 1.6-4.6 2.9zm-1.7.3l1.3-.2c1.3-1.4 2.9-2.5 4.6-3.2l-1.1-.5c-1.9.9-3.5 2.3-4.8 3.9zm.7.5l-1.3.2c-1.5 2.2-2.5 4.9-2.5 7.8 0 1.4.2 2.7.6 4 .4 1.2.9 2.4 1.6 3.5l.9-.2c-.7-1-1.2-2.1-1.6-3.3-.4-1.3-.6-2.6-.6-4 0-3 1.1-5.8 2.9-8zm5 1.1l-.5-.2c-.2-.1-.4-.3-.5-.5l-.2-.2c0-.1 0-.2-.1-.4v-.5l-3.3.6c-1.9 2.2-3 5.1-3 8.2 0 1.3.2 2.7.6 3.9.4 1.2.9 2.3 1.6 3.3l3-.5-.4-4.2v-.1l-.1-.3v-.6h.2v.4l.2-.1.2-.1c.1 0 .1 0 .2-.1v-.8c0-.1 0-.2.1-.4l.1-.2-.2-.1h-.1c-.1 0-.2-.1-.2-.3 0-.1 0-.2.1-.3h.30000000000000004l.2.1h.4-.1v-.1h.2l.1-.1.1-.1c.1-.1.2-.1.3 0l.2.1c.1 0 .1.1.1.1l.1.1c.1 0 .1-.1.1-.2l.1-.1h.2c.1 0 .2.2.2.3v.4c0 .1-.1.2-.1.4l-.1.3-.2.3c-.1.2-.1.5 0 .7 0 .1 0 .2.1.3 0 .1.1.2.2.3.1.1.1.3.1.4l.1.4c0 .1.1.2.1.4l.1.5c.1.2.1.4.1.6v1.3c0 .1 0 .2.1.2h.2l3.3-.6c0-.2 0-.3-.1-.5l-.1-.4c0-.1 0-.3-.1-.5v-.8c0-.1.1-.6.1-.6v-1.2c0-.2 0-.4-.1-.6 0-.2-.1-.4-.2-.6-.1-.2-.2-.4-.2-.6-.1-.2-.2-.3-.2-.5l-.2-.4c-.1-.1-.1-.2-.2-.4l-.1-.4v-.5h.2l.4.1.4.2c.1 0 .1 0 .2.1h.2l.1-.1c.1-.1.3 0 .4.1.1.1.1.2.1.3v.2h.1l.3-.1v-.1c.1-.1.1-.3.1-.4 0-.1 0-.2.1-.4l.1-.2.2-.4v-.5h.1v.1h.2s.1 0 .1-.1-.1-.2 0-.2h.30000000000000004v.2c0 .1 0 .1-.1.2l-.1.1-.1.1v.2l-.1.3c0 .2 0 .4-.1.7 0 .1 0 .2-.1.3l-.1.2-.1.3c0 .1 0 .1.1.2v.2l.1.4.1.4.1.4c.1.3.1.6 0 .8v.2c0 .1-.1.1-.2.2l-.1.1h-.1c-.1 0 0 .1 0 .1v2.6999999999999997c0 .3 0 .6-.1 1l3.1.4v-6.099999999999998l.2-.1.1.2v.3c0 .1 0 .2.1.3v.8h.1s.1 0 .1.1l.1.1s.1 0 .1.1l.1.1c.1.1.2 0 .2-.1v-.7l.1-.1.1-.1-.1-.1h-.1c-.1 0-.1 0-.2-.1v-.2l-.1-.1v-.2c0-.1.1-.1.1-.1l-.1-.1-.1-.1-.1-.1h.4v-.1c.1-.1.3-.1.4-.1.2 0 .3 0 .4.2v.1l.2.1-.1.1h-.1s-.1.1 0 .1h.1c.1 0 .1-.1.1-.2.1-.1.3-.1.4-.1h.2c.1.1.2.1.2.3 0 .1 0 .1.1.2 0 0 .1 0 .1.1.1.2.2.3.2.5l.1.4c.1.3.1.6.1.9v.7c0 .1.1.2 0 .3 0 .1-.1.1-.2.1l-.2.1h-.30000000000000004s-.1 0-.1.1v.30000000000000004c0 .1 0 .3-.1.4 0 .1 0 .1-.1.2v.7s0 .1.1.1l.1.2v1.1l4 .6c.6-1 1.1-2.1 1.5-3.2.4-1.2.6-2.4.6-3.7 0-4.1-2-7.8-5.1-10.1l-4.5.1-.1-.2h-2l-.2.1c0 .1-.1.2 0 .2l.4.3c.1.1.2.2.3.2l.5.3.3.4.3.3 6.3 2.9.1.1c.1.1.3.2.5.2.1 0 0-.1-.1-.2l-.1-.1-.1-.1c0-.1.1-.1.1-.1h.5c.1 0 .2.1.2.2.1.1.1.2.1.3 0 0 .1 0 .1-.1v-.5c0-.1 0-.2.1-.3.1-.1.2 0 .3.1l.1.1c0 .1 0 .2.1.3h.2l.2-.1.2.1v.1l-.1.3-.3.6-.3.5-.2.2c-.1.1.1.5.1.5 0 .1.1.1 0 .2 0 .1-.1.1-.2.1h-.3l-.2-.1c-.1-.1-.1-.1-.1-.2s.1-.3 0-.4c-1.7-.7-3.4-1.3-5.1-1.8l-.1.3-.3.3-.5.3-.6.3c-.2.1-.3.1-.5.1h-.6l-.5-.1c-.2-.1-.4-.1-.7-.2l-.4-.1c-.1 0-.2 0-.2.1l-.4.1c-.1 0-.1.1-.1.2s.1.1 0 .2c0 .1-.1.1-.1.1h-.3c-.1 0-.2-.1-.2-.1v-.3l-.1-.2c0-.1.1-.1.1-.1-.5-.3-1.1-.4-1.6-.6l-.3-.1v.1l-.1.1-.1.1h-.30000000000000004c-.1 0-.1-.1-.1-.1-.1-.1-.1-.1-.1-.2v-.2l.1-.2-1-.5s.1-.1.1-.2c-.3-.5-.4-.5-.4-.5zm5.1-7.4c.7 0 1.3 0 2 .1l6.4-9.3 2.9 1 .1.2-7.5 8.5c2 .5 3.7 1.5 5.3 2.7l8-.5.1.2-.1 1-.2.1-6.8.2c2.6 2.6 4.2 6.2 4.2 10.2 0 1.3-.2 2.7-.5 3.9-.4 1.3-.9 2.5-1.6 3.6l-.1.2h-.2l-12.2-1.7-11.5 2h-.2l-.1-.2c-.8-1.2-1.4-2.4-1.8-3.8-.4-1.3-.6-2.7-.6-4.1 0-2.8.8-5.5 2.2-7.7l-2.8.5h-.2l-1.2-.6v-.1l4.7-.6c1.3-1.8 3-3.2 5-4.2l-11.2-4.8 1.8-1.1 10.9 5.3c1.6-.6 3.3-1 5.2-1zm-17.8 28.6c.4 0 .8-.1 1.3-.1v1.6h.2l.1-.1v-2.2l-.9.1v-.7l.9-.1v-2s0-.1-.1-.1h-.1c-.1 0-.1 0-.1.1l-.1.1v1.3l-1.2.1v-1.3c0-.1 0-.2.1-.3 0-.2.1-.3.3-.4.1-.1.3-.2.6-.3l1-.2h.4c.1 0 .3.1.4.2.1.1.2.4.2.8v5.3c0 .2-.1.3-.3.4-.1.1-.3.2-.6.2h-1c-.3 0-.6-.1-.7-.2l-.3-.4v-.4c-.1-.5-.1-1-.1-1.4zm3.7 2.2v-7c.4-.1.8-.1 1.3-.2v3c.1-.5.2-1 .2-1.6.1-.5.2-1 .2-1.6.4.1.9 0 1.3 0l-.3 1.8-.4 1.8.4 1.9.4 1.9h-1.2l-.3-1.7c-.1-.6-.2-1.1-.3-1.6v3.4c-.5-.1-.9-.1-1.3-.1zm5.4-2.8c.4 0 .8-.1 1.3-.1v2.1c0 .2-.1.4-.2.6-.1.2-.3.3-.7.3h-1.3000000000000003c-.2 0-.3-.1-.5-.3-.1-.2-.2-.5-.2-.9v-5.7c0-.2.1-.4.2-.5.1-.2.3-.3.6-.3l1.1-.2h.30000000000000004c.2 0 .3.1.4.2.1.2.2.5.2 1v1.4c-.4 0-.8.1-1.3.1v-1.7s0-.1-.1-.1h-.1c-.1 0-.1 0-.1.1l-.1.1v5.8s0 .1.1.1l.1.1c.1 0 .1 0 .1-.1l.1-.1c.1-.7.1-1.3.1-1.9zm2 2.8v-8.2l2.9-.5v8.6h-1.3v-7.6c-.1 0-.3 0-.4.1v7.4c-.4.2-.8.2-1.2.2zm3.8 0v-8.8c.8-.1 1.7-.3 2.6-.4v1l-1.3.2v2.8l1.3-.1v1l-1.3.1v3.2h1.3v1h-2.6zm3.1.4v-1.4h.2c.2 0 .3-.3.3-.6v-7.6l2.8.4v8h.2v1.4h-1.3v-.4h-1.1v.4c-.3-.2-.7-.2-1.1-.2zm1.5-1.4h.7v-6.6c-.2 0-.4 0-.5-.1v6c-.1.3-.1.5-.2.7zm2.7 1v-8.8c.4.1.8.1 1.3.2v4l.3-2 .3-1.9c.4.1.8.1 1.3.2v8.3h-1.3v-4l-.3 2-.3 2h-1.3zm3.9 0v-8.2c.4.1.8.1 1.3.2v7.2h.4v-7c.4.1.8.1 1.3.2v6.8h.3v1.3h-1.3v-.4c-.7-.1-1.3-.1-2-.1zm3.8 0v-7.6c.4.1.8.1 1.3.2v3.4l.3-1.7.3-1.7c.4.1.8.1 1.3.2v7.2h-1.3v-3.4l-.3 1.7-.3 1.7h-1.3zm3.8 0c.1-.5.2-.9.4-1.4.1-.5.2-.9.4-1.4-.2 0-.3-.1-.4-.2l-.2-.3v-3.2c0-.2.1-.3.2-.4.1-.1.4-.2.7-.1l1.9.3v6.6h-1.3v-2.6h-.1c-.1.4-.2.9-.2 1.3-.1.4-.2.9-.2 1.3-.4.1-.8.1-1.2.1zm1.8-6h-.3c-.1 0-.1.1-.1.2v2.2c0 .1 0 .2.1.3l.2.1h.1v-2.8z"/></svg>