<?xml version="1.0" encoding="utf-8"?>
<!-- Generator: Adobe Illustrator 19.2.0, SVG Export Plug-In . SVG Version: 6.00 Build 0)  -->
<svg version="1.1" id="Layer_1" xmlns="http://www.w3.org/2000/svg" xmlns:xlink="http://www.w3.org/1999/xlink" x="0px" y="0px"
	 viewBox="0 0 42 42" style="enable-background:new 0 0 42 42;" xml:space="preserve">
<style type="text/css">
	.st0{fill:#BABABA;}
</style>
<polygon class="st0" points="12.1,38.1 17.7,27.2 12.1,16.6 0.7,16.6 "/>
<polygon class="st0" points="23.3,25.3 25.5,29.5 30.1,29.5 25.6,20.8 "/>
<polygon class="st0" points="12.1,38.1 16.7,38.1 25.6,20.8 21,20.8 "/>
<polygon class="st0" points="27.9,25.2 30.1,29.5 38.9,12.8 40.6,13.7 41.3,3.8 33.5,10.3 35.3,11.1 "/>
<rect x="21" y="16.6" class="st0" width="4.6" height="2.8"/>
<path class="st0" d="M23.5,38.1h-0.3c-0.7,0-1.2-0.2-1.7-0.6c-0.4-0.4-0.7-0.9-0.7-1.5c0-0.6,0.2-1.1,0.7-1.5c0.4-0.4,1-0.6,1.7-0.6
	h1l-0.5,1l-0.4,0c-0.4,0-0.7,0.1-0.9,0.3c-0.3,0.2-0.4,0.5-0.4,0.8c0,0.3,0.1,0.6,0.4,0.8c0.3,0.2,0.6,0.3,0.9,0.3h0.2L23.5,38.1
	L23.5,38.1z M26.4,33.9c-0.6,0-1,0.2-1.4,0.6c-0.4,0.4-0.6,0.9-0.6,1.6c0,0.7,0.2,1.2,0.6,1.6c0.4,0.4,0.8,0.6,1.4,0.6
	c0.6,0,1.1-0.2,1.4-0.6c0.4-0.4,0.6-0.9,0.6-1.6c0-0.7-0.2-1.2-0.6-1.6C27.4,34.1,27,33.9,26.4,33.9L26.4,33.9z M27.3,36
	c0,0.3-0.1,0.6-0.2,0.8c-0.2,0.2-0.4,0.3-0.7,0.3c-0.3,0-0.5-0.1-0.7-0.3c-0.1-0.2-0.2-0.5-0.2-0.8c0-0.3,0.1-0.6,0.2-0.8
	c0.2-0.2,0.4-0.3,0.7-0.3c0.3,0,0.5,0.1,0.7,0.3C27.2,35.4,27.3,35.7,27.3,36L27.3,36z M28.9,38.1H30v-3.1h0.5
	c0.2,0,0.4,0.1,0.5,0.2c0.1,0.1,0.1,0.2,0.1,0.4c0,0.2-0.1,0.3-0.2,0.4c-0.1,0.1-0.2,0.2-0.4,0.2h-0.4l2.2,2.1v-1.5l-0.6-0.5
	c0.2-0.1,0.3-0.2,0.3-0.3c0.1-0.1,0.2-0.3,0.2-0.5c0-0.5-0.1-0.9-0.4-1.1c-0.3-0.2-0.7-0.3-1.2-0.3h-0.9l-0.7,1.2L28.9,38.1
	L28.9,38.1z M35.9,35.5c0-0.5-0.2-0.9-0.5-1.2c-0.3-0.3-0.7-0.4-1-0.4l-0.9,0l-0.7,1.2v2.9h1.1v-3.1h0.5c0.2,0,0.3,0.1,0.4,0.2
	c0.1,0.1,0.2,0.2,0.2,0.4c0,0.2-0.1,0.3-0.2,0.4c-0.1,0.1-0.2,0.2-0.4,0.2h-0.2v1h0.2c0.4,0,0.7-0.1,1-0.4
	C35.8,36.4,35.9,36,35.9,35.5z"/>
</svg>
