<svg xmlns="http://www.w3.org/2000/svg" viewBox="0 0 42 42" enable-background="new 0 0 42 42"><style type="text/css">.st0{fill:#BABABA;}</style><path class="st0" d="M12.1 38.1l5.6-10.9-5.6-10.6h-11.4zM23.3 25.3l2.2 4.2h4.6l-4.5-8.7zM12.1 38.1h4.6l8.9-17.3h-4.6zM27.9 25.2l2.2 4.3 8.8-16.7 1.7.9.7-9.9-7.8 6.5 1.8.8zM21 16.6h4.6v2.8h-4.6zM23.5 38.1h-.3c-.7 0-1.2-.2-1.7-.6-.4-.4-.7-.9-.7-1.5s.2-1.1.7-1.5c.4-.4 1-.6 1.7-.6h1l-.5 1h-.4c-.4 0-.7.1-.9.3-.3.2-.4.5-.4.8 0 .3.1.6.4.8.3.2.6.3.9.3h.2v1zm2.9-4.2c-.6 0-1 .2-1.4.6-.4.4-.6.9-.6 1.6 0 .7.2 1.2.6 1.6.4.4.8.6 1.4.6.6 0 1.1-.2 1.4-.6.4-.4.6-.9.6-1.6 0-.7-.2-1.2-.6-1.6-.4-.4-.8-.6-1.4-.6zm.9 2.1c0 .3-.1.6-.2.8-.2.2-.4.3-.7.3-.3 0-.5-.1-.7-.3-.1-.2-.2-.5-.2-.8 0-.3.1-.6.2-.8.2-.2.4-.3.7-.3.3 0 .5.1.7.3.1.2.2.5.2.8zm1.6 2.1h1.1v-3.1h.5c.2 0 .4.1.5.2.1.1.1.2.1.4s-.1.3-.2.4c-.1.1-.2.2-.4.2h-.4l2.2 2.1v-1.5l-.6-.5c.2-.1.3-.2.3-.3.1-.1.2-.3.2-.5 0-.5-.1-.9-.4-1.1-.3-.2-.7-.3-1.2-.3h-.9l-.7 1.2-.1 2.8zm7-2.6c0-.5-.2-.9-.5-1.2-.3-.3-.7-.4-1-.4h-.9l-.7 1.2v2.9h1.1v-3.1h.5c.2 0 .3.1.4.2.1.1.2.2.2.4s-.1.3-.2.4c-.1.1-.2.2-.4.2h-.2v1h.2c.4 0 .7-.1 1-.4.4-.3.5-.7.5-1.2z"/></svg>