<svg xmlns="http://www.w3.org/2000/svg" viewBox="0 0 30 30" enable-background="new 0 0 30 30"><style type="text/css">.st0{fill:#BABABA;}</style><path class="st0" d="M21 9.8c-1.7-.8-3.7-1.2-5.9-1.2s-4.3.4-6.1 1.2c3.4 0 6.1 2.7 6.1 6.1 0-3.3 2.6-6 5.9-6.1zM9 11c-2.7 0-4.9 2.2-4.9 4.9s2.2 4.9 4.9 4.9 4.9-2.2 4.9-4.9-2.2-4.9-4.9-4.9zm-.1 7.9c-1.6 0-3-1.3-3-3 0-1.6 1.3-3 3-3 1.6 0 3 1.3 3 3s-1.4 3-3 3zM8.9 13.9c-1.1 0-2.1.9-2.1 2.1 0 1.1.9 2.1 2.1 2.1 1.1 0 2.1-.9 2.1-2.1 0-1.2-1-2.1-2.1-2.1zm-.1 3c-.5 0-1-.4-1-1 0-.5.4-1 1-1 .5 0 1 .4 1 1-.1.6-.5 1-1 1zM21.2 13.9c-1.1 0-2.1.9-2.1 2.1 0 1.1.9 2.1 2.1 2.1s2.1-.9 2.1-2.1c-.1-1.2-1-2.1-2.1-2.1zm-.2 3c-.5 0-1-.4-1-1s.4-1 1-1c.5 0 1 .4 1 1s-.4 1-1 1zM21.2 11c-2.7 0-4.9 2.2-4.9 4.9s2.2 4.9 4.9 4.9 4.9-2.2 4.9-4.9-2.2-4.9-4.9-4.9zm0 7.9c-1.6 0-3-1.3-3-3 0-1.6 1.3-3 3-3 1.6 0 3 1.3 3 3-.1 1.6-1.4 3-3 3zM15 0c-8.3 0-15 6.7-15 15s6.7 15 15 15 15-6.7 15-15-6.7-15-15-15zm6.2 22c-1.9 0-3.6-.9-4.7-2.3-.5.6-1.4 1.9-1.4 1.9-.2-.3-.9-1.4-1.4-1.9-1.1 1.5-2.8 2.3-4.7 2.3-3.4 0-6.1-2.7-6.1-6.1 0-1.3.4-2.6 1.2-3.6-.1-.7-.6-1.7-1.2-2.4h3.9c2.1-1.4 5.1-2.3 8.4-2.3 3.3 0 6.1.9 8.2 2.3h4.1c-.6.7-1.1 1.7-1.2 2.4.7 1 1.2 2.2 1.2 3.6-.2 3.4-3 6.1-6.3 6.1z"/></svg>