<svg xmlns="http://www.w3.org/2000/svg" viewBox="0 0 30 30" enable-background="new 0 0 30 30"><style type="text/css">.st0{fill:#BABABA;}</style><path class="st0" d="M7.6 20.9h15.1c.4 0 .7-.3.7-.7v-9.8l-5.5 4.8 3.2 3c.2.2.2.5 0 .7-.1 0-.2.1-.4.1-.1 0-.2 0-.3-.1l-3.2-3-.8.7c-.4.2-.8.4-1.2.4-.5 0-.9-.2-1.2-.4l-.8-.7-3.2 3c-.2 0-.3.1-.4.1-.1 0-.3-.1-.4-.2-.1-.1-.1-.2-.1-.4 0-.1.1-.3.2-.4l3.2-3-5.5-4.8v9.8c-.1.6.2.9.6.9zM14.6 15.8c.3.2.8.2 1.1 0l7-6.1h-15.1l7 6.1zM15 0c-8.3 0-15 6.7-15 15s6.7 15 15 15 15-6.7 15-15-6.7-15-15-15zm9.4 20.2c0 .9-.7 1.7-1.7 1.7h-15.1c-.9 0-1.7-.7-1.7-1.7v-9.9c0-.9.7-1.7 1.7-1.7h15.1c.9 0 1.7.7 1.7 1.7v9.9z"/></svg>