<svg xmlns="http://www.w3.org/2000/svg" viewBox="0 0 30 30" enable-background="new 0 0 30 30"><style type="text/css">.st0{fill:#BABABA;}</style><circle class="st0" cx="15.1" cy="15" r="3"/><path class="st0" d="M22.1 9.7c-.2-.4-.4-.7-.7-1-.3-.3-.6-.5-1-.7-.3-.1-.8-.3-1.7-.3-1 0-1.2-.1-3.6-.1s-2.7 0-3.6.1c-.9 0-1.4.2-1.7.3-.4.2-.7.4-1 .7-.4.3-.5.6-.7 1-.1.3-.3.8-.3 1.7 0 1-.1 1.2-.1 3.6s0 2.7.1 3.6c0 .9.2 1.4.3 1.7.2.4.4.7.7 1 .3.3.6.5 1 .7.3.1.8.3 1.7.3.9 0 1.2.1 3.6.1s2.7 0 3.6-.1c.9 0 1.4-.2 1.7-.3.4-.2.7-.4 1-.7.3-.3.5-.6.7-1 .1-.3.3-.8.3-1.7 0-1 .1-1.2.1-3.6s0-2.7-.1-3.6c0-.9-.1-1.4-.3-1.7zm-7 9.9c-2.6 0-4.6-2.1-4.6-4.6s2.1-4.6 4.6-4.6 4.6 2.1 4.6 4.6-2 4.6-4.6 4.6zm4.8-8.3c-.6 0-1.1-.5-1.1-1.1 0-.6.5-1.1 1.1-1.1.6 0 1.1.5 1.1 1.1 0 .6-.5 1.1-1.1 1.1zM15 0c-8.3 0-15 6.7-15 15s6.7 15 15 15 15-6.7 15-15-6.7-15-15-15zm9.1 18.7c0 1-.2 1.6-.4 2.2-.2.6-.5 1.1-1 1.6s-1 .8-1.6 1c-.6.2-1.2.4-2.2.4-1 0-1.3.1-3.7.1s-2.8 0-3.7-.1c-1 0-1.6-.2-2.2-.4-.6-.2-1.1-.5-1.6-1s-.8-1-1-1.6c-.2-.6-.4-1.2-.4-2.2 0-1-.1-1.3-.1-3.7s0-2.8.1-3.7c0-1 .2-1.6.4-2.2.2-.6.5-1.1 1-1.6s1-.8 1.6-1c.6-.2 1.2-.4 2.2-.4 1 0 1.3-.1 3.7-.1s2.8 0 3.7.1c1 0 1.6.2 2.2.4.6.2 1.1.5 1.6 1s.8 1 1 1.6c.2.6.4 1.2.4 2.2 0 1 .1 1.3.1 3.7-.1 2.4-.1 2.8-.1 3.7z"/></svg>