<?xml version="1.0" encoding="utf-8"?>
<!-- Generator: Adobe Illustrator 19.2.0, SVG Export Plug-In . SVG Version: 6.00 Build 0)  -->
<svg version="1.1" id="Layer_1" xmlns="http://www.w3.org/2000/svg" xmlns:xlink="http://www.w3.org/1999/xlink" x="0px" y="0px"
	 viewBox="0 0 24 24" style="enable-background:new 0 0 24 24;" xml:space="preserve">
<style type="text/css">
	.st0{fill:#FFFFFF;}
	.st1{fill:#FFFFFF;stroke:#FFFFFF;stroke-miterlimit:10;}
</style>
<g>
	<path class="st0" d="M12.4,20.9c-5.4,0-9.8-4.4-9.8-9.8c0-5.4,4.4-9.8,9.8-9.8c5.4,0,9.8,4.4,9.8,9.8
		C22.2,16.5,17.8,20.9,12.4,20.9L12.4,20.9z M12.4,1.9c-5.1,0-9.2,4.1-9.2,9.2s4.1,9.2,9.2,9.2c5.1,0,9.2-4.1,9.2-9.2
		C21.6,6,17.5,1.9,12.4,1.9L12.4,1.9z M12.4,1.9"/>
	<path class="st0" d="M12.4,21.1c-5.5,0-9.9-4.5-9.9-9.9c0-5.5,4.5-9.9,9.9-9.9c5.5,0,9.9,4.5,9.9,9.9
		C22.4,16.6,17.9,21.1,12.4,21.1z M12.4,1.4c-5.3,0-9.7,4.3-9.7,9.7c0,5.3,4.3,9.7,9.7,9.7c5.3,0,9.7-4.3,9.7-9.7
		C22.1,5.8,17.8,1.4,12.4,1.4z M12.4,20.5c-5.2,0-9.3-4.2-9.3-9.4s4.2-9.4,9.3-9.4s9.3,4.2,9.4,9.4C21.8,16.3,17.6,20.5,12.4,20.5z
		 M12.4,2c-5,0-9.1,4.1-9.1,9.1s4.1,9.1,9.1,9.1c5,0,9.1-4.1,9.1-9.1C21.5,6.1,17.4,2,12.4,2z"/>
</g>
<path class="st1" d="M15.4,9l-2.7,2.7c-0.1,0.1-0.3,0.1-0.4,0l-4-4c-0.1-0.1-0.1-0.3,0-0.4c0.1-0.1,0.3-0.1,0.4,0l3.8,3.8L15,8.6
	c0.1-0.1,0.3-0.1,0.4,0C15.5,8.7,15.5,8.9,15.4,9L15.4,9z M15.4,9"/>
</svg>
