<svg xmlns="http://www.w3.org/2000/svg" viewBox="0 0 24 24" enable-background="new 0 0 24 24"><style type="text/css">.st0{fill:#FFFFFF;}</style><path class="st0" d="M12.8 23.8l-1.4-2.2c-.1-.1-1.6-2.4-3.1-5.1-2.2-4-3.3-6.7-3.3-8.4 0-4.3 3.5-7.8 7.8-7.8s7.8 3.5 7.8 7.8c0 1.7-1.1 4.5-3.3 8.4-1.5 2.7-3 5-3.1 5.1l-1.4 2.2zm0-22.8c-3.9 0-7 3.1-7 7 0 1.6 1 4.2 3.2 8 1.5 2.7 3 5 3.1 5.1l.8 1.2.8-1.2c.1-.1 1.6-2.4 3.1-5.1 2.1-3.8 3.2-6.4 3.2-8-.2-3.8-3.3-7-7.2-7zm0 11.2c-2.3 0-4.2-1.9-4.2-4.2s1.9-4.2 4.2-4.2 4.2 1.9 4.2 4.2-1.8 4.2-4.2 4.2zm0-7.6c-1.9 0-3.4 1.5-3.4 3.4s1.5 3.4 3.4 3.4 3.4-1.5 3.4-3.4-1.5-3.4-3.4-3.4zM12.8 23.9l-1.5-2.3s-1.6-2.4-3.1-5.2c-2.2-3.9-3.3-6.6-3.3-8.3 0-4.4 3.5-7.9 7.9-7.9s7.9 3.5 7.9 7.9c0 1.7-1.1 4.5-3.3 8.4-1.5 2.7-3.1 5.1-3.1 5.2l-1.5 2.2zm0-23.6c-4.3 0-7.7 3.5-7.7 7.7 0 1.7 1.1 4.4 3.3 8.4 1.5 2.8 3.1 5.1 3.1 5.1l1.4 2.1 1.4-2.1c.1-.1 1.6-2.4 3.1-5.1 2.2-3.9 3.3-6.7 3.3-8.4-.1-4.2-3.6-7.7-7.9-7.7zm0 22.2l-.8-1.3c-.1-.1-1.6-2.4-3.1-5.1-2.1-3.8-3.2-6.5-3.2-8 0-4 3.2-7.1 7.1-7.1s7.1 3.2 7.1 7.1c0 1.6-1 4.2-3.2 8-1.5 2.7-3 5-3.1 5.1l-.8 1.3zm0-21.4c-3.8 0-6.9 3.1-6.9 7 0 1.6 1 4.2 3.2 8 1.5 2.7 3 5 3.1 5.1l.7 1.1.7-1.1c.1-.1 1.6-2.4 3.1-5.1 2.1-3.8 3.2-6.4 3.2-8-.1-3.9-3.3-7-7.1-7zm0 11.2c-2.4 0-4.3-1.9-4.3-4.3s1.9-4.3 4.3-4.3 4.3 1.9 4.3 4.3-1.9 4.3-4.3 4.3zm0-8.5c-2.3 0-4.2 1.9-4.2 4.2s1.9 4.2 4.2 4.2 4.2-1.9 4.2-4.2-1.9-4.2-4.2-4.2zm0 7.7c-1.9 0-3.5-1.6-3.5-3.5s1.6-3.5 3.5-3.5 3.5 1.6 3.5 3.5-1.5 3.5-3.5 3.5zm0-6.9c-1.8 0-3.3 1.6-3.3 3.4s1.5 3.4 3.4 3.4 3.4-1.5 3.4-3.4-1.6-3.4-3.5-3.4z"/></svg>