<svg xmlns="http://www.w3.org/2000/svg" viewBox="0 0 66 66" enable-background="new 0 0 66 66"><style type="text/css">.st0{fill:#262626;}</style><path class="st0" d="M7.9 14.5c-.6 0-1 .5-1 1v7.7h-1.3v-7.7c0-.6-.5-1-1-1-.6 0-1 .5-1 1v7.7h-1.3v-7.7c0-.6-.5-1-1-1s-1 .5-1 1v9.9c0 1.8 1.4 3.2 3.2 3.2h.1v22c0 .6.5 1 1 1 .6 0 1-.5 1-1v-22h.1c1.8 0 3.2-1.4 3.2-3.2v-9.9c0-.6-.5-1-1-1zm-1.1 10.9c0 .6-.5 1.2-1.2 1.2h-2.1c-.6 0-1.2-.5-1.2-1.2v-.1l4.5.1zm0 0M63.6 14.5c-1.1 0-2.1.8-2.2 2l-1.9 20.7c-.1.9.2 1.8.8 2.5.6.7 1.5 1 2.4 1h1v9.9c0 .6.5 1 1 1 .6 0 1-.5 1-1v-33.9c0-1.2-.9-2.2-2.1-2.2zm.1 24.1h-1c-.3 0-.6-.1-.9-.4-.2-.2-.3-.6-.3-.9l1.9-20.7c0-.1.1-.1.1-.1.1 0 .1.1.1.1v22zm0 0M33.5 10.1c-12.6 0-22.9 10.3-22.9 22.9s10.3 23 22.9 23c12.7 0 23-10.3 23-23s-10.3-22.9-23-22.9zm0 43.8c-11.5 0-20.8-9.4-20.8-20.9s9.3-20.8 20.8-20.8 20.9 9.4 20.9 20.9-9.3 20.8-20.9 20.8zm0 0M33.5 17.8c-8.4 0-15.3 6.8-15.3 15.3s6.8 15.3 15.3 15.3c8.4 0 15.3-6.8 15.3-15.3s-6.8-15.3-15.3-15.3zm0 28.4c-7.3 0-13.2-5.9-13.2-13.2s5.9-13.2 13.2-13.2c7.3 0 13.2 5.9 13.2 13.2s-5.9 13.2-13.2 13.2zm0 0"/></svg>