<?xml version="1.0" encoding="utf-8"?>
<!-- Generator: Adobe Illustrator 19.2.0, SVG Export Plug-In . SVG Version: 6.00 Build 0)  -->
<svg version="1.1" id="Layer_1" xmlns="http://www.w3.org/2000/svg" xmlns:xlink="http://www.w3.org/1999/xlink" x="0px" y="0px"
	 viewBox="0 0 24 24" style="enable-background:new 0 0 24 24;" xml:space="preserve">
<style type="text/css">
	.st0{clip-path:url(#SVGID_2_);fill:#FFFFFF;}
</style>
<g>
	<g>
		<defs>
			<rect id="SVGID_1_" x="3" y="0.3" width="21" height="21"/>
		</defs>
		<clipPath id="SVGID_2_">
			<use xlink:href="#SVGID_1_"  style="overflow:visible;"/>
		</clipPath>
		<path class="st0" d="M24,2.3c-0.1-0.1-0.2-0.2-0.3-0.2h-1c-0.2,0-0.3-0.2-0.3-0.3v-1c0-0.1-0.1-0.3-0.2-0.3
			c-0.1-0.1-0.3,0-0.4,0.1l-1.7,1.7c-0.1,0.1-0.1,0.1-0.1,0.2v1c0,0.2,0,0.3,0.1,0.4l-1.7,1.7c-1.6-1.5-3.8-2.4-6.2-2.4
			c-2.4,0-4.7,0.9-6.4,2.7C4,7.5,3,9.8,3,12.2c0,2.4,0.9,4.7,2.6,6.4c1.7,1.7,4,2.6,6.4,2.6c2.4,0,4.7-0.9,6.4-2.6
			c1.7-1.7,2.7-4,2.7-6.4c0-2.4-0.9-4.6-2.4-6.2l1.7-1.7c0.1,0.1,0.3,0.1,0.4,0.1h1c0.1,0,0.2,0,0.2-0.1l1.7-1.7
			C24,2.5,24,2.4,24,2.3L24,2.3z M20.5,12.2c0,4.6-3.8,8.4-8.4,8.4c-4.6,0-8.4-3.8-8.4-8.4c0-4.6,3.8-8.4,8.4-8.4
			c2.2,0,4.2,0.9,5.7,2.2l-2,2c-1-0.9-2.3-1.4-3.7-1.4c-1.5,0-2.9,0.6-3.9,1.6c-1.1,1.1-1.6,2.5-1.6,4c0,3.1,2.5,5.6,5.6,5.6
			c1.5,0,2.9-0.6,4-1.6c1-1.1,1.6-2.5,1.6-3.9c0-1.4-0.5-2.7-1.4-3.7l2-2C19.7,8,20.5,10,20.5,12.2L20.5,12.2z M12.2,12.1
			c0.1,0.1,0.2,0.1,0.2,0.1c0.1,0,0.2,0,0.2-0.1l0.9-0.9c0.2,0.3,0.3,0.6,0.3,1c0,1-0.8,1.8-1.8,1.8c-1,0-1.8-0.8-1.8-1.8
			s0.8-1.8,1.8-1.8c0.4,0,0.7,0.1,1,0.3l-0.9,0.9C12.1,11.7,12.1,12,12.2,12.1L12.2,12.1z M13.6,10.3c-0.4-0.3-0.9-0.5-1.5-0.5
			c-1.3,0-2.4,1.1-2.4,2.4c0,1.3,1.1,2.4,2.4,2.4c1.3,0,2.4-1.1,2.4-2.4c0-0.6-0.2-1.1-0.5-1.5L15.8,9c0.7,0.9,1.2,2,1.2,3.2
			c0,2.7-2.2,4.9-4.9,4.9c-2.7,0-4.9-2.2-4.9-4.9c0-2.7,2.2-4.9,4.9-4.9c1.3,0,2.4,0.4,3.2,1.2L13.6,10.3z M21.8,3.8h-0.9
			c-0.2,0-0.3-0.2-0.3-0.3V2.5l1.1-1.1v0.2c0,0.6,0.5,1,1,1h0.2L21.8,3.8z M21.8,3.8"/>
	</g>
</g>
</svg>
