<svg xmlns="http://www.w3.org/2000/svg" id="Layer_1" viewBox="0 0 66 66"><style type="text/css">  
	.st0{fill:#262626;}
</style><path class="st0" d="M38.3 18c-0.9-0.6-1.5-1.6-1.5-2.6V8.8c1.1-0.1 2-1.1 2-2.2 0-1.2-1-2.2-2.2-2.2h-0.1l0.3-2.9c0-0.2-0.1-0.4-0.2-0.6 -0.2-0.2-0.4-0.3-0.6-0.3h-8.9c-0.2 0-0.4 0.1-0.6 0.3 -0.2 0.2-0.2 0.4-0.2 0.6l0.3 2.9h-0.1c-1.2 0-2.2 1-2.2 2.2 0 1.1 0.9 2.1 2 2.2v6.5c0 1-0.5 2-1.5 2.6 -2.6 1.7-4.1 4.5-4.1 7.6V62c0 1.9 1.5 3.5 3.5 3.5H39c1.9 0 3.5-1.5 3.5-3.5V25.6C42.4 22.5 40.9 19.6 38.3 18L38.3 18zM35.2 10.9h-7.4V8.8h7.4V10.9zM27.9 2.2h7.2l-0.2 2.2h-6.7L27.9 2.2zM25.9 6.6c0-0.3 0.3-0.6 0.6-0.6h10.1c0.3 0 0.6 0.3 0.6 0.6 0 0.3-0.3 0.6-0.6 0.6H26.5C26.1 7.2 25.9 7 25.9 6.6L25.9 6.6zM25.6 19.3c1.4-0.9 2.2-2.4 2.2-4v-2.9h7.4v2.9c0 1.6 0.8 3.1 2.2 4 1 0.6 1.7 1.4 2.3 2.4 -0.5 0.1-0.9 0.1-1.4 0.2 -0.8 0.1-1.2 0.1-1.9 0.2 -1.6 0.1-3.2 0.2-4.9 0.2 -2.9 0-5.7-0.2-8.2-0.5C23.9 20.8 24.7 19.9 25.6 19.3L25.6 19.3zM39 63.8H24.1c-0.9 0-1.7-0.6-1.8-1.5 0.6 0.2 1.2 0.2 1.8 0l0 0c4.7-1.6 10.1-1.6 14.8 0l0.1 0c0.3 0.1 0.6 0.2 0.9 0.2 0.3 0 0.6 0 0.9-0.1C40.6 63.2 39.9 63.8 39 63.8L39 63.8zM40.6 60.6c-0.2 0.2-0.6 0.3-1.1 0.1l-0.1 0c-5-1.7-10.8-1.7-15.9 0l0 0c-0.5 0.2-0.9 0-1.1-0.1 -0.1-0.1-0.2-0.2-0.2-0.3V25.6c0-0.8 0.1-1.6 0.4-2.3 2.7 0.4 5.8 0.6 8.9 0.6 2 0 4-0.1 5.9-0.2 1.1-0.1 1.8-0.2 1.7-0.2 0.5 0 0.9-0.1 1.4-0.2 0.2 0.7 0.4 1.5 0.4 2.3v34.7C40.8 60.5 40.7 60.6 40.6 60.6L40.6 60.6z"/><path class="st0" d="M38.9 32c-0.4 0-0.8 0.4-0.8 0.8v2c0 0.4 0.4 0.8 0.8 0.8 0.4 0 0.8-0.4 0.8-0.8v-2C39.7 32.3 39.3 32 38.9 32L38.9 32z"/><path class="st0" d="M38.9 37.1c-0.4 0-0.8 0.4-0.8 0.8v20.8c0 0.4 0.4 0.8 0.8 0.8 0.4 0 0.8-0.4 0.8-0.8V37.9C39.7 37.4 39.3 37.1 38.9 37.1L38.9 37.1z"/><path class="st0" d="M56.5 45.3H44c-0.4 0-0.8 0.4-0.8 0.8v16.8c0 1.4 1.1 2.5 2.5 2.5h9c1.4 0 2.5-1.1 2.5-2.5V46.1C57.3 45.7 56.9 45.3 56.5 45.3L56.5 45.3zM44.8 51.4c1.7 0.3 3.5 0.4 5.4 0.4 1 0 2 0 2.9-0.1l1.6-0.2c0.3 0 0.6-0.1 0.9-0.1v6.2c0 1.8-1.4 3.2-3.2 3.2H48c-1.8 0-3.2-1.4-3.2-3.2L44.8 51.4 44.8 51.4zM55.6 46.9v2.8c-0.3 0-0.6 0.1-0.9 0.1L53.2 50c-1 0.1-1.9 0.1-2.9 0.1 -1.9 0-3.8-0.1-5.4-0.4v-2.8H55.6zM54.7 63.8h-9c-0.5 0-0.9-0.4-0.9-0.9v-1.7c0.9 0.8 2 1.2 3.2 1.2h4.4c1.2 0 2.4-0.5 3.2-1.2v1.7C55.6 63.4 55.2 63.8 54.7 63.8L54.7 63.8z"/></svg>