<svg xmlns="http://www.w3.org/2000/svg" viewBox="0 0 66 66" enable-background="new 0 0 66 66"><style type="text/css">.st0{fill:#262626;}</style><path class="st0" d="M59.3 50.9h-1.1v-16c0-2.7-2.2-4.9-4.9-4.9h-1.1v-16c0-2.7-2.2-4.9-4.9-4.9h-27.8c-2.7 0-4.9 2.2-4.9 4.9v16h-1.1c-2.7 0-4.9 2.2-4.9 4.9v16h-1.1c-1.6 0-2.9 1.3-2.9 2.9 0 1.6 1.3 2.9 2.9 2.9h51.8c1.6 0 2.9-1.3 2.9-2.9 0-1.6-1.3-2.9-2.9-2.9zm-39.8-39.9h27.9c1.7 0 3.1 1.4 3.1 3.1 0 1.1-.9 2.1-2.1 2.1-1.1 0-2.1-.9-2.1-2.1 0-.5-.4-.9-.9-.9s-.9.4-.9.9c0 1.1-.9 2.1-2.1 2.1-1.1 0-2.1-.9-2.1-2.1 0-.5-.4-.9-.9-.9s-.9.4-.9.9c0 1.1-.9 2.1-2.1 2.1-1.1 0-2.1-.9-2.1-2.1 0-.5-.4-.9-.9-.9s-.9.4-.9.9c0 1.1-.9 2.1-2.1 2.1s-2.1-.9-2.1-2.1c0-.5-.4-.9-.9-.9s-.9.4-.9.9c0 1.1-.9 2.1-2.1 2.1-1.1 0-2.1-.9-2.1-2.1 0-.5-.4-.9-.9-.9s-.9.4-.9.9c0 1.1-.9 2.1-2.1 2.1-1.1 0-2.1-.9-2.1-2.1.1-1.8 1.5-3.1 3.2-3.1zm-3.1 16.9h21c.5 0 .9-.4.9-.9s-.4-.9-.9-.9h-21v-8.7c.6.4 1.3.6 2.1.6 1.2 0 2.3-.5 3-1.4.7.8 1.8 1.4 3 1.4s2.3-.5 3-1.4c.7.8 1.8 1.4 3 1.4s2.3-.5 3-1.4c.7.8 1.8 1.4 3 1.4s2.3-.5 3-1.4c.7.8 1.8 1.4 3 1.4s2.3-.5 3-1.4c.7.8 1.8 1.4 3 1.4.8 0 1.5-.2 2.1-.6v8.6h-3.1c-.5 0-.9.4-.9.9s.4.9.9.9h3.1v2.2h-34v-2.1zm-2.9 4h39.9c1.7 0 3.1 1.4 3.1 3.1 0 1.1-.9 2.1-2.1 2.1-1.1 0-2.1-.9-2.1-2.1 0-.5-.4-.9-.9-.9s-.9.4-.9.9c0 1.1-.9 2.1-2.1 2.1-1.1 0-2.1-.9-2.1-2.1 0-.5-.4-.9-.9-.9s-.9.4-.9.9c0 1.1-.9 2.1-2.1 2.1-1.1 0-2.1-.9-2.1-2.1 0-.5-.4-.9-.9-.9s-.9.4-.9.9c0 1.1-.9 2.1-2.1 2.1-1.1 0-2.1-.9-2.1-2.1 0-.5-.4-.9-.9-.9s-.9.4-.9.9c0 1.1-.9 2.1-2.1 2.1s-2.1-.9-2.1-2.1c0-.5-.4-.9-.9-.9s-.9.4-.9.9c0 1.1-.9 2.1-2.1 2.1-1.1 0-2.1-.9-2.1-2.1 0-.5-.4-.9-.9-.9s-.9.4-.9.9c0 1.1-.9 2.1-2.1 2.1-1.1 0-2.1-.9-2.1-2.1 0-.5-.4-.9-.9-.9s-.9.4-.9.9c0 1.1-.9 2.1-2.1 2.1-1.1 0-2.1-.9-2.1-2.1.1-1.8 1.5-3.1 3.2-3.1zm-3.1 16.9h32.9c.5 0 .9-.4.9-.9s-.4-.9-.9-.9h-32.9v-8.7c.6.4 1.3.6 2.1.6 1.2 0 2.3-.5 3-1.4.7.8 1.8 1.4 3 1.4s2.3-.5 3-1.4c.7.8 1.8 1.4 3 1.4s2.3-.5 3-1.4c.7.8 1.8 1.4 3 1.4s2.3-.5 3-1.4c.7.8 1.8 1.4 3 1.4s2.3-.5 3-1.4c.7.8 1.8 1.4 3 1.4s2.3-.5 3-1.4c.7.8 1.8 1.4 3 1.4s2.3-.5 3-1.4c.7.8 1.8 1.4 3 1.4.8 0 1.5-.2 2.1-.6v8.7h-3.1c-.5 0-.9.4-.9.9s.4.9.9.9h3.1v2.1h-46v-2.1zm48.9 6.1h-51.8c-.6 0-1.1-.5-1.1-1.1 0-.6.5-1.1 1.1-1.1h51.8c.6 0 1.1.5 1.1 1.1 0 .6-.5 1.1-1.1 1.1zm0 0M49.3 46.9h-2c-.5 0-.9.4-.9.9s.4.9.9.9h2c.5 0 .9-.4.9-.9.1-.4-.3-.9-.9-.9zm0 0M43.4 26h-2c-.5 0-.9.4-.9.9s.4.9.9.9h2c.5 0 .9-.4.9-.9s-.4-.9-.9-.9zm0 0M30.4 20c-.5 0-.9.4-.9.9v1c0 .5.4.9.9.9s.9-.4.9-.9v-1c0-.4-.4-.9-.9-.9zm0 0M36.4 20c-.5 0-.9.4-.9.9v1c0 .5.4.9.9.9s.9-.4.9-.9v-1c0-.4-.4-.9-.9-.9zm0 0M42.4 22.9c.5 0 .9-.4.9-.9v-1c0-.5-.4-.9-.9-.9s-.9.4-.9.9v1c-.1.5.4.9.9.9zm0 0M48.3 22.9c.5 0 .9-.4.9-.9v-1c0-.5-.4-.9-.9-.9s-.9.4-.9.9v1c0 .5.4.9.9.9zm0 0M18.5 20c-.5 0-.9.4-.9.9v1c0 .5.4.9.9.9s.9-.4.9-.9v-1c0-.4-.4-.9-.9-.9zm0 0M24.4 20c-.5 0-.9.4-.9.9v1c0 .5.4.9.9.9s.9-.4.9-.9v-1c.1-.4-.3-.9-.9-.9zm0 0M30.4 41c-.5 0-.9.4-.9.9v1c0 .5.4.9.9.9s.9-.4.9-.9v-1c0-.5-.4-.9-.9-.9zm0 0M36.4 41c-.5 0-.9.4-.9.9v1c0 .5.4.9.9.9s.9-.4.9-.9v-1c0-.5-.4-.9-.9-.9zm0 0M42.4 41c-.5 0-.9.4-.9.9v1c0 .5.4.9.9.9s.9-.4.9-.9v-1c0-.5-.4-.9-.9-.9zm0 0M48.3 43.8c.5 0 .9-.4.9-.9v-1c0-.5-.4-.9-.9-.9s-.9.4-.9.9v1c0 .5.4.9.9.9zm0 0M54.3 43.8c.5 0 .9-.4.9-.9v-1c0-.5-.4-.9-.9-.9s-.9.4-.9.9v1c0 .5.4.9.9.9zm0 0M12.5 41c-.5 0-.9.4-.9.9v1c0 .5.4.9.9.9s.9-.4.9-.9v-1c0-.5-.4-.9-.9-.9zm0 0M18.5 41c-.5 0-.9.4-.9.9v1c0 .5.4.9.9.9s.9-.4.9-.9v-1c0-.5-.4-.9-.9-.9zm0 0M24.4 41c-.5 0-.9.4-.9.9v1c0 .5.4.9.9.9s.9-.4.9-.9v-1c.1-.5-.3-.9-.9-.9zm0 0"/></svg>