<svg xmlns="http://www.w3.org/2000/svg" viewBox="0 0 66 66" enable-background="new 0 0 66 66"><style type="text/css">.st0{fill:#262626;}</style><path class="st0" d="M52.2 16.7c-2 0-4.1.5-5.9 1.4-2.8-3.1-6.6-5.1-10.6-5.7l-.6-.1c-.2 0-.4 0-.6-.1h-2.8000000000000003c-.2 0-.4 0-.6.1l-.6.1c-4.1.6-7.8 2.6-10.6 5.7-1.8-.9-3.8-1.4-5.9-1.4-7.4 0-13.5 6-13.5 13.5 0 4.8 2.6 9.3 6.8 11.7v8.6c0 1.8 1.5 3.3 3.3 3.3h45.1c1.8 0 3.3-1.5 3.3-3.3v-8.6c4.1-2.4 6.8-6.8 6.8-11.7-.2-7.4-6.2-13.5-13.6-13.5zm-14.7 35h-9c-1.3 0-2.3-1-2.3-2.3 0-1.3 1-2.3 2.3-2.3h9c1.3 0 2.3 1 2.3 2.3 0 1.2-1 2.3-2.3 2.3zm19.2-1.2c0 .7-.5 1.2-1.2 1.2h-14.2c.4-.7.7-1.5.7-2.3 0-2.4-2-4.4-4.4-4.4h-9c-2.4 0-4.4 2-4.4 4.4 0 .9.2 1.6.7 2.3h-14.4c-.7 0-1.2-.5-1.2-1.2v-8h47.5v8zm.4-10.1h-9.3c.4-.6.8-1.2 1.1-1.8.3-.5.1-1.2-.4-1.4-.5-.3-1.2-.1-1.4.4-.5 1-1.2 1.9-1.9 2.8h-24.3c-.7-.9-1.4-1.8-1.9-2.8-.3-.5-.9-.7-1.4-.4-.5.3-.7.9-.4 1.4.3.6.7 1.2 1.1 1.8h-9.4c-3.9-1.9-6.4-5.9-6.4-10.2 0-6.3 5.1-11.3 11.3-11.3 1.6 0 3.1.3 4.5.9-.7 1-1.3 2.1-1.8 3.2-.2.5 0 1.2.5 1.4.5.2 1.2 0 1.4-.5 2.2-5.1 6.9-8.5 12.2-9.3.4-.1.7-.1 1.1-.1h2.2l1.1.1c5.3.8 10 4.3 12.2 9.3.2.4.6.6 1 .6.1 0 .3 0 .4-.1.5-.2.8-.9.5-1.4-.5-1.1-1.1-2.2-1.8-3.2 1.4-.6 3-.9 4.5-.9 6.3 0 11.3 5.1 11.3 11.3.4 4.3-2.1 8.3-6 10.2zm0 0"/></svg>