<svg xmlns="http://www.w3.org/2000/svg" viewBox="0 0 24 24" enable-background="new 0 0 24 24"><style type="text/css">.st0{fill:#FFFFFF;} .st1{fill:#FFFFFF;stroke:#FFFFFF;stroke-miterlimit:10;}</style><path class="st0" d="M12.4 20.9c-5.4 0-9.8-4.4-9.8-9.8s4.4-9.8 9.8-9.8 9.8 4.4 9.8 9.8-4.4 9.8-9.8 9.8zm0-19c-5.1 0-9.2 4.1-9.2 9.2s4.1 9.2 9.2 9.2 9.2-4.1 9.2-9.2-4.1-9.2-9.2-9.2zm0 0"/><path class="st0" d="M12.4 21.1c-5.5 0-9.9-4.5-9.9-9.9 0-5.5 4.5-9.9 9.9-9.9 5.5 0 9.9 4.5 9.9 9.9.1 5.4-4.4 9.9-9.9 9.9zm0-19.7c-5.3 0-9.7 4.3-9.7 9.7 0 5.3 4.3 9.7 9.7 9.7 5.3 0 9.7-4.3 9.7-9.7 0-5.3-4.3-9.7-9.7-9.7zm0 19.1c-5.2 0-9.3-4.2-9.3-9.4s4.2-9.4 9.3-9.4 9.3 4.2 9.4 9.4c0 5.2-4.2 9.4-9.4 9.4zm0-18.5c-5 0-9.1 4.1-9.1 9.1s4.1 9.1 9.1 9.1 9.1-4.1 9.1-9.1-4.1-9.1-9.1-9.1z"/><path class="st1" d="M15.4 9l-2.7 2.7c-.1.1-.3.1-.4 0l-4-4c-.1-.1-.1-.3 0-.4.1-.1.3-.1.4 0l3.8 3.8 2.5-2.5c.1-.1.3-.1.4 0 .1.1.1.3 0 .4zm0 0"/></svg>