<?xml version="1.0" encoding="utf-8"?>
<!-- Generator: Adobe Illustrator 19.2.0, SVG Export Plug-In . SVG Version: 6.00 Build 0)  -->
<svg version="1.1" id="Layer_1" xmlns="http://www.w3.org/2000/svg" xmlns:xlink="http://www.w3.org/1999/xlink" x="0px" y="0px"
	 viewBox="0 0 66 66" style="enable-background:new 0 0 66 66;" xml:space="preserve">
<style type="text/css">
	.st0{fill:#262626;}
</style>
<g>
	<path class="st0" d="M7.9,14.5c-0.6,0-1,0.5-1,1v7.7H5.6v-7.7c0-0.6-0.5-1-1-1c-0.6,0-1,0.5-1,1v7.7H2.3v-7.7c0-0.6-0.5-1-1-1
		s-1,0.5-1,1v9.9c0,1.8,1.4,3.2,3.2,3.2h0.1v22c0,0.6,0.5,1,1,1c0.6,0,1-0.5,1-1v-22h0.1c1.8,0,3.2-1.4,3.2-3.2v-9.9
		C8.9,14.9,8.4,14.5,7.9,14.5L7.9,14.5z M6.8,25.4c0,0.6-0.5,1.2-1.2,1.2H3.5c-0.6,0-1.2-0.5-1.2-1.2v-0.1L6.8,25.4L6.8,25.4z
		 M6.8,25.4"/>
	<path class="st0" d="M63.6,14.5c-1.1,0-2.1,0.8-2.2,2l-1.9,20.7c-0.1,0.9,0.2,1.8,0.8,2.5c0.6,0.7,1.5,1,2.4,1h1v9.9
		c0,0.6,0.5,1,1,1c0.6,0,1-0.5,1-1V16.7C65.7,15.5,64.8,14.5,63.6,14.5L63.6,14.5z M63.7,38.6h-1c-0.3,0-0.6-0.1-0.9-0.4
		c-0.2-0.2-0.3-0.6-0.3-0.9l1.9-20.7c0-0.1,0.1-0.1,0.1-0.1c0.1,0,0.1,0.1,0.1,0.1V38.6z M63.7,38.6"/>
	<path class="st0" d="M33.5,10.1c-12.6,0-22.9,10.3-22.9,22.9S20.9,56,33.5,56C46.2,56,56.5,45.7,56.5,33S46.2,10.1,33.5,10.1
		L33.5,10.1z M33.5,53.9C22,53.9,12.7,44.5,12.7,33S22,12.2,33.5,12.2c11.5,0,20.9,9.4,20.9,20.9S45.1,53.9,33.5,53.9L33.5,53.9z
		 M33.5,53.9"/>
	<path class="st0" d="M33.5,17.8c-8.4,0-15.3,6.8-15.3,15.3s6.8,15.3,15.3,15.3c8.4,0,15.3-6.8,15.3-15.3S42,17.8,33.5,17.8
		L33.5,17.8z M33.5,46.2c-7.3,0-13.2-5.9-13.2-13.2s5.9-13.2,13.2-13.2c7.3,0,13.2,5.9,13.2,13.2S40.8,46.2,33.5,46.2L33.5,46.2z
		 M33.5,46.2"/>
</g>
</svg>
