<svg xmlns="http://www.w3.org/2000/svg" xmlns:xlink="http://www.w3.org/1999/xlink" viewBox="0 0 66 66" enable-background="new 0 0 66 66"><style type="text/css">.st0{clip-path:url(#SVGID_2_);fill:#262626;}</style><defs><path id="SVGID_1_" d="M21.7.1h27.3v65.9h-27.3z"/></defs><clipPath id="SVGID_2_"><use xlink:href="#SVGID_1_" overflow="visible"/></clipPath><path class="st0" d="M48.9 39.7l-1.3-12.5c-.1-.5-.5-1-1.1-1h-7c-.2-1.2-.7-2.3-1.5-3.2l-3-3.7c-.7-.8-1.1-1.9-1.1-3v-9.8c.7-.4 1.1-1.1 1.1-1.9v-2.3c0-1.2-1-2.2-2.2-2.2h-4.5c-1.2 0-2.2 1-2.2 2.2v2.3c0 .8.5 1.5 1.1 1.9v9.9c0 1.1-.4 2.1-1.1 3l-3 3.7c-1 1.2-1.6 2.7-1.6 4.3v35.2c0 1.8 1.5 3.3 3.3 3.3h17.7c.6 0 1.1-.5 1.1-1.1 0-.6-.5-1.1-1.1-1.1-1.7 0-3-1.4-3-3v-9.6c2.5-.3 4.9-1.4 6.6-3.3 2.1-2.3 3.1-5.2 2.8-8.1zm-20.5-37.4h4.6s.1 0 .1.1v2.3s0 .1-.1.1h-4.5s-.1 0-.1-.1v-2.4zm-4.6 25c0-1.1.4-2.1 1.1-3l3-3.7c1-1.2 1.6-2.7 1.6-4.3v-9.5h2.4v9.6c0 1.6.6 3.1 1.6 4.3l3 3.7c.5.5.8 1.2.9 1.9h-6.8c-.5 0-1 .4-1.1 1l-.6 5.9h-5.2v-5.9zm0 7.9h5l-.5 4.6c-.3 2.9.7 5.8 2.6 7.9.6.7 1.3 1.3 2 1.7v2.9c0 .7-.5 1.2-1.2 1.2h-8v-18.3zm6.7 4.8l.5-4.8h.9c.7 0 1.2.5 1.2 1.2v4.6h-2.6v-1zm7.1 11.1v9.5c0 1.7-1.4 3-3.1 3h-9.5c-.7 0-1.2-.5-1.2-1.2v-6.9h8c1.8 0 3.3-1.5 3.3-3.3v-1.8c.8.3 1.6.5 2.4.6l.1.1zm7.1-4.9c-1.5 1.7-3.8 2.7-6.1 2.7s-4.5-1-6.1-2.7c-.8-.9-1.4-2-1.8-3.1h15.7c-.3 1.2-.9 2.2-1.7 3.1zm2.1-5.2h-11.6v-4.6c0-1.8-1.5-3.3-3.3-3.3h-.6l.5-4.7h14l1 11.6v1zm0 0"/></svg>