<?xml version="1.0" encoding="utf-8"?>
<!-- Generator: Adobe Illustrator 19.2.0, SVG Export Plug-In . SVG Version: 6.00 Build 0)  -->
<svg version="1.1" id="Layer_1" xmlns="http://www.w3.org/2000/svg" xmlns:xlink="http://www.w3.org/1999/xlink" x="0px" y="0px"
	 viewBox="0 0 66 66" style="enable-background:new 0 0 66 66;" xml:space="preserve">
<style type="text/css">
	.st0{clip-path:url(#SVGID_2_);fill:#262626;}
</style>
<g>
	<g>
		<defs>
			<rect id="SVGID_1_" x="21.7" y="0.1" width="27.3" height="65.9"/>
		</defs>
		<clipPath id="SVGID_2_">
			<use xlink:href="#SVGID_1_"  style="overflow:visible;"/>
		</clipPath>
		<path class="st0" d="M48.9,39.7l-1.3-12.5c-0.1-0.5-0.5-1-1.1-1h-7c-0.2-1.2-0.7-2.3-1.5-3.2l-3-3.7c-0.7-0.8-1.1-1.9-1.1-3V6.5
			c0.7-0.4,1.1-1.1,1.1-1.9V2.3c0-1.2-1-2.2-2.2-2.2h-4.5c-1.2,0-2.2,1-2.2,2.2v2.3c0,0.8,0.5,1.5,1.1,1.9v9.9c0,1.1-0.4,2.1-1.1,3
			l-3,3.7c-1,1.2-1.6,2.7-1.6,4.3v35.2c0,1.8,1.5,3.3,3.3,3.3h17.7c0.6,0,1.1-0.5,1.1-1.1c0-0.6-0.5-1.1-1.1-1.1c-1.7,0-3-1.4-3-3
			v-9.5c0,0,0-0.1,0-0.1c2.5-0.3,4.9-1.4,6.6-3.3C48.2,45.5,49.2,42.6,48.9,39.7L48.9,39.7z M28.4,2.3C28.4,2.3,28.4,2.3,28.4,2.3
			L33,2.3c0,0,0.1,0,0.1,0.1v2.3c0,0,0,0.1-0.1,0.1h-4.5c0,0-0.1,0-0.1-0.1V2.3z M23.8,27.3c0-1.1,0.4-2.1,1.1-3l3-3.7
			c1-1.2,1.6-2.7,1.6-4.3V6.8h2.4v9.6c0,1.6,0.6,3.1,1.6,4.3l3,3.7c0.5,0.5,0.8,1.2,0.9,1.9h-6.8c-0.5,0-1,0.4-1.1,1l-0.6,5.9h-5.2
			V27.3z M23.8,35.2h5l-0.5,4.6c-0.3,2.9,0.7,5.8,2.6,7.9c0.6,0.7,1.3,1.3,2,1.7v2.9c0,0.7-0.5,1.2-1.2,1.2h-8V35.2z M30.5,40
			l0.5-4.8h0.9c0.7,0,1.2,0.5,1.2,1.2V41h-2.6C30.5,40.6,30.5,40.3,30.5,40L30.5,40z M37.6,51.1v9.5c0,1.7-1.4,3-3.1,3H25
			c-0.7,0-1.2-0.5-1.2-1.2v-6.9h8c1.8,0,3.3-1.5,3.3-3.3v-1.8c0.8,0.3,1.6,0.5,2.4,0.6C37.6,51.1,37.6,51.1,37.6,51.1L37.6,51.1z
			 M44.7,46.2c-1.5,1.7-3.8,2.7-6.1,2.7h0c-2.3,0-4.5-1-6.1-2.7c-0.8-0.9-1.4-2-1.8-3.1h15.7C46.1,44.3,45.5,45.3,44.7,46.2
			L44.7,46.2z M46.8,41H35.2v-4.6c0-1.8-1.5-3.3-3.3-3.3h-0.6l0.5-4.7h14L46.8,40C46.8,40.3,46.8,40.6,46.8,41L46.8,41z M46.8,41"/>
	</g>
</g>
</svg>
