<svg xmlns="http://www.w3.org/2000/svg" viewBox="0 0 66 66" enable-background="new 0 0 66 66"><style type="text/css">.st0{fill:#262626;}</style><path class="st0" d="M58.1.1h-22.8c-.9 0-1.7.3-2.3.9-.6-.6-1.4-.9-2.3-.9h-22.8c-1.8 0-3.3 1.5-3.3 3.3v59.2c0 1.8 1.5 3.3 3.3 3.3h22.8c.9 0 1.7-.3 2.3-.9.6.6 1.4.9 2.3.9h22.8c1.8 0 3.3-1.5 3.3-3.3v-59.2c0-1.8-1.5-3.3-3.3-3.3zm-26.2 4.5h-1.2c-.6 0-1.1.5-1.1 1.1 0 .6.5 1.1 1.1 1.1h1.2v52.5h-1.2c-.6 0-1.1.5-1.1 1.1 0 .6.5 1.1 1.1 1.1h1.2v1.2c0 .7-.5 1.2-1.2 1.2h-22.8c-.7 0-1.2-.5-1.2-1.2v-59.3c0-.7.5-1.2 1.2-1.2h22.8c.7 0 1.2.5 1.2 1.2v1.2zm27.4 58c0 .7-.5 1.2-1.2 1.2h-22.8c-.7 0-1.2-.5-1.2-1.2v-1.2h1.2c.6 0 1.1-.5 1.1-1.1 0-.6-.5-1.1-1.1-1.1h-1.2v-52.4h1.2c.6 0 1.1-.5 1.1-1.1 0-.6-.5-1.1-1.1-1.1h-1.2v-1.2c0-.7.5-1.2 1.2-1.2h22.8c.7 0 1.2.5 1.2 1.2v59.2zm0 0M52.9 8h-12.5c-2.2 0-3.9 1.8-3.9 3.9 0 2.2 1.8 3.9 3.9 3.9h12.5c2.2 0 3.9-1.8 3.9-3.9 0-2.1-1.7-3.9-3.9-3.9zm0 5.7h-12.5c-1 0-1.8-.8-1.8-1.8s.8-1.8 1.8-1.8h12.5c1 0 1.8.8 1.8 1.8s-.8 1.8-1.8 1.8zm0 0M53.5 20.4c.6 0 1.1-.5 1.1-1.1 0-.6-.5-1.1-1.1-1.1h-13.7c-.6 0-1.1.5-1.1 1.1 0 .6.5 1.1 1.1 1.1h13.7zm0 0M36.5 29.6c0 .6.5 1.1 1.1 1.1h15.9c.6 0 1.1-.5 1.1-1.1 0-.6-.5-1.1-1.1-1.1h-15.9c-.6 0-1.1.5-1.1 1.1zm0 0M37.6 35.2h11.4c.6 0 1.1-.5 1.1-1.1 0-.6-.5-1.1-1.1-1.1h-11.4c-.6 0-1.1.5-1.1 1.1 0 .7.5 1.1 1.1 1.1zm0 0M55.8 33.1h-2.3c-.6 0-1.1.5-1.1 1.1 0 .6.5 1.1 1.1 1.1h2.3c.6 0 1.1-.5 1.1-1.1-.1-.6-.5-1.1-1.1-1.1zm0 0M37.6 39.8h15.9c.6 0 1.1-.5 1.1-1.1 0-.6-.5-1.1-1.1-1.1h-15.9c-.6 0-1.1.5-1.1 1.1 0 .6.5 1.1 1.1 1.1zm0 0M37.6 44.3h11.4c.6 0 1.1-.5 1.1-1.1 0-.6-.5-1.1-1.1-1.1h-11.4c-.6 0-1.1.5-1.1 1.1 0 .7.5 1.1 1.1 1.1zm0 0M55.8 42.2h-2.3c-.6 0-1.1.5-1.1 1.1 0 .6.5 1.1 1.1 1.1h2.3c.6 0 1.1-.5 1.1-1.1-.1-.6-.5-1.1-1.1-1.1zm0 0M37.6 48.9h15.9c.6 0 1.1-.5 1.1-1.1 0-.6-.5-1.1-1.1-1.1h-15.9c-.6 0-1.1.5-1.1 1.1 0 .6.5 1.1 1.1 1.1zm0 0M48.9 51.3h-11.3c-.6 0-1.1.5-1.1 1.1 0 .6.5 1.1 1.1 1.1h11.4c.6 0 1.1-.5 1.1-1.1-.1-.6-.6-1.1-1.2-1.1zm0 0M55.8 51.3h-2.3c-.6 0-1.1.5-1.1 1.1 0 .6.5 1.1 1.1 1.1h2.3c.6 0 1.1-.5 1.1-1.1-.1-.6-.5-1.1-1.1-1.1zm0 0M18.2 13.7c-.6 0-1.1.5-1.1 1.1v8h-1.3v-8c0-.6-.5-1.1-1.1-1.1-.6 0-1.1.5-1.1 1.1v8h-1.3v-8c0-.6-.5-1.1-1.1-1.1-.6 0-1.1.5-1.1 1.1v10.2c0 1.8 1.5 3.3 3.3 3.3h.1v24c0 .6.5 1.1 1.1 1.1.6 0 1.1-.5 1.1-1.1v-24h.1c1.8 0 3.3-1.5 3.3-3.3v-10.2c.2-.6-.3-1.1-.9-1.1zm-1.1 11.4c0 .7-.5 1.2-1.2 1.2h-2.3c-.7 0-1.2-.5-1.2-1.2v-.1l4.7.1zm0 0M26.2 15.8c-.1-1.2-1.1-2-2.3-2-1.2 0-2.3 1-2.3 2.3v36.4c0 .6.5 1.1 1.1 1.1s1.1-.5 1.1-1.1v-11.6h1c.9 0 1.8-.4 2.5-1.1.6-.7.9-1.6.9-2.6l-2-21.4zm-.5 22.6c-.2.3-.5.4-.9.4h-1v-22.8c0-.1.1-.1.1-.1.1 0 .1 0 .1.1l2 21.5c0 .3-.1.6-.3.9zm0 0"/></svg>