<?xml version="1.0" encoding="utf-8"?>
<!-- Generator: Adobe Illustrator 19.2.0, SVG Export Plug-In . SVG Version: 6.00 Build 0)  -->
<svg version="1.1" id="Layer_1" xmlns="http://www.w3.org/2000/svg" xmlns:xlink="http://www.w3.org/1999/xlink" x="0px" y="0px"
	 viewBox="0 0 66 66" style="enable-background:new 0 0 66 66;" xml:space="preserve">
<style type="text/css">
	.st0{clip-path:url(#SVGID_2_);fill:#262626;}
</style>
<g>
	<g>
		<defs>
			<rect id="SVGID_1_" x="6.5" y="5.9" width="53" height="54.1"/>
		</defs>
		<clipPath id="SVGID_2_">
			<use xlink:href="#SVGID_1_"  style="overflow:visible;"/>
		</clipPath>
		<path class="st0" d="M56.2,9.2c-3.3-3.3-8.7-3.3-12,0l-34,34c0,0,0,0,0,0.1c0,0,0,0-0.1,0.1c0,0.1-0.1,0.1-0.1,0.2c0,0,0,0,0,0.1
			c0,0,0,0,0,0l-3.3,14c0,0.1,0,0.1,0,0.2c0,0,0,0,0,0c0,0.1,0,0.2,0.1,0.3c0,0,0,0,0,0.1c0,0.1,0.1,0.2,0.2,0.3
			c0.1,0.1,0.2,0.2,0.3,0.2c0.1,0,0.2,0.1,0.4,0.1c0.1,0,0.1,0,0.2,0l14-3.3c0,0,0,0,0.1,0c0,0,0.1,0,0.1,0c0.1,0,0.1-0.1,0.2-0.1
			c0,0,0,0,0.1-0.1c0,0,0,0,0,0l34.1-34C59.5,17.9,59.5,12.5,56.2,9.2L56.2,9.2z M54.9,10.6c2.3,2.4,2.5,6,0.6,8.6L46.2,10
			C48.8,8,52.5,8.2,54.9,10.6L54.9,10.6z M50.2,24.6l-9.4-9.3l1.3-1.3l9.3,9.3L50.2,24.6z M11.2,54.2c-0.4-0.4-1-0.4-1.3,0l-0.7,0.7
			l2.4-10.1l4.2-0.5l-0.5,4.8c0,0,0,0.1,0,0.1c0,0,0,0.1,0,0.1c0,0,0,0.1,0,0.1c0,0.1,0,0.1,0.1,0.2c0,0.1,0.1,0.1,0.1,0.2
			c0,0,0.1,0.1,0.1,0.1c0,0.1,0.1,0.1,0.2,0.1c0,0,0.1,0.1,0.1,0.1c0.1,0,0.1,0,0.2,0.1c0,0,0.1,0,0.1,0c0,0,0.1,0,0.1,0h0
			c0,0,0.1,0,0.1,0l4.8-0.5l-0.5,4.2l-10.1,2.4l0.7-0.7C11.6,55.2,11.6,54.6,11.2,54.2L11.2,54.2z M23,49.1l21.1-21.1
			c0.4-0.4,0.4-1,0-1.3c-0.4-0.4-1-0.4-1.3,0L21.7,47.7l-4.5,0.5l0.5-4.5l21.1-21.1c0.4-0.4,0.4-1,0-1.3c-0.4-0.4-1-0.4-1.3,0
			L16.4,42.4l-3,0.3l26.1-26.1l9.3,9.3L22.7,52.1L23,49.1z M52.9,21.9l-9.4-9.4l1.3-1.3l9.3,9.4L52.9,21.9z M52.9,21.9"/>
	</g>
</g>
</svg>
