<?xml version="1.0" encoding="utf-8"?>
<!-- Generator: Adobe Illustrator 19.2.0, SVG Export Plug-In . SVG Version: 6.00 Build 0)  -->
<svg version="1.1" id="Layer_1" xmlns="http://www.w3.org/2000/svg" xmlns:xlink="http://www.w3.org/1999/xlink" x="0px" y="0px"
	 viewBox="0 0 66 66" style="enable-background:new 0 0 66 66;" xml:space="preserve">
<style type="text/css">
	.st0{fill:#262626;}
</style>
<path class="st0" d="M54.5,38.5L54.5,38.5c0.9-1.3,1.8-3,1.7-5c0-2.8-1.7-5.5-4.9-8c0.4-1.2,0.5-2.4,0.3-3.6
	c-0.9-4.6-5.9-6.4-10.5-7.5c0.2-0.5,0.3-1.1,0.3-1.7c0-2.2-1.3-4.2-3.1-5.2c1.8-3.7,4.3-4.1,5.3-4.1c1.3,0,2,0.3,2.5,0.5
	c0.4,0.2,0.8,0.2,1.1-0.1c0.6-0.5,0.5-1.4-0.1-1.7c-0.7-0.4-1.9-0.8-3.5-0.8c-2,0-3.8,0.9-5.3,2.6c-0.5,0.6-1.3,1.5-1.9,2.9
	c-0.3,0-0.6-0.1-0.9-0.1c-2.2,0-4.2,1.2-5.2,3.1c-0.4-0.4-0.8-0.9-1.1-1.6c-0.1-0.3-0.3-0.5-0.6-0.5c-0.3-0.1-0.6-0.1-0.8,0.1
	c-3.1,1.7-5.3,4-6.6,6.8c-1.2,2.4-1.4,4.6-1.4,5.9c-0.1,0-0.2,0.1-0.3,0.1c-2.7,1.1-4.2,3.3-4.4,6.3c-0.1,1.2,0,2.3,0.2,3
	c-2.1,0.8-3.6,2.2-4.1,4.1c-0.4,1.5-0.2,3.1,0.5,4.5h-0.8c-0.3,0-0.6,0.1-0.8,0.4c-0.2,0.2-0.3,0.6-0.2,0.9l5.1,22.3
	c0.3,1.5,1.6,2.5,3.1,2.5h29.3c1.5,0,2.8-1,3.1-2.5l5.1-22.3c0.1-0.3,0-0.6-0.2-0.9C55.1,38.7,54.8,38.5,54.5,38.5L54.5,38.5z
	 M35.4,8.9c2.1,0,3.9,1.7,3.9,3.9c0,2.1-1.7,3.9-3.9,3.9c-2.1,0-3.9-1.7-3.9-3.9C31.5,10.6,33.2,8.9,35.4,8.9L35.4,8.9z M18,62.6
	c-0.5,0-1-0.4-1.1-0.9l-4.8-21.1h3.3l3.7,21.5c0,0.2,0.1,0.3,0.1,0.5H18z M21.7,62.6c-0.2,0-0.5-0.3-0.6-0.8l-3.6-21.1h3.3L23.2,62
	c0,0.2,0.1,0.4,0.1,0.6H21.7z M25.5,62.6c-0.1-0.1-0.2-0.4-0.2-0.8l-2.4-21.2h3.3L27.4,62c0,0.2,0,0.4,0.1,0.6H25.5z M31.6,62.6
	h-2.1c0-0.2-0.1-0.4-0.1-0.7l-1.2-21.3h3.3c0,0,0,0,0,0c0,0,0,0,0,0h0.1V62.6z M35.8,61.8c0,0.3-0.1,0.6-0.1,0.7h-2.1v-22H37
	L35.8,61.8z M39.8,62.6h-2c0-0.2,0-0.4,0.1-0.6l1.2-21.4h3.3L40,61.8C40,62.2,39.9,62.5,39.8,62.6L39.8,62.6z M43.6,62.6H42
	c0-0.2,0.1-0.4,0.1-0.6l2.4-21.4h3.3l-3.6,21.1C44.1,62.3,43.8,62.6,43.6,62.6L43.6,62.6z M48.4,61.7c-0.1,0.5-0.6,0.9-1.1,0.9h-1.2
	c0.1-0.2,0.1-0.3,0.1-0.5l3.7-21.5h2.2c0,0,0,0,0,0c0,0,0,0,0,0h1.1L48.4,61.7z M51.7,38.5H36c2.3-1.2,5.3-2.9,8.1-4.9
	c0.5-0.3,0.6-1,0.3-1.4c-0.3-0.5-1-0.6-1.4-0.3c-4.9,3.4-10.5,6-11.6,6.5H14.1c-1-1.1-1.4-2.6-1.1-4c0.4-1.5,1.8-2.6,3.9-3
	c1.9-0.4,7.1-1.5,12.8-3.1c0.5-0.2,0.9-0.7,0.7-1.3c-0.2-0.5-0.7-0.9-1.3-0.7c-5.1,1.5-9.8,2.5-12,3c-0.3-1.7-0.5-5.3,3.1-6.9
	c1.4-0.6,4.2-1.1,7.2-1.6l1-0.2c0.6-0.1,0.9-0.6,0.8-1.2c-0.1-0.6-0.6-0.9-1.2-0.8l-1,0.2c-1.9,0.3-3.8,0.7-5.3,1.1
	c0.1-2.4,1.2-6.6,6.1-9.8c0.4,0.6,0.8,1,1.1,1.3c0.2,0.2,0.4,0.4,0.6,0.5c0,0.2,0,0.5,0,0.7c0,3.3,2.7,5.9,5.9,5.9
	c1.9,0,3.6-0.9,4.7-2.3c2,0.4,3.7,0.9,5,1.5c0.3,0.4,0.2,0.7,0.2,0.9c-0.3,0.8-1.8,3-11.1,6.1c-0.5,0.2-0.8,0.8-0.6,1.3
	c0.1,0.4,0.5,0.7,1,0.7c0.1,0,0.2,0,0.3-0.1c3.3-1.1,6-2.2,8-3.3c2.5-1.4,3.9-2.7,4.4-4.1c0-0.1,0.1-0.2,0.1-0.3
	c1.3,0.9,2,2,2.2,3.3c0.4,1.9-0.5,3.9-2.5,6.1c-0.4,0.4-0.4,1.1,0.1,1.4c0.2,0.2,0.4,0.3,0.7,0.3c0.3,0,0.5-0.1,0.7-0.3
	c0.8-0.8,1.4-1.6,1.9-2.4c2.5,2.1,3.7,4.1,3.7,6.1C54.2,35.8,52.7,37.6,51.7,38.5L51.7,38.5z M51.7,38.5"/>
</svg>
