<svg xmlns="http://www.w3.org/2000/svg" viewBox="0 0 66 66" enable-background="new 0 0 66 66"><style type="text/css">.st0{fill:#262626;}</style><path class="st0" d="M56.4 14.2h-11.6v-4.3c0-2.9-2.3-5.2-5.2-5.2h-12.6c-2.9 0-5.2 2.3-5.2 5.2v4.3h-11.6c-4 0-7.3 3.3-7.3 7.3v16.8c0 1.7.8 3.2 2.1 4.2v11.5c0 4 3.3 7.3 7.3 7.3h42c4 0 7.3-3.3 7.3-7.3v-11.6c1.3-.9 2.1-2.5 2.1-4.2v-16.7c0-4.1-3.3-7.3-7.3-7.3zm-32.6-4.3c0-1.8 1.4-3.2 3.2-3.2h12.6c1.8 0 3.2 1.4 3.2 3.2v4.3h-2.2v-4.3c0-.5-.4-1-1-1h-12.6c-.5 0-1 .4-1 1v4.3h-2.2v-4.3zm4.2 4.3v-3.3h10.6v3.3h-10.6zm31.6 39.8c0 2.9-2.4 5.3-5.3 5.3h-42c-2.9 0-5.3-2.4-5.3-5.3v-10.7c.4.1.7.1 1.1.1h5.3v1.1c0 1.7 1.4 3.1 3.1 3.1h2.1c1.7 0 3.1-1.4 3.1-3.1v-1.1h23.2v1.1c0 1.7 1.4 3.1 3.1 3.1h2.1c1.7 0 3.1-1.4 3.1-3.1v-1.1h5.3c.4 0 .8 0 1.1-.1v10.7zm-39.9-12.5h-4.3v-1.1c0-.6.5-1.1 1.1-1.1h2.1c.6 0 1.1.5 1.1 1.1v1.1zm0 1.9v1.1c0 .6-.5 1.1-1.1 1.1h-2.1c-.6 0-1.1-.5-1.1-1.1v-1.1h4.3zm31.5-1.9h-4.3v-1.1c0-.6.5-1.1 1.1-1.1h2.1c.6 0 1.1.5 1.1 1.1v1.1zm0 1.9v1.1c0 .6-.5 1.1-1.1 1.1h-2.1c-.6 0-1.1-.5-1.1-1.1v-1.1h4.3zm10.5-5.2c0 1.8-1.4 3.2-3.2 3.2h-5.3v-1.1c0-1.7-1.4-3.1-3.1-3.1h-2.1c-1.7 0-3.1 1.4-3.1 3.1v1.1h-23.2v-1.1c0-1.7-1.4-3.1-3.1-3.1h-2.1c-1.7 0-3.1 1.4-3.1 3.1v1.1h-5.3c-1.8 0-3.2-1.4-3.2-3.2v-16.7c0-2.9 2.4-5.3 5.3-5.3h46.2c2.9 0 5.3 2.4 5.3 5.3v16.7zm0 0"/></svg>