<?xml version="1.0" encoding="utf-8"?>
<!-- Generator: Adobe Illustrator 19.2.0, SVG Export Plug-In . SVG Version: 6.00 Build 0)  -->
<svg version="1.1" id="Layer_1" xmlns="http://www.w3.org/2000/svg" xmlns:xlink="http://www.w3.org/1999/xlink" x="0px" y="0px"
	 viewBox="0 0 66 66" style="enable-background:new 0 0 66 66;" xml:space="preserve">
<style type="text/css">
	.st0{fill:#262626;}
</style>
<g>
	<path class="st0" d="M52.2,20.5c-0.1-1.2-1-2.1-2.2-2.1h-7.6L40.6,6.8C40,3.1,36.8,0.4,33,0.4c-3.8,0-7,2.7-7.6,6.5l-1.8,11.6H16
		c-1.2,0-2.1,0.9-2.2,2.1l-2.1,42.9c0,0.6,0.2,1.2,0.6,1.6c0.4,0.4,1,0.7,1.6,0.7h38.2c0.6,0,1.2-0.2,1.6-0.7c0.4-0.4,0.6-1,0.6-1.6
		L52.2,20.5z M27.5,7.2C28,4.4,30.3,2.5,33,2.5c2.7,0,5,2,5.5,4.7l1.8,11.3H25.7L27.5,7.2z M52.2,63.5
		C52.1,63.5,52.1,63.5,52.2,63.5l-38.3,0c0,0,0,0-0.1,0c0,0,0,0,0-0.1L16,20.6c0,0,0-0.1,0.1-0.1h7.2l-0.3,2.2
		c-0.1,0.6,0.3,1.1,0.9,1.2c0.1,0,0.1,0,0.2,0c0.5,0,1-0.4,1-0.9l0.4-2.5h15.2L41,23c0.1,0.6,0.6,1,1.2,0.9c0.6-0.1,1-0.6,0.9-1.2
		l-0.3-2.2H50c0,0,0.1,0,0.1,0.1L52.2,63.5C52.2,63.5,52.2,63.5,52.2,63.5L52.2,63.5z M52.2,63.5"/>
	<path class="st0" d="M33,27.4c-0.6,0-1.1,0.5-1.1,1.1v5.7h-1.3v-5.7c0-0.6-0.5-1.1-1.1-1.1c-0.6,0-1.1,0.5-1.1,1.1v5.7h-1.3v-5.7
		c0-0.6-0.5-1.1-1.1-1.1c-0.6,0-1.1,0.5-1.1,1.1v7.9c0,1.8,1.5,3.3,3.3,3.3h0.1v18.1c0,0.6,0.5,1.1,1.1,1.1c0.6,0,1.1-0.5,1.1-1.1
		V39.7h0.1c1.8,0,3.3-1.5,3.3-3.3v-7.9C34.1,27.9,33.6,27.4,33,27.4L33,27.4z M31.9,36.4c0,0.7-0.5,1.2-1.2,1.2h-2.3
		c-0.7,0-1.2-0.5-1.2-1.2v-0.1L31.9,36.4L31.9,36.4z M31.9,36.4"/>
	<path class="st0" d="M40.9,29.5c-0.1-1.2-1.1-2-2.2-2c-1.2,0-2.2,1-2.2,2.2v28.1c0,0.6,0.5,1.1,1.1,1.1c0.6,0,1.1-0.5,1.1-1.1V51
		h0.9c0.9,0,1.8-0.4,2.5-1.1c0.6-0.7,0.9-1.6,0.8-2.6L40.9,29.5z M40.4,48.5c-0.2,0.3-0.5,0.4-0.9,0.4h-0.9V29.7
		c0-0.1,0.1-0.1,0.1-0.1c0.1,0,0.1,0,0.1,0.1l1.9,17.8C40.7,47.9,40.6,48.2,40.4,48.5L40.4,48.5z M40.4,48.5"/>
</g>
</svg>
