<svg xmlns="http://www.w3.org/2000/svg" xmlns:xlink="http://www.w3.org/1999/xlink" viewBox="0 0 66 66" enable-background="new 0 0 66 66"><style type="text/css">.st0{clip-path:url(#SVGID_2_);fill:#262626;}</style><defs><path id="SVGID_1_" d="M6.5 5.9h53v54.1h-53z"/></defs><clipPath id="SVGID_2_"><use xlink:href="#SVGID_1_" overflow="visible"/></clipPath><path class="st0" d="M56.2 9.2c-3.3-3.3-8.7-3.3-12 0l-34 34v.1l-.1.1-.1.2v.1l-3.3 14v.2c0 .1 0 .2.1.3v.1c0 .1.1.2.2.3.1.1.2.2.3.2.1 0 .2.1.4.1h.2l14-3.3h.2l.2-.1.1-.1 34.1-34c3-3.5 3-8.9-.3-12.2zm-1.3 1.4c2.3 2.4 2.5 6 .6 8.6l-9.3-9.2c2.6-2 6.3-1.8 8.7.6zm-4.7 14l-9.4-9.3 1.3-1.3 9.3 9.3-1.2 1.3zm-39 29.6c-.4-.4-1-.4-1.3 0l-.7.7 2.4-10.1 4.2-.5-.5 4.8v.30000000000000004c0 .1 0 .1.1.2l.1.2.1.1c0 .1.1.1.2.1l.1.1c.1 0 .1 0 .2.1h.30000000000000004l4.8-.5-.5 4.2-10.1 2.4.7-.7c.3-.4.3-1-.1-1.4zm11.8-5.1l21.1-21.1c.4-.4.4-1 0-1.3-.4-.4-1-.4-1.3 0l-21.1 21-4.5.5.5-4.5 21.1-21.1c.4-.4.4-1 0-1.3-.4-.4-1-.4-1.3 0l-21.1 21.1-3 .3 26.1-26.1 9.3 9.3-26.1 26.2.3-3zm29.9-27.2l-9.4-9.4 1.3-1.3 9.3 9.4-1.2 1.3zm0 0"/></svg>