<?xml version="1.0" encoding="utf-8"?>
<!-- Generator: Adobe Illustrator 19.2.0, SVG Export Plug-In . SVG Version: 6.00 Build 0)  -->
<svg version="1.1" id="Layer_1" xmlns="http://www.w3.org/2000/svg" xmlns:xlink="http://www.w3.org/1999/xlink" x="0px" y="0px"
	 viewBox="0 0 66 66" style="enable-background:new 0 0 66 66;" xml:space="preserve">
<style type="text/css">
	.st0{fill:#262626;}
</style>
<g>
	<path class="st0" d="M59.3,50.9h-1.1v-16c0-2.7-2.2-4.9-4.9-4.9h-1.1V14c0-2.7-2.2-4.9-4.9-4.9H19.5c-2.7,0-4.9,2.2-4.9,4.9v16
		h-1.1c-2.7,0-4.9,2.2-4.9,4.9v16H7.5c-1.6,0-2.9,1.3-2.9,2.9c0,1.6,1.3,2.9,2.9,2.9h51.8c1.6,0,2.9-1.3,2.9-2.9
		C62.2,52.2,60.9,50.9,59.3,50.9L59.3,50.9z M19.5,11h27.9c1.7,0,3.1,1.4,3.1,3.1c0,1.1-0.9,2.1-2.1,2.1c-1.1,0-2.1-0.9-2.1-2.1
		c0-0.5-0.4-0.9-0.9-0.9c-0.5,0-0.9,0.4-0.9,0.9c0,1.1-0.9,2.1-2.1,2.1c-1.1,0-2.1-0.9-2.1-2.1c0-0.5-0.4-0.9-0.9-0.9
		c-0.5,0-0.9,0.4-0.9,0.9c0,1.1-0.9,2.1-2.1,2.1c-1.1,0-2.1-0.9-2.1-2.1c0-0.5-0.4-0.9-0.9-0.9c-0.5,0-0.9,0.4-0.9,0.9
		c0,1.1-0.9,2.1-2.1,2.1s-2.1-0.9-2.1-2.1c0-0.5-0.4-0.9-0.9-0.9c-0.5,0-0.9,0.4-0.9,0.9c0,1.1-0.9,2.1-2.1,2.1
		c-1.1,0-2.1-0.9-2.1-2.1c0-0.5-0.4-0.9-0.9-0.9c-0.5,0-0.9,0.4-0.9,0.9c0,1.1-0.9,2.1-2.1,2.1c-1.1,0-2.1-0.9-2.1-2.1
		C16.4,12.3,17.8,11,19.5,11L19.5,11z M16.4,27.9h21c0.5,0,0.9-0.4,0.9-0.9c0-0.5-0.4-0.9-0.9-0.9h-21v-8.7c0.6,0.4,1.3,0.6,2.1,0.6
		c1.2,0,2.3-0.5,3-1.4c0.7,0.8,1.8,1.4,3,1.4c1.2,0,2.3-0.5,3-1.4c0.7,0.8,1.8,1.4,3,1.4c1.2,0,2.3-0.5,3-1.4c0.7,0.8,1.8,1.4,3,1.4
		c1.2,0,2.3-0.5,3-1.4c0.7,0.8,1.8,1.4,3,1.4c1.2,0,2.3-0.5,3-1.4c0.7,0.8,1.8,1.4,3,1.4c0.8,0,1.5-0.2,2.1-0.6V26h-3.1
		c-0.5,0-0.9,0.4-0.9,0.9c0,0.5,0.4,0.9,0.9,0.9h3.1V30h-34V27.9z M13.5,31.9h39.9c1.7,0,3.1,1.4,3.1,3.1c0,1.1-0.9,2.1-2.1,2.1
		c-1.1,0-2.1-0.9-2.1-2.1c0-0.5-0.4-0.9-0.9-0.9c-0.5,0-0.9,0.4-0.9,0.9c0,1.1-0.9,2.1-2.1,2.1c-1.1,0-2.1-0.9-2.1-2.1
		c0-0.5-0.4-0.9-0.9-0.9c-0.5,0-0.9,0.4-0.9,0.9c0,1.1-0.9,2.1-2.1,2.1c-1.1,0-2.1-0.9-2.1-2.1c0-0.5-0.4-0.9-0.9-0.9
		c-0.5,0-0.9,0.4-0.9,0.9c0,1.1-0.9,2.1-2.1,2.1c-1.1,0-2.1-0.9-2.1-2.1c0-0.5-0.4-0.9-0.9-0.9c-0.5,0-0.9,0.4-0.9,0.9
		c0,1.1-0.9,2.1-2.1,2.1s-2.1-0.9-2.1-2.1c0-0.5-0.4-0.9-0.9-0.9c-0.5,0-0.9,0.4-0.9,0.9c0,1.1-0.9,2.1-2.1,2.1
		c-1.1,0-2.1-0.9-2.1-2.1c0-0.5-0.4-0.9-0.9-0.9c-0.5,0-0.9,0.4-0.9,0.9c0,1.1-0.9,2.1-2.1,2.1c-1.1,0-2.1-0.9-2.1-2.1
		c0-0.5-0.4-0.9-0.9-0.9c-0.5,0-0.9,0.4-0.9,0.9c0,1.1-0.9,2.1-2.1,2.1c-1.1,0-2.1-0.9-2.1-2.1C10.4,33.2,11.8,31.9,13.5,31.9
		L13.5,31.9z M10.4,48.8h32.9c0.5,0,0.9-0.4,0.9-0.9c0-0.5-0.4-0.9-0.9-0.9H10.4v-8.7c0.6,0.4,1.3,0.6,2.1,0.6c1.2,0,2.3-0.5,3-1.4
		c0.7,0.8,1.8,1.4,3,1.4c1.2,0,2.3-0.5,3-1.4c0.7,0.8,1.8,1.4,3,1.4c1.2,0,2.3-0.5,3-1.4c0.7,0.8,1.8,1.4,3,1.4c1.2,0,2.3-0.5,3-1.4
		c0.7,0.8,1.8,1.4,3,1.4c1.2,0,2.3-0.5,3-1.4c0.7,0.8,1.8,1.4,3,1.4c1.2,0,2.3-0.5,3-1.4c0.7,0.8,1.8,1.4,3,1.4c1.2,0,2.3-0.5,3-1.4
		c0.7,0.8,1.8,1.4,3,1.4c0.8,0,1.5-0.2,2.1-0.6v8.7h-3.1c-0.5,0-0.9,0.4-0.9,0.9c0,0.5,0.4,0.9,0.9,0.9h3.1v2.1h-46V48.8z
		 M59.3,54.9H7.5c-0.6,0-1.1-0.5-1.1-1.1c0-0.6,0.5-1.1,1.1-1.1h51.8c0.6,0,1.1,0.5,1.1,1.1C60.4,54.4,59.9,54.9,59.3,54.9
		L59.3,54.9z M59.3,54.9"/>
	<path class="st0" d="M49.3,46.9h-2c-0.5,0-0.9,0.4-0.9,0.9c0,0.5,0.4,0.9,0.9,0.9h2c0.5,0,0.9-0.4,0.9-0.9
		C50.3,47.4,49.9,46.9,49.3,46.9L49.3,46.9z M49.3,46.9"/>
	<path class="st0" d="M43.4,26h-2c-0.5,0-0.9,0.4-0.9,0.9c0,0.5,0.4,0.9,0.9,0.9h2c0.5,0,0.9-0.4,0.9-0.9C44.3,26.4,43.9,26,43.4,26
		L43.4,26z M43.4,26"/>
	<path class="st0" d="M30.4,20c-0.5,0-0.9,0.4-0.9,0.9v1c0,0.5,0.4,0.9,0.9,0.9c0.5,0,0.9-0.4,0.9-0.9v-1C31.3,20.5,30.9,20,30.4,20
		L30.4,20z M30.4,20"/>
	<path class="st0" d="M36.4,20c-0.5,0-0.9,0.4-0.9,0.9v1c0,0.5,0.4,0.9,0.9,0.9c0.5,0,0.9-0.4,0.9-0.9v-1C37.3,20.5,36.9,20,36.4,20
		L36.4,20z M36.4,20"/>
	<path class="st0" d="M42.4,22.9c0.5,0,0.9-0.4,0.9-0.9v-1c0-0.5-0.4-0.9-0.9-0.9c-0.5,0-0.9,0.4-0.9,0.9v1
		C41.4,22.5,41.9,22.9,42.4,22.9L42.4,22.9z M42.4,22.9"/>
	<path class="st0" d="M48.3,22.9c0.5,0,0.9-0.4,0.9-0.9v-1c0-0.5-0.4-0.9-0.9-0.9c-0.5,0-0.9,0.4-0.9,0.9v1
		C47.4,22.5,47.8,22.9,48.3,22.9L48.3,22.9z M48.3,22.9"/>
	<path class="st0" d="M18.5,20c-0.5,0-0.9,0.4-0.9,0.9v1c0,0.5,0.4,0.9,0.9,0.9c0.5,0,0.9-0.4,0.9-0.9v-1C19.4,20.5,19,20,18.5,20
		L18.5,20z M18.5,20"/>
	<path class="st0" d="M24.4,20c-0.5,0-0.9,0.4-0.9,0.9v1c0,0.5,0.4,0.9,0.9,0.9c0.5,0,0.9-0.4,0.9-0.9v-1C25.4,20.5,25,20,24.4,20
		L24.4,20z M24.4,20"/>
	<path class="st0" d="M30.4,41c-0.5,0-0.9,0.4-0.9,0.9v1c0,0.5,0.4,0.9,0.9,0.9c0.5,0,0.9-0.4,0.9-0.9v-1C31.3,41.4,30.9,41,30.4,41
		L30.4,41z M30.4,41"/>
	<path class="st0" d="M36.4,41c-0.5,0-0.9,0.4-0.9,0.9v1c0,0.5,0.4,0.9,0.9,0.9c0.5,0,0.9-0.4,0.9-0.9v-1C37.3,41.4,36.9,41,36.4,41
		L36.4,41z M36.4,41"/>
	<path class="st0" d="M42.4,41c-0.5,0-0.9,0.4-0.9,0.9v1c0,0.5,0.4,0.9,0.9,0.9c0.5,0,0.9-0.4,0.9-0.9v-1C43.3,41.4,42.9,41,42.4,41
		L42.4,41z M42.4,41"/>
	<path class="st0" d="M48.3,43.8c0.5,0,0.9-0.4,0.9-0.9v-1c0-0.5-0.4-0.9-0.9-0.9c-0.5,0-0.9,0.4-0.9,0.9v1
		C47.4,43.4,47.8,43.8,48.3,43.8L48.3,43.8z M48.3,43.8"/>
	<path class="st0" d="M54.3,43.8c0.5,0,0.9-0.4,0.9-0.9v-1c0-0.5-0.4-0.9-0.9-0.9c-0.5,0-0.9,0.4-0.9,0.9v1
		C53.4,43.4,53.8,43.8,54.3,43.8L54.3,43.8z M54.3,43.8"/>
	<path class="st0" d="M12.5,41c-0.5,0-0.9,0.4-0.9,0.9v1c0,0.5,0.4,0.9,0.9,0.9c0.5,0,0.9-0.4,0.9-0.9v-1C13.4,41.4,13,41,12.5,41
		L12.5,41z M12.5,41"/>
	<path class="st0" d="M18.5,41c-0.5,0-0.9,0.4-0.9,0.9v1c0,0.5,0.4,0.9,0.9,0.9c0.5,0,0.9-0.4,0.9-0.9v-1C19.4,41.4,19,41,18.5,41
		L18.5,41z M18.5,41"/>
	<path class="st0" d="M24.4,41c-0.5,0-0.9,0.4-0.9,0.9v1c0,0.5,0.4,0.9,0.9,0.9c0.5,0,0.9-0.4,0.9-0.9v-1C25.4,41.4,25,41,24.4,41
		L24.4,41z M24.4,41"/>
</g>
</svg>
