<svg xmlns="http://www.w3.org/2000/svg" viewBox="0 0 66 66" enable-background="new 0 0 66 66"><style type="text/css">.st0{fill:#262626;}</style><path class="st0" d="M52.2 20.5c-.1-1.2-1-2.1-2.2-2.1h-7.6l-1.8-11.6c-.6-3.7-3.8-6.4-7.6-6.4s-7 2.7-7.6 6.5l-1.8 11.6h-7.6c-1.2 0-2.1.9-2.2 2.1l-2.1 42.9c0 .6.2 1.2.6 1.6.4.4 1 .7 1.6.7h38.2c.6 0 1.2-.2 1.6-.7.4-.4.6-1 .6-1.6l-2.1-43zm-24.7-13.3c.5-2.8 2.8-4.7 5.5-4.7s5 2 5.5 4.7l1.8 11.3h-14.6l1.8-11.3zm24.7 56.3h-38.4v-.1l2.2-42.8s0-.1.1-.1h7.2l-.3 2.2c-.1.6.3 1.1.9 1.2h.2c.5 0 1-.4 1-.9l.4-2.5h15.2l.3 2.5c.1.6.6 1 1.2.9.6-.1 1-.6.9-1.2l-.3-2.2h7.2s.1 0 .1.1l2.1 42.9zm0 0M33 27.4c-.6 0-1.1.5-1.1 1.1v5.7h-1.3v-5.7c0-.6-.5-1.1-1.1-1.1-.6 0-1.1.5-1.1 1.1v5.7h-1.3v-5.7c0-.6-.5-1.1-1.1-1.1-.6 0-1.1.5-1.1 1.1v7.9c0 1.8 1.5 3.3 3.3 3.3h.1v18.1c0 .6.5 1.1 1.1 1.1.6 0 1.1-.5 1.1-1.1v-18.1h.1c1.8 0 3.3-1.5 3.3-3.3v-7.9c.2-.6-.3-1.1-.9-1.1zm-1.1 9c0 .7-.5 1.2-1.2 1.2h-2.3c-.7 0-1.2-.5-1.2-1.2v-.1l4.7.1zm0 0M40.9 29.5c-.1-1.2-1.1-2-2.2-2-1.2 0-2.2 1-2.2 2.2v28.1c0 .6.5 1.1 1.1 1.1.6 0 1.1-.5 1.1-1.1v-6.8h.9c.9 0 1.8-.4 2.5-1.1.6-.7.9-1.6.8-2.6l-2-17.8zm-.5 19c-.2.3-.5.4-.9.4h-.9v-19.2c0-.1.1-.1.1-.1.1 0 .1 0 .1.1l1.9 17.8c0 .4-.1.7-.3 1zm0 0"/></svg>