<svg xmlns="http://www.w3.org/2000/svg" viewBox="0 0 66 66" enable-background="new 0 0 66 66"><style type="text/css">.st0{fill:#262626;}</style><path class="st0" d="M54.5 38.5c.9-1.3 1.8-3 1.7-5 0-2.8-1.7-5.5-4.9-8 .4-1.2.5-2.4.3-3.6-.9-4.6-5.9-6.4-10.5-7.5.2-.5.3-1.1.3-1.7 0-2.2-1.3-4.2-3.1-5.2 1.8-3.7 4.3-4.1 5.3-4.1 1.3 0 2 .3 2.5.5.4.2.8.2 1.1-.1.6-.5.5-1.4-.1-1.7-.7-.4-1.9-.8-3.5-.8-2 0-3.8.9-5.3 2.6-.5.6-1.3 1.5-1.9 2.9l-.9-.1c-2.2 0-4.2 1.2-5.2 3.1-.4-.4-.8-.9-1.1-1.6-.1-.3-.3-.5-.6-.5-.3-.1-.6-.1-.8.1-3.1 1.7-5.3 4-6.6 6.8-1.2 2.4-1.4 4.6-1.4 5.9l-.3.1c-2.7 1.1-4.2 3.3-4.4 6.3-.1 1.2 0 2.3.2 3-2.1.8-3.6 2.2-4.1 4.1-.4 1.5-.2 3.1.5 4.5h-.8c-.3 0-.6.1-.8.4-.2.2-.3.6-.2.9l5.1 22.3c.3 1.5 1.6 2.5 3.1 2.5h29.3c1.5 0 2.8-1 3.1-2.5l5.1-22.3c.1-.3 0-.6-.2-.9-.3-.2-.6-.4-.9-.4zm-19.1-29.6c2.1 0 3.9 1.7 3.9 3.9 0 2.1-1.7 3.9-3.9 3.9-2.1 0-3.9-1.7-3.9-3.9s1.7-3.9 3.9-3.9zm-17.4 53.7c-.5 0-1-.4-1.1-.9l-4.8-21.1h3.3l3.7 21.5.1.5h-1.2zm3.7 0c-.2 0-.5-.3-.6-.8l-3.6-21.1h3.3l2.4 21.3.1.6h-1.6zm3.8 0c-.1-.1-.2-.4-.2-.8l-2.4-21.2h3.3l1.2 21.4c0 .2 0 .4.1.6h-2zm6.1 0h-2.1c0-.2-.1-.4-.1-.7l-1.2-21.3h3.4v22zm4.2-.8c0 .3-.1.6-.1.7h-2.1v-22h3.4l-1.2 21.3zm4 .8h-2c0-.2 0-.4.1-.6l1.2-21.4h3.3l-2.4 21.2c0 .4-.1.7-.2.8zm3.8 0h-1.6l.1-.6 2.4-21.4h3.3l-3.6 21.1c-.1.6-.4.9-.6.9zm4.8-.9c-.1.5-.6.9-1.1.9h-1.2c.1-.2.1-.3.1-.5l3.7-21.5h3.3000000000000003l-4.8 21.1zm3.3-23.2h-15.7c2.3-1.2 5.3-2.9 8.1-4.9.5-.3.6-1 .3-1.4-.3-.5-1-.6-1.4-.3-4.9 3.4-10.5 6-11.6 6.5h-17.3c-1-1.1-1.4-2.6-1.1-4 .4-1.5 1.8-2.6 3.9-3 1.9-.4 7.1-1.5 12.8-3.1.5-.2.9-.7.7-1.3-.2-.5-.7-.9-1.3-.7-5.1 1.5-9.8 2.5-12 3-.3-1.7-.5-5.3 3.1-6.9 1.4-.6 4.2-1.1 7.2-1.6l1-.2c.6-.1.9-.6.8-1.2-.1-.6-.6-.9-1.2-.8l-1 .2c-1.9.3-3.8.7-5.3 1.1.1-2.4 1.2-6.6 6.1-9.8.4.6.8 1 1.1 1.3.2.2.4.4.6.5v.7c0 3.3 2.7 5.9 5.9 5.9 1.9 0 3.6-.9 4.7-2.3 2 .4 3.7.9 5 1.5.3.4.2.7.2.9-.3.8-1.8 3-11.1 6.1-.5.2-.8.8-.6 1.3.1.4.5.7 1 .7.1 0 .2 0 .3-.1 3.3-1.1 6-2.2 8-3.3 2.5-1.4 3.9-2.7 4.4-4.1l.1-.3c1.3.9 2 2 2.2 3.3.4 1.9-.5 3.9-2.5 6.1-.4.4-.4 1.1.1 1.4.2.2.4.3.7.3.3 0 .5-.1.7-.3.8-.8 1.4-1.6 1.9-2.4 2.5 2.1 3.7 4.1 3.7 6.1 0 2.4-1.5 4.2-2.5 5.1zm0 0"/></svg>