<svg xmlns="http://www.w3.org/2000/svg" viewBox="0 0 24 24" enable-background="new 0 0 24 24"><style type="text/css">.st0{fill:#FFFFFF;}</style><path class="st0" d="M22.1 9.7c-.1-.2-.3-.4-.5-.5l-6.2-1-2.9-5.6c-.1-.2-.3-.4-.6-.4s-.5.1-.6.4l-2.8 5.6-6.2 1c-.3 0-.5.2-.5.5-.1.2 0 .5.2.7l4.4 4.4-1 6.2c0 .3.1.5.3.7.2.1.5.2.7.1l5.6-2.8 5.6 2.8.3.1c.1 0 .3 0 .4-.1.2-.1.3-.4.3-.7l-1-6.2 4.4-4.4c.1-.3.2-.6.1-.8zm-5.8 4.4c-.2.2-.2.4-.2.6l.8 5.2-4.7-2.4c-.2-.1-.4-.1-.6 0l-4.7 2.4.8-5.2c0-.2 0-.4-.2-.6l-3.7-3.7 5.2-.9c.2 0 .4-.2.5-.4l2.4-4.7 2.4 4.7c.1.2.3.3.5.4l5.2.8-3.7 3.8zm0 0"/></svg>