<?xml version="1.0" encoding="utf-8"?>
<!-- Generator: Adobe Illustrator 19.2.0, SVG Export Plug-In . SVG Version: 6.00 Build 0)  -->
<svg version="1.1" id="Layer_1" xmlns="http://www.w3.org/2000/svg" xmlns:xlink="http://www.w3.org/1999/xlink" x="0px" y="0px"
	 viewBox="0 0 24 24" style="enable-background:new 0 0 24 24;" xml:space="preserve">
<style type="text/css">
	.st0{fill:#FFFFFF;}
</style>
<path class="st0" d="M22.1,9.7c-0.1-0.2-0.3-0.4-0.5-0.5l-6.2-1l-2.9-5.6c-0.1-0.2-0.3-0.4-0.6-0.4c-0.3,0-0.5,0.1-0.6,0.4L8.5,8.2
	l-6.2,1c-0.3,0-0.5,0.2-0.5,0.5c-0.1,0.2,0,0.5,0.2,0.7l4.4,4.4l-1,6.2c0,0.3,0.1,0.5,0.3,0.7c0.2,0.1,0.5,0.2,0.7,0.1l5.6-2.8
	l5.6,2.8c0.1,0,0.2,0.1,0.3,0.1c0.1,0,0.3,0,0.4-0.1c0.2-0.1,0.3-0.4,0.3-0.7l-1-6.2l4.4-4.4C22.1,10.2,22.2,9.9,22.1,9.7L22.1,9.7z
	 M16.3,14.1c-0.2,0.2-0.2,0.4-0.2,0.6l0.8,5.2l-4.7-2.4c-0.2-0.1-0.4-0.1-0.6,0l-4.7,2.4l0.8-5.2c0-0.2,0-0.4-0.2-0.6l-3.7-3.7
	L9,9.5c0.2,0,0.4-0.2,0.5-0.4l2.4-4.7l2.4,4.7c0.1,0.2,0.3,0.3,0.5,0.4l5.2,0.8L16.3,14.1z M16.3,14.1"/>
</svg>
