<svg xmlns="http://www.w3.org/2000/svg" viewBox="0 0 24 24" enable-background="new 0 0 24 24"><style type="text/css">.st0{fill:#FFFFFF;}</style><path class="st0" d="M18.1 13.4c0-3.6-1.2-11.6-1.2-12 0-.1-.1-.2-.2-.3-.1-.1-.2-.1-.4-.1-.1 0-3.1 1.1-6 3.2-1.8 1.2-3.2 2.5-4.2 3.9-1.3 1.7-1.9 3.5-1.9 5.3 0 3.4 2.4 6.2 5.6 6.9.2 1 .4 1.9.6 2.7.1.2.2.3.4.3h.1c.2-.1.4-.3.3-.6-.2-.7-.4-1.5-.6-2.3h.4c4 0 7.1-3.2 7.1-7zm-13.1 0c0-3.7 3.2-6.6 5.8-8.4 1.7-1.2 3.4-2 4.6-2.6-.9 1.4-2.8 4.2-3.9 7-.1.2 0 .5.3.6h.2c.2 0 .3-.1.4-.3 1.1-2.8 3-5.8 3.9-7 .3 2.4 1 7.9 1 10.6 0 3.4-2.7 6.1-6.1 6.1-3.4.1-6.2-2.7-6.2-6zm0 0M11.3 11.5c-.2 0-.5.1-.5.4-.1.5-.1.9-.1 1.4 0 .2.2.4.4.4s.4-.2.4-.4c0-.4 0-.8.1-1.2.1-.3-.1-.6-.3-.6zm0 0"/></svg>