<svg xmlns="http://www.w3.org/2000/svg" viewBox="0 0 24 24" enable-background="new 0 0 24 24"><style type="text/css">.st0{fill:#FFFFFF;}</style><path class="st0" d="M12 21.8c-5.4 0-9.8-4.4-9.8-9.8s4.4-9.8 9.8-9.8 9.8 4.4 9.8 9.8-4.4 9.8-9.8 9.8zm0-18.2c-4.6 0-8.4 3.8-8.4 8.4s3.8 8.4 8.4 8.4 8.4-3.8 8.4-8.4-3.8-8.4-8.4-8.4zM13.1 17.2c0 .2 0 .3-.1.4l-.2.4s-.2.2-.3.2c-.1.1-.3.1-.4.1-.1 0-.3 0-.4-.1l-.3-.2s-.2-.2-.2-.4c-.1-.1-.1-.3-.1-.4 0-.2 0-.3.1-.5s.1-.3.2-.4c.1-.1.2-.2.3-.2 0-.1.2-.1.3-.1.1 0 .3 0 .4.1l.3.2c.1.1.2.2.2.4s.2.3.2.5zm-.8-3.3h-.7l-.6-7.4v-.5c0-.2.1-.3.2-.4l.3-.3c.1-.1.3-.1.5-.1s.4 0 .5.1l.3.3c.1.1.2.3.2.4v.5l-.7 7.4z"/></svg>