<?xml version="1.0" encoding="utf-8"?>
<!-- Generator: Adobe Illustrator 19.2.0, SVG Export Plug-In . SVG Version: 6.00 Build 0)  -->
<svg version="1.1" id="logo" xmlns="http://www.w3.org/2000/svg" xmlns:xlink="http://www.w3.org/1999/xlink" x="0px" y="0px"
	 viewBox="0 0 165 46.8" style="enable-background:new 0 0 165 46.8;" xml:space="preserve">
<style type="text/css">
	.st0{fill:#333333;}
</style>
<g>
	<path class="st0" d="M18.3,23.3c0.1,0,0.1,0,0.2,0c0.1,0,0.1,0.1,0.2,0.1l1.1,1.2c-0.5,0.6-1.1,1.1-1.9,1.5
		c-0.7,0.3-1.6,0.5-2.6,0.5c-0.9,0-1.8-0.2-2.5-0.5c-0.7-0.3-1.4-0.8-1.9-1.3c-0.5-0.6-0.9-1.2-1.2-2c-0.3-0.8-0.4-1.6-0.4-2.5
		c0-0.9,0.1-1.8,0.4-2.5c0.3-0.8,0.7-1.4,1.3-2c0.5-0.6,1.2-1,1.9-1.3c0.8-0.3,1.6-0.5,2.5-0.5c0.5,0,0.9,0,1.3,0.1
		c0.4,0.1,0.8,0.2,1.1,0.3c0.4,0.1,0.7,0.3,1,0.5c0.3,0.2,0.6,0.4,0.8,0.7l-1,1.3c-0.1,0.1-0.1,0.1-0.2,0.2s-0.2,0.1-0.4,0.1
		c-0.1,0-0.2,0-0.3-0.1c-0.1,0-0.2-0.1-0.3-0.2c-0.1-0.1-0.2-0.1-0.3-0.2c-0.1-0.1-0.3-0.1-0.4-0.2c-0.2-0.1-0.4-0.1-0.6-0.2
		c-0.2,0-0.5-0.1-0.8-0.1c-0.5,0-0.9,0.1-1.3,0.3c-0.4,0.2-0.7,0.4-1,0.8c-0.3,0.3-0.5,0.7-0.7,1.2s-0.2,1-0.2,1.7
		c0,0.6,0.1,1.2,0.3,1.7s0.4,0.9,0.7,1.2c0.3,0.3,0.6,0.6,1,0.8c0.4,0.2,0.8,0.3,1.3,0.3c0.3,0,0.5,0,0.7,0c0.2,0,0.4-0.1,0.6-0.1
		c0.2-0.1,0.4-0.1,0.5-0.2c0.2-0.1,0.3-0.2,0.5-0.4c0.1-0.1,0.1-0.1,0.2-0.1C18.2,23.3,18.3,23.3,18.3,23.3z"/>
	<path class="st0" d="M33.3,14.2v2.3h-3.4v10H27v-10h-3.4v-2.3C23.5,14.2,33.3,14.2,33.3,14.2z"/>
	<path class="st0" d="M40.9,22.4v4.1H38V14.2h4.3c0.9,0,1.6,0.1,2.2,0.3c0.6,0.2,1.1,0.5,1.5,0.8c0.4,0.4,0.7,0.8,0.9,1.3
		c0.2,0.5,0.3,1,0.3,1.6c0,0.6-0.1,1.2-0.3,1.7c-0.2,0.5-0.5,0.9-0.9,1.3c-0.4,0.4-0.9,0.6-1.5,0.9c-0.6,0.2-1.4,0.3-2.2,0.3H40.9z
		 M40.9,20.2h1.5c0.7,0,1.3-0.2,1.6-0.5c0.3-0.4,0.5-0.8,0.5-1.5c0-0.3,0-0.5-0.1-0.8c-0.1-0.2-0.2-0.4-0.4-0.6
		c-0.2-0.2-0.4-0.3-0.6-0.4c-0.3-0.1-0.6-0.1-0.9-0.1h-1.5V20.2z"/>
	<path class="st0" d="M64.1,20.3c0,0.9-0.2,1.7-0.5,2.5c-0.3,0.8-0.7,1.4-1.3,2c-0.6,0.6-1.2,1-2,1.3c-0.8,0.3-1.6,0.5-2.6,0.5
		c-1,0-1.8-0.2-2.6-0.5c-0.8-0.3-1.5-0.8-2-1.3c-0.6-0.6-1-1.2-1.3-2c-0.3-0.8-0.5-1.6-0.5-2.5c0-0.9,0.2-1.7,0.5-2.5
		c0.3-0.8,0.7-1.4,1.3-2c0.6-0.6,1.2-1,2-1.3c0.8-0.3,1.7-0.5,2.6-0.5c1,0,1.8,0.2,2.6,0.5c0.8,0.3,1.4,0.8,2,1.3
		c0.6,0.6,1,1.2,1.3,2C63.9,18.6,64.1,19.5,64.1,20.3z M61.2,20.3c0-0.6-0.1-1.1-0.2-1.6c-0.2-0.5-0.4-0.9-0.7-1.2
		c-0.3-0.3-0.7-0.6-1.1-0.8c-0.4-0.2-0.9-0.3-1.5-0.3c-0.5,0-1,0.1-1.5,0.3c-0.4,0.2-0.8,0.4-1.1,0.8c-0.3,0.3-0.5,0.7-0.7,1.2
		c-0.2,0.5-0.2,1-0.2,1.6c0,0.6,0.1,1.2,0.2,1.6c0.2,0.5,0.4,0.9,0.7,1.2c0.3,0.3,0.7,0.6,1.1,0.8c0.4,0.2,0.9,0.3,1.5,0.3
		c0.5,0,1-0.1,1.5-0.3c0.4-0.2,0.8-0.4,1.1-0.8c0.3-0.3,0.5-0.7,0.7-1.2C61.1,21.5,61.2,21,61.2,20.3z"/>
	<path class="st0" d="M76.8,16.3H72v10.1h-2.9V14.2h7.7V16.3L76.8,16.3z"/>
	<path class="st0" d="M91.2,26.5H89c-0.2,0-0.4-0.1-0.6-0.2c-0.2-0.1-0.3-0.3-0.3-0.4l-0.7-2.1h-4.7l-0.7,2.1
		c-0.1,0.2-0.2,0.3-0.3,0.4c-0.2,0.1-0.4,0.2-0.6,0.2h-2.2l4.7-12.2h2.9L91.2,26.5z M83.3,21.8h3.3l-1.1-3.4
		c-0.1-0.2-0.2-0.5-0.3-0.8c-0.1-0.3-0.2-0.6-0.3-0.9c-0.1,0.3-0.2,0.7-0.3,0.9c-0.1,0.3-0.2,0.5-0.3,0.8L83.3,21.8z"/>
	<path class="st0" d="M106.1,26.5h-2.9v-5.2h-5v5.2h-2.9V14.2h2.9v5.1h5v-5.1h2.9V26.5z"/>
	<path class="st0" d="M119.2,15.1c0.1-0.1,0.1-0.2,0.2-0.3c0.1-0.1,0.2-0.2,0.3-0.3c0.1-0.1,0.2-0.1,0.3-0.2
		c0.1-0.1,0.3-0.1,0.4-0.1h2.1v12.2h-2.9v-6.9c0-0.3,0-0.7,0-1c0-0.4,0.1-0.7,0.1-1.1c-0.1,0.4-0.3,0.7-0.4,1
		c-0.2,0.3-0.3,0.6-0.4,0.8l-3.7,6.4c-0.1,0.1-0.1,0.2-0.2,0.3c-0.1,0.1-0.2,0.2-0.3,0.3c-0.1,0.1-0.2,0.1-0.3,0.2
		c-0.1,0.1-0.3,0.1-0.4,0.1h-2.1V14.2h2.9v6.8c0,0.3,0,0.7,0,1s-0.1,0.7-0.1,1.1c0.1-0.4,0.3-0.7,0.4-1c0.2-0.3,0.3-0.6,0.4-0.8
		L119.2,15.1z"/>
	<path class="st0" d="M138.9,26.5h-2.9v-5.2h-5v5.2h-2.9V14.2h2.9v5.1h5v-5.1h2.9V26.5z"/>
	<path class="st0" d="M155.6,26.5h-2.2c-0.2,0-0.4-0.1-0.6-0.2c-0.2-0.1-0.3-0.3-0.3-0.4l-0.7-2.1h-4.7l-0.7,2.1
		c-0.1,0.2-0.2,0.3-0.3,0.4c-0.2,0.1-0.4,0.2-0.6,0.2h-2.2l4.7-12.2h2.9L155.6,26.5z M147.8,21.8h3.3l-1.1-3.4
		c-0.1-0.2-0.2-0.5-0.3-0.8c-0.1-0.3-0.2-0.6-0.3-0.9c-0.1,0.3-0.2,0.7-0.3,0.9c-0.1,0.3-0.2,0.5-0.3,0.8L147.8,21.8z"/>
</g>
<polygon class="st0" points="0,0 0,40.3 115.8,40.3 115.8,37.9 2.2,37.9 2.2,2.5 162.8,2.5 162.8,37.9 150.8,37.9 150.8,40.3 
	165,40.3 165,0 "/>
<g>
	<path class="st0" d="M122.8,37.6c0.1-0.3,0.3-0.6,0.5-0.8c0.2-0.2,0.4-0.5,0.7-0.6c0.3-0.2,0.5-0.3,0.8-0.4c0.3-0.1,0.7-0.1,1-0.1
		s0.7,0.1,1.1,0.2c0.4,0.2,0.7,0.4,0.9,0.7c0.3,0.3,0.5,0.7,0.6,1.1c0.1,0.4,0.2,0.9,0.2,1.5c0,0.6-0.1,1.1-0.3,1.6
		c-0.2,0.5-0.5,0.9-0.8,1.2c-0.3,0.3-0.7,0.6-1.1,0.8c-0.4,0.2-0.8,0.3-1.3,0.3c-0.5,0-0.9-0.1-1.3-0.3c-0.4-0.2-0.7-0.5-1-0.9
		c-0.3-0.4-0.5-0.9-0.6-1.5c-0.1-0.6-0.2-1.3-0.1-2.1c0-0.7,0.1-1.3,0.3-1.9c0.1-0.6,0.3-1.2,0.6-1.7c0.2-0.5,0.6-0.9,0.9-1.3
		c0.4-0.4,0.8-0.6,1.3-0.8c0.2-0.1,0.4-0.1,0.7-0.2c0.2,0,0.4-0.1,0.7-0.1c0.2,0,0.4-0.1,0.6-0.1c0.2,0,0.4-0.1,0.5-0.1
		c0.1,0,0.3-0.1,0.4-0.1c0.1,0,0.2-0.1,0.4-0.1c0.1-0.1,0.2-0.1,0.3-0.2c0.1-0.1,0.2-0.2,0.2-0.3l0.4,0.2c-0.2,0.5-0.4,0.9-0.7,1.2
		c-0.3,0.3-0.7,0.5-1.1,0.7c-0.2,0.1-0.4,0.1-0.6,0.2c-0.2,0-0.4,0.1-0.6,0.1c-0.2,0-0.4,0.1-0.6,0.1c-0.2,0-0.4,0.1-0.5,0.1
		c-0.4,0.1-0.8,0.3-1.1,0.5c-0.3,0.2-0.6,0.5-0.8,0.8c-0.2,0.3-0.4,0.7-0.5,1.1c-0.1,0.4-0.2,0.8-0.3,1.3L122.8,37.6L122.8,37.6
		L122.8,37.6z M125.1,42.5c0.4,0,0.7-0.1,0.9-0.2c0.3-0.2,0.5-0.4,0.7-0.7c0.2-0.3,0.3-0.6,0.4-1c0.1-0.4,0.2-0.8,0.2-1.3
		c0-0.4,0-0.7-0.1-1.1c-0.1-0.4-0.2-0.7-0.3-1c-0.1-0.3-0.3-0.5-0.6-0.7c-0.2-0.2-0.5-0.3-0.8-0.3c-0.3,0-0.6,0.1-0.9,0.2
		c-0.3,0.2-0.5,0.4-0.7,0.6c-0.2,0.3-0.3,0.6-0.4,0.9c-0.1,0.3-0.2,0.7-0.2,1.1c0,0.5,0,1,0.1,1.4c0.1,0.4,0.2,0.8,0.3,1.1
		c0.1,0.3,0.3,0.5,0.6,0.7C124.6,42.4,124.8,42.5,125.1,42.5z"/>
	<path class="st0" d="M136.4,35.4c-0.1,0.6-0.2,1.2-0.2,1.9c-0.1,0.6-0.2,1.2-0.2,1.7c-0.1,0.5-0.1,1-0.2,1.5s-0.1,0.8-0.1,1
		c0,0.1,0,0.2,0,0.3c0,0.1,0,0.2,0.1,0.3c0,0.1,0.1,0.1,0.1,0.2c0.1,0,0.1,0.1,0.2,0.1c0.1,0,0.2,0,0.3-0.1s0.2-0.1,0.3-0.2
		c0.1-0.1,0.2-0.3,0.3-0.5s0.2-0.4,0.3-0.7l0.4,0.1c0,0.2-0.1,0.4-0.2,0.6c-0.1,0.2-0.2,0.5-0.4,0.7c-0.2,0.2-0.4,0.4-0.6,0.6
		c-0.2,0.2-0.5,0.2-0.8,0.2c-0.2,0-0.4,0-0.5-0.1c-0.1-0.1-0.3-0.2-0.3-0.3c-0.1-0.1-0.2-0.3-0.2-0.4c0-0.2-0.1-0.4-0.1-0.6
		c0-0.3,0-0.6,0.1-0.9s0.1-0.7,0.2-1.1h0c-0.2,0.5-0.3,0.9-0.5,1.3c-0.2,0.4-0.3,0.7-0.5,0.9c-0.2,0.3-0.3,0.5-0.5,0.6
		c-0.2,0.2-0.3,0.3-0.5,0.4c-0.2,0.1-0.3,0.1-0.5,0.2c-0.2,0-0.3,0-0.4,0c-0.3,0-0.5,0-0.8-0.1c-0.2-0.1-0.4-0.2-0.6-0.5
		c-0.2-0.2-0.3-0.5-0.4-0.8c-0.1-0.3-0.1-0.7-0.1-1.2c0-0.7,0.1-1.4,0.3-2c0.2-0.6,0.5-1.2,0.8-1.7c0.4-0.5,0.8-0.9,1.4-1.1
		c0.6-0.3,1.2-0.4,1.9-0.4c0.3,0,0.6,0,1,0.1C135.7,35.3,136,35.4,136.4,35.4z M135.1,35.9c-0.2-0.1-0.3-0.1-0.5-0.1
		c-0.2,0-0.4,0-0.6,0c-0.5,0-0.9,0.1-1.2,0.4c-0.3,0.3-0.6,0.6-0.8,1c-0.2,0.4-0.4,0.9-0.5,1.4c-0.1,0.5-0.2,1.1-0.2,1.6
		c0,0.3,0,0.6,0,0.9c0,0.3,0.1,0.5,0.2,0.7c0.1,0.2,0.2,0.4,0.3,0.5c0.1,0.1,0.3,0.2,0.5,0.2c0.2,0,0.5-0.1,0.7-0.3
		c0.2-0.2,0.5-0.5,0.7-0.8c0.2-0.3,0.4-0.7,0.6-1.2c0.2-0.4,0.3-0.9,0.5-1.4c0.1-0.5,0.2-1,0.3-1.5C135,36.8,135.1,36.4,135.1,35.9z
		"/>
	<path class="st0" d="M139.8,44.9c0,0.2,0,0.4,0,0.7c0,0.2,0,0.4-0.1,0.6l1,0v0.6h-2.9v-0.5c0.2,0,0.4-0.1,0.5-0.2
		c0.1-0.1,0.2-0.3,0.3-0.4c0.1-0.2,0.1-0.4,0.1-0.7c0-0.3,0-0.5,0.1-0.8c0-0.6,0.1-1.1,0.1-1.7c0-0.6,0.1-1.1,0.1-1.6
		c0-0.5,0.1-1,0.1-1.4c0-0.4,0.1-0.9,0.1-1.2c0-0.4,0.1-0.7,0.1-0.9c0-0.3,0-0.5,0-0.6c0-0.1,0-0.2,0-0.3c0-0.1,0-0.2,0-0.3
		c0-0.1-0.1-0.1-0.1-0.2c-0.1,0-0.1-0.1-0.2-0.1c-0.1,0-0.2,0-0.3,0.1c-0.1,0.1-0.2,0.1-0.3,0.2c-0.1,0.1-0.2,0.3-0.3,0.5
		c-0.1,0.2-0.2,0.4-0.2,0.7l-0.4-0.1c0-0.2,0.1-0.4,0.2-0.6c0.1-0.2,0.2-0.5,0.4-0.7c0.2-0.2,0.4-0.4,0.6-0.6
		c0.2-0.2,0.5-0.2,0.8-0.2c0.2,0,0.4,0,0.6,0.1c0.1,0.1,0.3,0.2,0.4,0.3c0.1,0.1,0.1,0.3,0.2,0.5s0.1,0.4,0.1,0.6
		c0,0.3,0,0.6-0.1,0.9c0,0.3-0.1,0.6-0.1,0.8h0.1c0.2-0.7,0.4-1.3,0.6-1.7c0.2-0.4,0.4-0.8,0.7-1c0.2-0.2,0.5-0.4,0.7-0.5
		c0.2-0.1,0.5-0.1,0.7-0.1c0.3,0,0.6,0.1,0.9,0.2c0.3,0.2,0.5,0.4,0.6,0.6c0.2,0.3,0.3,0.6,0.4,0.9c0.1,0.4,0.1,0.7,0.1,1.1
		c0,0.7-0.1,1.4-0.3,2c-0.2,0.6-0.5,1.1-0.8,1.6c-0.4,0.4-0.8,0.8-1.4,1c-0.6,0.2-1.2,0.4-1.9,0.4c-0.2,0-0.5,0-0.7,0L139.8,44.9z
		 M140.2,40.9c0,0.2-0.1,0.5-0.1,0.7c0,0.2,0,0.5-0.1,0.7c0.2,0.1,0.3,0.1,0.5,0.1c0.1,0,0.3,0,0.5,0c0.4,0,0.7-0.1,1-0.2
		c0.3-0.1,0.5-0.3,0.7-0.5c0.2-0.2,0.4-0.5,0.5-0.7c0.2-0.3,0.3-0.6,0.4-0.9c0.1-0.3,0.2-0.6,0.2-1s0.1-0.6,0.1-0.9c0-0.3,0-0.7,0-1
		c0-0.3-0.1-0.6-0.2-0.8c-0.1-0.2-0.2-0.4-0.3-0.5c-0.1-0.1-0.3-0.2-0.5-0.2c-0.2,0-0.4,0.1-0.5,0.2c-0.2,0.1-0.4,0.3-0.5,0.6
		c-0.2,0.2-0.3,0.5-0.5,0.8c-0.2,0.3-0.3,0.7-0.4,1c-0.1,0.4-0.2,0.8-0.4,1.2C140.3,40.1,140.2,40.5,140.2,40.9z"/>
</g>
</svg>
