<?xml version="1.0" encoding="utf-8"?>
<!-- Generator: Adobe Illustrator 19.2.0, SVG Export Plug-In . SVG Version: 6.00 Build 0)  -->
<svg version="1.1" id="logo" xmlns="http://www.w3.org/2000/svg" xmlns:xlink="http://www.w3.org/1999/xlink" x="0px" y="0px"
	 viewBox="0 0 165 54.7" style="enable-background:new 0 0 165 54.7;" xml:space="preserve">
<style type="text/css">
	.st0{fill:#333333;}
	.st1{fill:none;enable-background:new    ;}
	.st2{fill:none;stroke:#333333;stroke-width:3;stroke-miterlimit:10;}
</style>
<g>
	<path class="st0" d="M114,44.4c0.2-0.3,0.3-0.6,0.5-0.9c0.2-0.3,0.5-0.5,0.7-0.7c0.3-0.2,0.6-0.3,0.9-0.4c0.3-0.1,0.7-0.2,1.1-0.2
		s0.8,0.1,1.2,0.3c0.4,0.2,0.7,0.4,1,0.7c0.3,0.3,0.5,0.7,0.7,1.2c0.2,0.5,0.2,1,0.2,1.7c0,0.7-0.2,1.2-0.4,1.8
		c-0.2,0.5-0.5,1-0.9,1.4c-0.4,0.4-0.8,0.7-1.2,0.9c-0.4,0.2-0.9,0.3-1.4,0.3c-0.5,0-1-0.1-1.4-0.3c-0.4-0.2-0.8-0.5-1.1-0.9
		c-0.3-0.4-0.5-1-0.7-1.6c-0.2-0.7-0.2-1.4-0.1-2.3c0-0.7,0.1-1.4,0.3-2.1c0.2-0.7,0.4-1.3,0.6-1.9c0.3-0.6,0.6-1,1-1.5
		c0.4-0.4,0.9-0.7,1.4-0.9c0.2-0.1,0.5-0.2,0.7-0.2c0.3,0,0.5-0.1,0.7-0.1s0.5-0.1,0.7-0.1c0.2,0,0.4-0.1,0.6-0.1
		c0.2,0,0.3-0.1,0.4-0.1c0.1,0,0.3-0.1,0.4-0.1c0.1-0.1,0.2-0.1,0.3-0.2c0.1-0.1,0.2-0.2,0.3-0.4l0.5,0.2c-0.2,0.5-0.4,1-0.8,1.3
		c-0.3,0.3-0.8,0.6-1.2,0.7c-0.2,0.1-0.4,0.1-0.6,0.2c-0.2,0-0.4,0.1-0.7,0.1c-0.2,0-0.4,0.1-0.6,0.1c-0.2,0-0.4,0.1-0.6,0.1
		c-0.5,0.1-0.9,0.3-1.2,0.6c-0.3,0.2-0.6,0.5-0.8,0.9c-0.2,0.3-0.4,0.7-0.6,1.2c-0.1,0.4-0.2,0.9-0.3,1.5L114,44.4L114,44.4
		L114,44.4z M116.7,49.8c0.4,0,0.7-0.1,1-0.3c0.3-0.2,0.5-0.4,0.7-0.8c0.2-0.3,0.4-0.7,0.5-1.2c0.1-0.4,0.2-0.9,0.2-1.5
		c0-0.4,0-0.8-0.1-1.2c-0.1-0.4-0.2-0.8-0.3-1.1c-0.2-0.3-0.4-0.6-0.6-0.8c-0.3-0.2-0.6-0.3-0.9-0.3c-0.4,0-0.7,0.1-1,0.3
		c-0.3,0.2-0.5,0.4-0.7,0.7c-0.2,0.3-0.4,0.6-0.5,1c-0.1,0.4-0.2,0.8-0.2,1.2c0,0.6,0,1.1,0.1,1.5c0.1,0.5,0.2,0.9,0.4,1.2
		c0.2,0.3,0.4,0.6,0.6,0.8C116,49.8,116.3,49.8,116.7,49.8z"/>
	<path class="st0" d="M129.1,42c-0.1,0.7-0.2,1.4-0.3,2.1c-0.1,0.7-0.2,1.3-0.2,1.9c-0.1,0.6-0.1,1.1-0.2,1.6c0,0.5-0.1,0.8-0.1,1.1
		c0,0.1,0,0.2,0,0.3c0,0.1,0,0.2,0.1,0.3c0,0.1,0.1,0.2,0.1,0.2c0.1,0.1,0.2,0.1,0.3,0.1c0.1,0,0.2,0,0.3-0.1
		c0.1-0.1,0.2-0.1,0.3-0.3c0.1-0.1,0.2-0.3,0.3-0.5c0.1-0.2,0.2-0.5,0.3-0.7l0.5,0.1c0,0.2-0.1,0.4-0.2,0.7
		c-0.1,0.3-0.2,0.5-0.4,0.8c-0.2,0.2-0.4,0.5-0.7,0.6c-0.3,0.2-0.6,0.3-0.9,0.3c-0.2,0-0.4,0-0.6-0.1c-0.2-0.1-0.3-0.2-0.4-0.3
		c-0.1-0.1-0.2-0.3-0.2-0.5c0-0.2-0.1-0.4-0.1-0.6c0-0.3,0-0.7,0.1-1c0.1-0.4,0.1-0.8,0.2-1.2h0c-0.2,0.6-0.4,1-0.5,1.4
		c-0.2,0.4-0.4,0.7-0.6,1c-0.2,0.3-0.4,0.5-0.6,0.7c-0.2,0.2-0.4,0.3-0.6,0.4c-0.2,0.1-0.4,0.2-0.5,0.2c-0.2,0-0.3,0-0.5,0
		c-0.3,0-0.6-0.1-0.8-0.2c-0.3-0.1-0.5-0.3-0.7-0.5c-0.2-0.2-0.3-0.5-0.4-0.9c-0.1-0.4-0.2-0.8-0.2-1.3c0-0.8,0.1-1.5,0.3-2.2
		c0.2-0.7,0.5-1.3,0.9-1.9c0.4-0.5,0.9-1,1.5-1.3c0.6-0.3,1.3-0.5,2.1-0.5c0.3,0,0.7,0,1.1,0.1C128.4,41.9,128.7,42,129.1,42z
		 M127.6,42.6c-0.2-0.1-0.4-0.1-0.6-0.2c-0.2,0-0.5,0-0.7,0c-0.5,0-0.9,0.1-1.3,0.4c-0.4,0.3-0.7,0.7-0.9,1.1
		c-0.2,0.5-0.4,1-0.5,1.6s-0.2,1.2-0.2,1.8c0,0.4,0,0.7,0.1,1c0,0.3,0.1,0.6,0.2,0.8c0.1,0.2,0.2,0.4,0.3,0.5
		c0.1,0.1,0.3,0.2,0.5,0.2c0.3,0,0.5-0.1,0.8-0.3c0.3-0.2,0.5-0.5,0.7-0.9c0.2-0.4,0.4-0.8,0.7-1.3c0.2-0.5,0.4-1,0.5-1.5
		c0.1-0.5,0.3-1.1,0.4-1.6C127.6,43.6,127.6,43.1,127.6,42.6z"/>
	<path class="st0" d="M132.9,52.6c0,0.2,0,0.5,0,0.7c0,0.3,0,0.5-0.1,0.7l1.1,0v0.7h-3.2v-0.5c0.2,0,0.4-0.1,0.5-0.2
		c0.1-0.1,0.2-0.3,0.3-0.5c0.1-0.2,0.1-0.5,0.1-0.7c0-0.3,0-0.6,0.1-0.9c0-0.6,0.1-1.3,0.2-1.9c0.1-0.6,0.1-1.2,0.2-1.8
		c0.1-0.6,0.1-1.1,0.2-1.6c0-0.5,0.1-0.9,0.1-1.3c0-0.4,0.1-0.7,0.1-1c0-0.3,0-0.5,0-0.6c0-0.1,0-0.2,0-0.3c0-0.1,0-0.2-0.1-0.3
		c0-0.1-0.1-0.1-0.1-0.2c-0.1-0.1-0.1-0.1-0.3-0.1c-0.1,0-0.2,0-0.3,0.1c-0.1,0.1-0.2,0.1-0.3,0.3c-0.1,0.1-0.2,0.3-0.3,0.5
		c-0.1,0.2-0.2,0.5-0.3,0.7l-0.5-0.1c0-0.2,0.1-0.4,0.2-0.7c0.1-0.3,0.2-0.5,0.4-0.8c0.2-0.2,0.4-0.5,0.6-0.6
		c0.3-0.2,0.5-0.3,0.9-0.3c0.3,0,0.5,0,0.6,0.1c0.2,0.1,0.3,0.2,0.4,0.4c0.1,0.2,0.2,0.3,0.2,0.6c0,0.2,0.1,0.4,0.1,0.7
		c0,0.3,0,0.7-0.1,1c-0.1,0.3-0.1,0.6-0.2,0.9h0.1c0.2-0.8,0.5-1.4,0.7-1.9c0.2-0.5,0.5-0.8,0.7-1.1c0.3-0.3,0.5-0.4,0.8-0.5
		c0.3-0.1,0.5-0.1,0.8-0.1c0.4,0,0.7,0.1,1,0.3c0.3,0.2,0.5,0.4,0.7,0.7c0.2,0.3,0.3,0.6,0.4,1c0.1,0.4,0.1,0.8,0.1,1.3
		c0,0.8-0.1,1.6-0.3,2.2c-0.2,0.7-0.5,1.3-0.9,1.7c-0.4,0.5-0.9,0.9-1.5,1.1c-0.6,0.3-1.3,0.4-2.1,0.4c-0.3,0-0.5,0-0.8,0
		L132.9,52.6z M133.3,48.1c0,0.3-0.1,0.5-0.1,0.8c0,0.3-0.1,0.5-0.1,0.8c0.2,0.1,0.3,0.1,0.5,0.1c0.2,0,0.3,0.1,0.5,0.1
		c0.4,0,0.7-0.1,1.1-0.2c0.3-0.1,0.6-0.3,0.8-0.5c0.2-0.2,0.4-0.5,0.6-0.8c0.2-0.3,0.3-0.6,0.4-1c0.1-0.3,0.2-0.7,0.2-1.1
		c0-0.4,0.1-0.7,0.1-1.1c0-0.4,0-0.7-0.1-1.1c0-0.3-0.1-0.6-0.2-0.9c-0.1-0.3-0.2-0.4-0.4-0.6c-0.2-0.1-0.3-0.2-0.6-0.2
		c-0.2,0-0.4,0.1-0.6,0.2c-0.2,0.1-0.4,0.4-0.6,0.6c-0.2,0.3-0.4,0.6-0.5,0.9c-0.2,0.4-0.3,0.7-0.5,1.2c-0.1,0.4-0.3,0.8-0.4,1.3
		C133.5,47.2,133.4,47.7,133.3,48.1z"/>
</g>
<path class="st1" d="M0,0"/>
<path id="СТРОГАНИНА" class="st0" d="M21.4,27.7c-0.1,0-0.1,0.1-0.2,0.1c-0.1,0.1-0.3,0.3-0.5,0.4s-0.3,0.2-0.5,0.2
	c-0.2,0.1-0.4,0.1-0.6,0.1s-0.4,0-0.7,0c-0.4,0-0.8-0.1-1.2-0.2c-0.4-0.2-0.7-0.4-1-0.7c-0.3-0.3-0.5-0.7-0.7-1.2s-0.3-1.1-0.2-1.6
	c0-0.5,0.1-1.1,0.2-1.6c0.1-0.4,0.3-0.8,0.6-1.2c0.3-0.3,0.6-0.6,1-0.7c0.4-0.2,0.8-0.3,1.2-0.2c0.2,0,0.5,0,0.7,0.1
	c0.2,0,0.4,0.1,0.6,0.2c0.1,0.1,0.3,0.1,0.4,0.2l0.3,0.2c0.1,0.1,0.2,0.1,0.3,0.2c0.1,0,0.2,0.1,0.3,0.1c0.1,0,0.2,0,0.3-0.1
	c0.1-0.1,0.1-0.1,0.2-0.2l0.9-1.2c-0.2-0.2-0.5-0.4-0.8-0.6s-0.6-0.4-0.9-0.5c-0.4-0.1-0.7-0.2-1.1-0.3c-0.4-0.1-0.8-0.1-1.2-0.1
	c-0.8,0-1.6,0.1-2.4,0.4c-0.7,0.3-1.3,0.7-1.8,1.2s-0.9,1.2-1.2,1.9C13.1,23.4,13,24.2,13,25s0.1,1.6,0.4,2.4
	c0.2,0.7,0.6,1.3,1.1,1.9c0.5,0.5,1.1,1,1.8,1.2c0.8,0.3,1.6,0.5,2.4,0.5c0.9,0,1.7-0.1,2.5-0.5c0.7-0.3,1.3-0.8,1.8-1.4l-1-1.2
	c-0.1-0.1-0.1-0.1-0.2-0.1C21.7,27.7,21.6,27.7,21.4,27.7z M26.6,19.1v2.1h3.3v9.5h2.7v-9.5h3.3v-2.1H26.6L26.6,19.1z M44.6,26.8
	c0.7,0,1.4-0.1,2.1-0.3c0.5-0.2,1-0.4,1.5-0.8c0.4-0.3,0.7-0.8,0.9-1.2c0.2-0.5,0.3-1.1,0.3-1.6s-0.1-1-0.3-1.5s-0.5-0.9-0.8-1.2
	c-0.4-0.4-0.9-0.6-1.5-0.8c-0.7-0.2-1.4-0.3-2.1-0.3h-4.1v11.6h2.7v-3.9L44.6,26.8L44.6,26.8z M43.2,21.1h1.4c0.3,0,0.6,0,0.9,0.1
	c0.2,0.1,0.4,0.2,0.6,0.4c0.2,0.2,0.3,0.4,0.4,0.6c0.1,0.2,0.1,0.5,0.1,0.7c0.1,0.9-0.5,1.8-1.5,1.9c-0.2,0-0.3,0-0.5,0h-1.4V21.1
	L43.2,21.1z M65,22.5c-0.3-0.7-0.7-1.3-1.2-1.9c-0.5-0.5-1.2-1-1.9-1.3c-0.8-0.3-1.6-0.5-2.5-0.5s-1.7,0.1-2.5,0.5
	c-0.7,0.3-1.4,0.7-1.9,1.3c-0.5,0.5-1,1.2-1.2,1.9c-0.6,1.5-0.6,3.2,0,4.7c0.6,1.4,1.7,2.6,3.2,3.2c1.6,0.6,3.4,0.6,5,0
	c1.4-0.6,2.6-1.7,3.1-3.2S65.6,24,65,22.5L65,22.5z M62.4,26.4c-0.1,0.4-0.4,0.8-0.6,1.2c-0.3,0.3-0.6,0.6-1,0.7
	c-0.4,0.2-0.9,0.3-1.4,0.3s-1-0.1-1.4-0.3c-0.4-0.2-0.8-0.4-1-0.7c-0.3-0.3-0.5-0.7-0.6-1.2c-0.3-1-0.3-2.1,0-3.1
	c0.1-0.4,0.4-0.8,0.6-1.2c0.3-0.3,0.6-0.6,1-0.7c0.4-0.2,0.9-0.3,1.4-0.3s0.9,0.1,1.4,0.3c0.4,0.2,0.7,0.4,1,0.7
	c0.3,0.3,0.5,0.7,0.6,1.2C62.7,24.3,62.7,25.4,62.4,26.4L62.4,26.4z M77.6,19.1h-7.4v11.7H73v-9.6h4.6
	C77.6,21.1,77.6,19.1,77.6,19.1z M86.8,19.1H84l-4.5,11.7h2.1c0.2,0,0.4-0.1,0.6-0.2c0.1-0.1,0.2-0.2,0.3-0.4l0.7-2h4.4l0.7,2
	c0.1,0.2,0.2,0.3,0.3,0.4c0.2,0.1,0.4,0.2,0.6,0.2h2.1L86.8,19.1z M84.9,23.1c0.1-0.2,0.2-0.4,0.3-0.7s0.2-0.6,0.3-0.9
	c0.1,0.3,0.2,0.6,0.3,0.9s0.2,0.5,0.3,0.7l1.1,3.2H84L84.9,23.1z M105.6,19.1h-2.7V24h-4.8v-4.9h-2.7v11.7h2.7v-4.9h4.8v4.9h2.7
	C105.6,30.7,105.6,19.1,105.6,19.1z M114.5,25.9c-0.2,0.2-0.3,0.5-0.4,0.8c-0.2,0.3-0.3,0.6-0.4,0.9c0.1-0.4,0.1-0.7,0.1-1.1
	c0-0.3,0-0.7,0-1V19h-2.7v11.7h2c0.1,0,0.3,0,0.4-0.1c0.1,0,0.2-0.1,0.3-0.2c0.1-0.1,0.2-0.2,0.3-0.3c0.1-0.1,0.1-0.2,0.2-0.3
	l3.6-6.1c0.1-0.2,0.3-0.5,0.4-0.8c0.2-0.3,0.3-0.6,0.4-0.9c-0.1,0.4-0.1,0.7-0.1,1.1c0,0.3,0,0.7,0,1v6.5h2.7V19.1h-2
	c-0.1,0-0.3,0-0.4,0.1c-0.1,0-0.2,0.1-0.3,0.2c-0.1,0.1-0.2,0.2-0.3,0.3c-0.1,0.1-0.2,0.2-0.2,0.3L114.5,25.9z M137,19.1h-2.7V24
	h-4.8v-4.9h-2.7v11.7h2.7v-4.9h4.8v4.9h2.7V19.1L137,19.1z M148.4,19.1h-2.8l-4.5,11.7h2.1c0.2,0,0.4-0.1,0.6-0.2
	c0.1-0.1,0.2-0.2,0.3-0.4l0.7-2h4.4l0.7,2c0.1,0.2,0.2,0.3,0.3,0.4c0.2,0.1,0.4,0.2,0.6,0.2h2.1L148.4,19.1z M146.5,23.1
	c0.1-0.2,0.2-0.4,0.3-0.7c0.1-0.3,0.2-0.6,0.3-0.9c0.1,0.3,0.2,0.6,0.3,0.9s0.2,0.5,0.3,0.7l1.1,3.2h-3.2L146.5,23.1z"/>
<polyline class="st2" points="105.8,46.1 1.5,46.1 1.5,47.6 1.5,1.9 0,1.9 165,1.9 163.5,1.9 163.5,47.6 163.5,46.1 144,46.1 "/>
</svg>
