<svg xmlns="http://www.w3.org/2000/svg" width="745.356" height="211.5" viewBox="0 0 745.356 211.5"><path fill="#fff" d="M.1.313v182.094h522.837v-11.12h-512.928v-159.855h725.105v159.855h-54.256v11.12h64.163v-182.094z"/><g fill="#fff"><path d="M77.894 74.364c-.393.629-.805 1.1-1.238 1.415-.432.315-.989.472-1.67.472-.603 0-1.251-.19-1.945-.57s-1.48-.806-2.358-1.278c-.878-.471-1.88-.897-3.006-1.277-1.127-.379-2.41-.57-3.851-.57-2.489 0-4.342.531-5.561 1.592-1.218 1.061-1.827 2.495-1.827 4.303 0 1.153.366 2.11 1.1 2.869.733.761 1.696 1.415 2.888 1.965 1.192.551 2.554 1.055 4.087 1.513 1.532.459 3.097.97 4.696 1.533 1.598.563 3.164 1.225 4.696 1.984 1.533.761 2.895 1.729 4.087 2.908 1.192 1.179 2.155 2.613 2.888 4.303.733 1.69 1.1 3.727 1.1 6.111 0 2.646-.459 5.122-1.375 7.427-.918 2.305-2.247 4.316-3.989 6.032-1.743 1.716-3.89 3.065-6.445 4.048s-5.456 1.474-8.704 1.474c-1.782 0-3.596-.183-5.443-.55-1.847-.366-3.635-.885-5.364-1.552-1.729-.668-3.354-1.46-4.873-2.377-1.52-.917-2.843-1.939-3.969-3.065l3.93-6.209c.314-.445.727-.818 1.238-1.12.511-.301 1.067-.452 1.67-.452.786 0 1.578.249 2.377.746.799.498 1.702 1.049 2.711 1.651 1.008.603 2.168 1.152 3.478 1.65s2.855.746 4.637.746c2.41 0 4.283-.531 5.62-1.592 1.336-1.061 2.004-2.744 2.004-5.049 0-1.336-.367-2.423-1.1-3.262-.734-.838-1.697-1.532-2.888-2.083-1.193-.55-2.548-1.034-4.067-1.453-1.52-.419-3.079-.885-4.677-1.395-1.598-.511-3.157-1.14-4.676-1.886-1.52-.747-2.875-1.73-4.067-2.947-1.193-1.218-2.155-2.738-2.888-4.559-.734-1.82-1.1-4.067-1.1-6.739 0-2.148.432-4.244 1.297-6.288.864-2.044 2.135-3.864 3.812-5.462 1.676-1.598 3.733-2.875 6.169-3.832 2.436-.957 5.227-1.434 8.37-1.434 1.755 0 3.464.137 5.128.413 1.663.275 3.242.681 4.735 1.218 1.493.537 2.888 1.179 4.185 1.926 1.297.746 2.456 1.592 3.478 2.535l-3.3 6.167zM146.663 62.732v10.532h-16.112v46.724h-13.282v-46.724h-16.112v-10.532h45.506zM182.383 98.807v21.181h-13.282v-57.256h18.627c4.139 0 7.669.426 10.59 1.277 2.921.852 5.305 2.038 7.152 3.556 1.847 1.52 3.189 3.315 4.028 5.384.839 2.069 1.258 4.322 1.258 6.759 0 1.86-.249 3.615-.747 5.266-.498 1.65-1.238 3.177-2.22 4.577-.982 1.403-2.188 2.653-3.615 3.753-1.428 1.1-3.072 2.004-4.932 2.711.89.446 1.716 1.003 2.476 1.67.76.669 1.441 1.461 2.044 2.377l12.182 19.924h-12.025c-2.227 0-3.826-.839-4.794-2.515l-9.51-16.623c-.446-.707-.943-1.224-1.493-1.551-.55-.328-1.336-.491-2.358-.491h-3.381zm0-9.156h5.344c1.808 0 3.346-.229 4.617-.688 1.271-.458 2.312-1.094 3.124-1.905.812-.813 1.401-1.762 1.768-2.849.367-1.087.55-2.259.55-3.517 0-2.515-.819-4.479-2.456-5.895-1.637-1.415-4.172-2.122-7.604-2.122h-5.344v16.976zM291.667 91.34c0 4.14-.714 7.991-2.141 11.553-1.429 3.563-3.438 6.661-6.032 9.294-2.594 2.634-5.718 4.696-9.372 6.19-3.655 1.493-7.709 2.239-12.162 2.239-4.454 0-8.515-.746-12.182-2.239-3.668-1.494-6.805-3.556-9.412-6.19-2.607-2.633-4.624-5.73-6.052-9.294-1.428-3.562-2.142-7.413-2.142-11.553 0-4.139.714-7.99 2.142-11.553 1.428-3.562 3.445-6.654 6.052-9.274 2.606-2.619 5.743-4.676 9.412-6.169 3.667-1.494 7.728-2.24 12.182-2.24 4.454 0 8.507.753 12.162 2.259 3.655 1.507 6.779 3.57 9.372 6.189 2.594 2.62 4.604 5.712 6.032 9.274 1.428 3.564 2.141 7.401 2.141 11.514zm-13.596 0c0-2.829-.367-5.376-1.1-7.644-.733-2.265-1.788-4.185-3.163-5.756-1.376-1.572-3.059-2.776-5.05-3.616-1.991-.838-4.258-1.257-6.798-1.257-2.568 0-4.853.419-6.857 1.257-2.004.839-3.694 2.044-5.069 3.616-1.375 1.571-2.43 3.491-3.163 5.756-.734 2.267-1.1 4.814-1.1 7.644 0 2.856.366 5.417 1.1 7.683.733 2.266 1.788 4.185 3.163 5.756 1.375 1.572 3.065 2.771 5.069 3.596 2.004.825 4.289 1.239 6.857 1.239 2.54 0 4.807-.413 6.798-1.239 1.991-.825 3.674-2.023 5.05-3.596 1.375-1.571 2.43-3.49 3.163-5.756.733-2.266 1.1-4.827 1.1-7.683zM353.698 119.163c-3.314.969-6.779 1.453-10.394 1.453-4.716 0-9.006-.74-12.87-2.22-3.865-1.479-7.172-3.523-9.923-6.131-2.751-2.606-4.873-5.698-6.366-9.274-1.493-3.577-2.24-7.46-2.24-11.652 0-4.269.708-8.193 2.122-11.769 1.415-3.577 3.438-6.661 6.072-9.254 2.633-2.594 5.816-4.611 9.549-6.052 3.733-1.441 7.905-2.162 12.516-2.162 2.384 0 4.623.197 6.72.589 2.096.393 4.028.931 5.796 1.612 1.769.681 3.386 1.493 4.853 2.436 1.467.943 2.777 1.965 3.93 3.065l-3.851 5.855c-.603.917-1.382 1.48-2.338 1.689-.957.21-1.985-.025-3.085-.707-1.048-.628-2.037-1.172-2.967-1.631-.93-.458-1.88-.831-2.849-1.12-.969-.288-1.991-.497-3.065-.628-1.075-.131-2.279-.197-3.615-.197-2.489 0-4.729.438-6.72 1.316-1.991.878-3.687 2.115-5.089 3.714-1.402 1.598-2.482 3.517-3.242 5.756-.76 2.24-1.139 4.736-1.139 7.486 0 3.039.419 5.737 1.257 8.095.838 2.358 2.024 4.349 3.556 5.973 1.533 1.624 3.366 2.863 5.502 3.714 2.135.851 4.5 1.277 7.093 1.277 1.598 0 3.046-.157 4.342-.472 1.297-.314 2.561-.733 3.793-1.257v-8.685h-5.659c-.839 0-1.493-.222-1.965-.668-.472-.445-.707-1.008-.707-1.689v-7.31h20.356v24.168c-2.935 2.152-6.059 3.711-9.373 4.68zM438.206 119.988h-10.295c-1.153 0-2.083-.269-2.791-.806-.707-.536-1.244-1.224-1.611-2.063l-3.38-9.982h-21.77l-3.379 9.982c-.288.734-.805 1.395-1.552 1.984-.746.59-1.67.885-2.77.885h-10.374l22.164-57.256h13.597l22.161 57.256zm-36.782-21.889h15.641l-5.266-15.679c-.393-.995-.813-2.167-1.258-3.517-.445-1.349-.89-2.809-1.335-4.382-.42 1.598-.845 3.079-1.278 4.441-.432 1.362-.844 2.541-1.238 3.536l-5.266 15.601zM466.893 62.811c.392.053.746.152 1.061.295.314.145.615.348.904.609.288.263.615.616.982 1.061l27.193 34.385c-.105-1.1-.183-2.167-.236-3.202-.053-1.034-.079-2.01-.079-2.928v-30.299h11.71v57.256h-6.915c-1.022 0-1.88-.163-2.574-.491-.695-.327-1.382-.897-2.064-1.71l-26.997-34.109c.079.996.143 1.972.197 2.927.052.957.078 1.855.078 2.692v30.691h-11.71v-57.256h6.995c.577 0 1.061.027 1.455.079zM548.59 119.988h-13.362v-57.256h13.362v57.256zM583.839 62.811c.392.053.746.152 1.061.295.314.145.615.348.904.609.288.263.615.616.982 1.061l27.193 34.385c-.105-1.1-.183-2.167-.236-3.202-.053-1.034-.079-2.01-.079-2.928v-30.299h11.71v57.256h-6.915c-1.022 0-1.88-.163-2.574-.491-.695-.327-1.383-.897-2.064-1.71l-26.997-34.109c.079.996.143 1.972.197 2.927.052.957.078 1.855.078 2.692v30.691h-11.71v-57.256h6.995c.577 0 1.061.027 1.455.079zM703.536 119.988h-10.295c-1.153 0-2.083-.269-2.791-.806-.707-.536-1.244-1.224-1.611-2.063l-3.38-9.982h-21.77l-3.38 9.982c-.289.734-.806 1.395-1.552 1.984-.746.59-1.67.885-2.771.885h-10.374l22.163-57.256h13.598l22.163 57.256zm-36.781-21.889h15.64l-5.266-15.679c-.393-.995-.813-2.167-1.258-3.517-.445-1.349-.89-2.809-1.335-4.382-.42 1.598-.845 3.079-1.278 4.441-.432 1.362-.844 2.541-1.238 3.536l-5.265 15.601z"/></g><g fill="#fff"><path d="M559.271 151.011c-.336 3.278-.682 6.638-1.041 10.083s-.73 7.141-1.112 11.088h.215c.646-2.368 1.346-4.401 2.099-6.1.754-1.698 1.53-3.127 2.332-4.288.801-1.16 1.626-2.087 2.476-2.781.849-.693 1.692-1.225 2.53-1.597.837-.37 1.662-.615 2.476-.736.813-.119 1.579-.179 2.297-.179 1.674 0 3.098.371 4.27 1.112 1.172.742 2.122 1.735 2.853 2.978.729 1.244 1.256 2.686 1.579 4.324.323 1.639.484 3.343.484 5.113 0 3.373-.377 6.567-1.13 9.581-.753 3.014-1.95 5.652-3.588 7.912-1.639 2.261-3.75 4.055-6.333 5.382s-5.694 1.991-9.329 1.991c-.598 0-1.298-.024-2.099-.072-.802-.048-1.633-.138-2.494-.269-.861-.132-1.729-.293-2.602-.484-.874-.191-1.681-.431-2.422-.718 1.148-18.252 2.225-33.67 3.229-46.253.048-.622.09-1.112.126-1.471l.09-.897c.023-.239.054-.466.09-.682l.126-.825-5.275.287.287-2.906c1.602 0 2.936-.055 4.001-.165 1.064-.109 1.949-.257 2.655-.44.705-.183 1.256-.397 1.651-.642.395-.244.736-.498 1.023-.762h2.153c-.168 1.029-.329 2.099-.484 3.211-.156 1.112-.3 2.213-.431 3.301-.132 1.089-.257 2.141-.377 3.158-.122 1.018-.23 1.933-.325 2.746zm-3.086 39.614c.597.598 1.405 1.029 2.422 1.292 1.016.264 2.015.395 2.996.395 1.722-.023 3.235-.353 4.539-.987 1.303-.633 2.434-1.477 3.391-2.53.956-1.052 1.746-2.272 2.368-3.66.622-1.387 1.118-2.853 1.489-4.396.37-1.543.633-3.109.789-4.701.155-1.59.233-3.127.233-4.611 0-3.66-.395-6.488-1.184-8.486-.789-1.997-2.07-2.996-3.839-2.996-1.172.048-2.303.556-3.391 1.525-1.089.969-2.112 2.249-3.068 3.839-.957 1.591-1.836 3.421-2.637 5.49-.802 2.07-1.502 4.234-2.099 6.495-.598 2.261-1.071 4.539-1.417 6.836-.347 2.297-.544 4.462-.592 6.495zM618.119 157.756c-.407 3.011-.802 6.027-1.184 9.05-.383 3.023-.73 5.855-1.041 8.496-.311 2.64-.562 4.999-.754 7.079-.192 2.079-.287 3.668-.287 4.767 0 .479.012.957.036 1.434.023.478.108.908.251 1.29.143.383.353.693.628.933.275.239.664.358 1.166.358.406 0 .843-.125 1.31-.375.466-.249.938-.654 1.417-1.214.478-.559.945-1.291 1.399-2.195.454-.904.861-2 1.22-3.285l2.081.431c-.168.861-.484 1.884-.951 3.068s-1.094 2.321-1.884 3.409c-.789 1.089-1.747 2.009-2.871 2.763-1.125.754-2.417 1.13-3.875 1.13-.981 0-1.818-.161-2.512-.484-.694-.323-1.256-.771-1.687-1.346-.431-.574-.742-1.268-.933-2.081-.192-.813-.287-1.722-.287-2.727 0-1.387.126-2.906.377-4.557.251-1.651.568-3.409.951-5.275h-.215c-.766 2.417-1.561 4.498-2.386 6.244-.825 1.747-1.657 3.229-2.494 4.449-.838 1.22-1.681 2.207-2.53 2.96-.849.754-1.675 1.34-2.476 1.758-.802.418-1.579.7-2.332.843-.754.144-1.466.215-2.135.215-1.316 0-2.542-.233-3.678-.7-1.137-.466-2.123-1.207-2.96-2.225-.838-1.016-1.495-2.338-1.974-3.965-.479-1.626-.718-3.6-.718-5.921 0-3.445.449-6.71 1.346-9.796.897-3.086 2.236-5.8 4.019-8.145 1.782-2.344 4.013-4.204 6.692-5.58 2.679-1.375 5.813-2.063 9.401-2.063 1.507 0 3.127.108 4.862.323 1.736.217 3.405.527 5.008.934zm-6.423 2.297c-.742-.31-1.591-.538-2.548-.682-.957-.144-2.009-.215-3.158-.215-2.225 0-4.157.623-5.795 1.866-1.639 1.244-2.991 2.889-4.055 4.934-1.065 2.045-1.861 4.366-2.386 6.961-.527 2.596-.789 5.245-.789 7.948 0 1.556.077 2.996.233 4.324.155 1.328.424 2.471.807 3.427.382.957.873 1.704 1.471 2.243.597.538 1.351.807 2.261.807 1.124 0 2.248-.478 3.373-1.435 1.124-.956 2.194-2.236 3.211-3.839 1.016-1.602 1.974-3.468 2.871-5.598.897-2.129 1.674-4.365 2.332-6.71.658-2.344 1.178-4.724 1.561-7.141.383-2.416.586-4.713.611-6.89zM651.238 161.237c-.144-.048-.282-.072-.413-.072h-.377c-1.101 0-2.171.473-3.211 1.417-1.041.945-2.034 2.201-2.978 3.768-.945 1.567-1.812 3.373-2.602 5.418-.789 2.045-1.466 4.169-2.027 6.369-.562 2.201-1.005 4.408-1.328 6.62-.323 2.213-.484 4.265-.484 6.154v.933c0 .264.005.509.018.736.012.228.03.455.054.682l.072.807h-6.1c-.048-.526-.072-.885-.072-1.076 0-.645.005-1.355.018-2.132.012-.777.054-1.751.126-2.921.072-1.172.185-2.623.341-4.356.155-1.732.377-3.888.664-6.47.215-1.912.395-3.525.538-4.839.144-1.314.269-2.413.377-3.298s.197-1.595.269-2.133c.072-.537.126-.991.161-1.362.036-.37.059-.699.072-.986.012-.286.018-.622.018-1.004 0-.43-.024-.836-.072-1.218-.048-.383-.144-.729-.287-1.04-.143-.311-.347-.555-.61-.735-.264-.179-.61-.269-1.041-.269-.407 0-.843.125-1.31.375-.466.25-.945.655-1.435 1.214-.491.56-.963 1.292-1.417 2.196-.455.904-.861 2-1.22 3.284l-2.045-.431c.167-.861.484-1.884.951-3.068s1.094-2.32 1.884-3.409c.789-1.088 1.74-2.009 2.853-2.763 1.112-.754 2.398-1.13 3.857-1.13 1.005 0 1.853.168 2.548.502.693.336 1.25.814 1.669 1.435.418.623.718 1.376.897 2.261.179.885.269 1.866.269 2.942 0 1.268-.096 2.65-.287 4.144-.192 1.495-.455 3.081-.789 4.754h.215c1.076-3.181 2.176-5.807 3.301-7.876 1.124-2.069 2.266-3.708 3.427-4.916 1.16-1.207 2.338-2.051 3.534-2.53 1.196-.478 2.392-.718 3.588-.718.741 0 1.423.102 2.045.305.622.204 1.166.491 1.633.861.466.371.831.82 1.094 1.346.263.527.395 1.112.395 1.758 0 .431-.078.861-.233 1.292-.156.431-.377.807-.664 1.13-.287.323-.641.587-1.059.789-.419.204-.892.305-1.417.305-.91 0-1.675-.257-2.296-.771-.624-.509-.994-1.269-1.114-2.274z"/></g></svg>