<svg xmlns="http://www.w3.org/2000/svg" viewBox="0 0 240 48" enable-background="new 0 0 240 48"><style type="text/css">.st0{fill:#7C7C7C;}</style><path class="st0" d="M35.4 28.4c.7 0 1.4-.1 2.2-.3l.3-1.8c-.8.3-1.4.4-2.2.4-1.2 0-1.8-.4-1.8-1.2v-.2h4.2c.2-.7.3-1.2.3-1.7 0-1.6-1.1-2.5-2.9-2.5-2.1 0-3.7 1.8-3.7 4.2 0 2 1.3 3.1 3.6 3.1zm.1-5.7c.6 0 1 .3 1 .9v.4h-2.4c.2-.8.7-1.3 1.4-1.3zm10.9 3.2v.3c0 .4.2.5.7.5.2 0 .4 0 .6-.1l-.3 1.6c-.6.2-1 .2-1.5.2-1.1 0-1.7-.5-1.7-1.5v-.6l.1-.7.1-.6 1-5.4h2.1l-.3 1.6h1.1l-.2 1.8h-1.1l-.6 2.9zm-4.2-4.8c.5 0 1.3.1 1.9.1l-.3 1.6c-.6-.1-1.1-.1-1.5-.1-.7 0-1 .2-1 .6 0 .3.1.4 1 .8 1.1.4 1.5 1 1.5 2 0 1.6-1 2.3-3.3 2.3-.3 0-.7 0-1.2-.1-.3 0-.5 0-.6-.1l-.4-.1h-.1l.3-1.6c.7.2 1.3.3 1.9.3.8 0 1.2-.2 1.2-.6 0-.3-.1-.4-1-.8-1.1-.5-1.6-1.1-1.6-2 0-1.2.9-2.3 3.2-2.3zm-9.7 10.5h8.5c-.3.7-.7 1.3-1 1.9h-6.4c-.4-.6-.8-1.3-1.1-1.9zm-3.8-10.5c-.8 0-1.5.1-2.5.4l-.3 1.6h.2l.3-.1c.5-.1 1.1-.2 1.7-.2 1 0 1.4.2 1.4.6 0 .1 0 .2-.1.5l-.9-.1c-2.3 0-3.7 1-3.7 2.7 0 1.1.8 1.9 1.9 1.9 1 0 1.7-.3 2.2-.9v.7h1.8v-.4l.1-.4.1-.4.5-2.5c.1-.8.2-1 .2-1.4-.2-1.3-1.1-2-2.9-2zm-1.1 5.8c-.5 0-.8-.3-.8-.7 0-.7.6-1.1 1.8-1.1h.5c0 1.1-.7 1.8-1.5 1.8zm9.2 10.3c-.7-.6-1.3-1.2-1.9-1.9h3.7c-.5.7-1.1 1.4-1.8 1.9zm3.1-22.7h-6.1c.4-.6.8-1.3 1.3-1.9h3.4c.5.6 1 1.2 1.4 1.9zm1.8 3.8h-9.9c.1-.2.4-.9 1-1.9h8.2c.2.6.5 1.2.7 1.9zm-16.3 1.4l-1.7 8.6h-2.1l1.3-6.6-2.9 6.6h-1.9l-.3-6.6-1.3 6.6h-1.9l1.6-8.6h3.3l.2 5.3 2.4-5.3h3.3zm35.2 7.8h-.30000000000000004v.5h.1v-.2h.1l.1.2h.1l-.1-.2c.1 0 .1-.1.1-.1-.1-.1-.1-.1-.1-.2zm-.1.2h-.1v-.1h.1v.1zm4.5 6h-.30000000000000004v.5h.1v-.2h.1l.1.2h.1l-.1-.2.1-.1c0-.1 0-.2-.1-.2zm-.1.2h-.1v-.1h.1c.1 0 .1 0 0 .1.1-.1.1 0 0 0zm5-32.5h-66.2c-1 0-1.8.8-1.8 1.8v41.6c0 1 .8 1.8 1.8 1.8h66.2c1 0 1.8-.8 1.8-1.8v-41.6c0-1-.8-1.8-1.8-1.8zm-4.5 32.8c-.1.1-.1.2-.2.2-.1.1-.2.1-.3.1-.1 0-.2 0-.3-.1-.1 0-.2-.1-.2-.2l-.1-.3c0-.1 0-.2.1-.3.1-.1.1-.2.2-.2.1-.1.2-.1.3-.1.1 0 .2 0 .3.1.1 0 .2.1.2.2.1.1.1.2.1.3l-.1.3zm1.3-10.2c0 9.9-8 17.9-17.9 17.9-4.6 0-8.8-1.8-12-4.6-3.2 2.9-7.4 4.6-12 4.6-9.9 0-17.9-8-17.9-17.9 0-9.8 8-17.9 17.8-17.9h.1c4.6 0 8.8 1.8 12 4.6 3.2-2.9 7.4-4.6 12-4.6 9.9 0 17.9 8 17.9 17.9zm-6.3 3.2c-.3 0-.6.2-.6.5s.3.5.6.5.6-.2.6-.5-.2-.5-.6-.5zm0 1c-.2 0-.4-.2-.4-.4s.2-.4.4-.4.4.2.4.4c.1.2-.1.4-.4.4zm-.1-4c0-1.8-1.2-3.2-3.4-3.2-2.5 0-4.2 1.7-4.2 4.2 0 1.8 1 3.2 3.4 3.2 2.2 0 3.8-1 4.1-3.4.1-.3.1-.3.1-.8zm-2.4.9c-.2 1.1-1.2 1.7-1.6 1.7-.8 0-1.2-.6-1.2-1.6 0-1.1.7-2.4 1.7-2.4.9 0 1.2.7 1.2 1.4 0 .3 0 .6-.1.9zm-5-1.8h-.6c-1 0-1.3.8-2.1 5h-2.1l1.3-7h1.9l-.2 1.1c.7-.8 1.2-1.1 1.8-1.1h.4s.1 0 .2.1l-.6 1.9zm0 0M187.9 21c-1.3 0-2.3.4-2.3.4l-.3 1.6s.8-.3 2.1-.3c.7 0 1.2.1 1.2.7 0 .3-.1.5-.1.5h-.8c-1.7 0-3.4.7-3.4 2.8 0 1.7 1.1 2.1 1.8 2.1 1.3 0 1.9-.9 2-.9l-.1.7h1.7l.7-5.2c.1-2.3-1.8-2.4-2.5-2.4zm-.9 6.1c-.6 0-.7-.5-.7-.7 0-.5.3-1.2 1.7-1.2h.4c-.1.4-.3 1.9-1.4 1.9zm5.9-3.7c0 1 2.3.5 2.3 2.9 0 2.5-2.5 2.4-2.9 2.4-1.6 0-2.1-.2-2.1-.2l.3-1.7s.8.3 1.7.3c.5 0 1.2-.1 1.2-.7 0-.9-2.4-.7-2.4-2.9 0-1.9 1.4-2.5 2.8-2.5 1.1 0 1.8.1 1.8.1l-.2 1.7s-1-.1-1.3-.1c-.8.1-1.2.3-1.2.7zm4.5 2.9c0 .3 0 .6.7.6.2 0 .4-.1.5-.1l-.2 1.6c-.2.1-.7.2-1.4.3-.9 0-1.5-.5-1.5-1.6 0-.8 1.1-7 1.1-7h1.9l-.2 1.1h.9l-.2 1.8h-1l-.6 3.3zm7.4-.8s.3-1.2.3-1.7c0-1.3-.6-2.8-2.7-2.8-1.9 0-3.3 2.1-3.3 4.4 0 2.7 1.8 3.3 3.3 3.3 1.4 0 2-.3 2-.3l.3-1.8s-1.1.5-2 .5c-2 0-1.7-1.5-1.7-1.5h3.8zm-2.5-2.8c1.1 0 .9 1.2.9 1.3h-2.1c0-.1.2-1.3 1.2-1.3zm-17.3-3.2l-1.5 9.1h-1.9l1.1-6.8-2.4 6.8h-1.3l-.2-6.8-1.2 6.8h-1.8l1.5-9.1h2.8l.1 5.6 1.9-5.6h2.9zm24.1-1.2h-9.9c.1-.2.4-.9 1-1.9h8.2c.3.6.5 1.3.7 1.9zm-1.8-3.8h-6.1c.4-.6.8-1.3 1.3-1.9h3.4c.6.6 1 1.3 1.4 1.9zm-3.1 22.8c-.7-.6-1.3-1.3-1.8-2h3.7c-.6.7-1.2 1.4-1.9 2zm3.2-3.8h-6.4c-.4-.6-.7-1.2-1.1-1.9h8.4c-.2.7-.6 1.3-.9 1.9zm2.2-12.3c-.3.5-.5 1-.7 2.2-1.3-.5-1.4 2.1-2 5.2h-2l1.2-7.4h1.8l-.2 1.1s.6-1.2 1.5-1.2c.3 0 .4.1.4.1zm3.5 5.7c.6 0 1.6-.5 1.6-.5l-.3 2.1s-1 .3-1.7.3c-2.3 0-3.4-1.6-3.4-3.9 0-3.6 2.1-5.5 4.3-5.5 1 0 2.1.5 2.1.5l-.3 2s-.8-.5-1.8-.5c-1.3 0-2.5 1.2-2.5 3.5.2 1 .7 2 2 2zm18.7.7c-.1 0-.2.1-.2.2-.1.1-.1.2-.1.3 0 .1 0 .2.1.3 0 .1.1.2.2.2l.3.1c.1 0 .2 0 .3-.1.1-.1.2-.1.2-.2.1-.1.1-.2.1-.3 0-.1 0-.2-.1-.3-.1-.1-.1-.2-.2-.2l-.3-.1c-.2 0-.3 0-.3.1zm.6.2c0 .1.1.2.1.2 0 .1 0 .2-.1.2 0 .1-.1.1-.2.2-.1 0-.2.1-.2.1-.1 0-.2 0-.2-.1-.1 0-.1-.1-.2-.2 0-.1-.1-.2-.1-.2 0-.1 0-.2.1-.2 0-.1.1-.1.2-.2.1 0 .2-.1.2-.1.1 0 .2 0 .2.1.1.1.2.1.2.2zm-7.7-2.2c0 1.6.8 3.1 2.4 3.1 1.1 0 1.8-.8 1.8-.8l-.1.7h1.9l1.5-9.1h-1.9l-.4 2.6s-.7-1-1.8-1c-1.9 0-3.4 2.1-3.4 4.5zm4.6-1.1c0 1-.5 2.4-1.5 2.4-.7 0-1-.6-1-1.5 0-1.5.7-2.5 1.5-2.5.6 0 1 .5 1 1.6zm3.1 9.6c0-.1-.1-.1 0 0 .1-.1.1-.2.1-.2v-.1l-.1-.1h-.4v.6h.1v-.3h.2l.1.1.1.1h.1l-.1-.1h-.1zm-.2-.2h-.1v-.2h.2v.1c0 .1 0 .1-.1.1zm5-32.4h-66.1c-1 0-1.8.8-1.8 1.8v41.6c0 1 .8 1.8 1.8 1.8h66.1c1 0 1.8-.8 1.8-1.8v-41.7c0-.9-.8-1.7-1.8-1.7zm-4.4 32.8c-.1.1-.1.2-.2.2-.1.1-.2.1-.3.1-.1 0-.2 0-.3-.1-.1 0-.2-.1-.2-.2l-.1-.3c0-.1 0-.2.1-.3.1-.1.1-.2.2-.2.1-.1.2-.1.3-.1.1 0 .2 0 .3.1.1 0 .2.1.2.2.1.1.1.2.1.3l-.1.3zm1.3-10.3c0 9.9-8 17.9-17.9 17.9-4.6 0-8.8-1.8-12-4.6-3.2 2.9-7.4 4.6-12 4.6-9.9 0-17.9-8-17.9-17.9 0-9.8 8-17.8 17.8-17.9h.1c4.6 0 8.8 1.8 12 4.6 3.2-2.9 7.4-4.6 12-4.6 9.9 0 17.9 8.1 17.9 17.9zm-2.3 3.8v.6h.1v-.3h.2l.1.1.1.1h.1l-.1-.1c0-.1-.1-.1-.1-.1h-.1c.1 0 .1 0 .1-.1l.1-.1v-.1s0-.1-.1-.1h-.4zm.3.1v.1h-.2v-.2h.1s.1 0 .1.1zm-13.3-6.9c-1.3 0-2.3.4-2.3.4l-.3 1.6s.8-.3 2.1-.3c.7 0 1.2.1 1.2.7 0 .3-.1.5-.1.5h-.8c-1.6 0-3.4.7-3.4 2.8 0 1.7 1.1 2.1 1.8 2.1 1.3 0 1.9-.9 2-.9l-.1.7h1.7l.7-5.2c.1-2.3-1.8-2.4-2.5-2.4zm-1 6.1c-.6 0-.7-.5-.7-.7 0-.5.3-1.2 1.7-1.2h.4c0 .4-.2 1.9-1.4 1.9zm7.1-3.7c-1.3-.5-1.4 2.1-2 5.2h-2l1.2-7.4h1.8l-.2 1.1s.6-1.2 1.5-1.2h.4c-.2.6-.5 1.1-.7 2.3zm0 0M142.6 20.2c-.2.7-.7 1.8-.6 1.7 0 0-1.5 4-1.9 5.1h3.9c-.2-.9-1.1-5.3-1.1-5.3l-.3-1.5zm0 0M83.3 1.4v45.2h74.4v-45.2h-74.4zm16.6 32l-3.9-14.7-5.5-4.1h9.8l2.5 12.8 4.7-12.8h5.1l-7.6 18.8h-5.1zm16.6 0h-4.8l3-18.8h4.8l-3 18.8zm8.4.3c-2.2 0-4.3-.5-5.4-1l.7-4.2.6.3c1.6.7 2.6 1 4.6 1 1.4 0 2.9-.6 2.9-1.8 0-.8-.6-1.4-2.5-2.3-1.8-.9-4.3-2.4-4.2-5.1 0-3.6 3.4-6.2 8.2-6.2 1.9 0 3.4.4 4.3.8l-.7 4.1-.4-.2c-.9-.4-2-.7-3.6-.7-1.9 0-2.8.8-2.8 1.6 0 .9 1 1.5 2.7 2.3 2.8 1.3 4.1 3 4.1 5.1-.1 3.7-3.4 6.3-8.5 6.3zm20.8-.3s-.4-2.2-.6-2.8h-6.2c-.2.5-1 2.8-1 2.8h-5.1l7.2-17.2c.5-1.2 1.4-1.6 2.5-1.6h3.7l3.9 18.8h-4.4zm0 0"/></svg>