<?xml version="1.0" encoding="utf-8"?>
<!-- Generator: Adobe Illustrator 19.2.0, SVG Export Plug-In . SVG Version: 6.00 Build 0)  -->
<svg version="1.1" id="Layer_1" xmlns="http://www.w3.org/2000/svg" xmlns:xlink="http://www.w3.org/1999/xlink" x="0px" y="0px"
	 viewBox="0 0 240 48" style="enable-background:new 0 0 240 48;" xml:space="preserve">
<style type="text/css">
	.st0{fill:#7C7C7C;}
</style>
<g>
	<path class="st0" d="M35.4,28.4c0.7,0,1.4-0.1,2.2-0.3l0.3-1.8c-0.8,0.3-1.4,0.4-2.2,0.4c-1.2,0-1.8-0.4-1.8-1.2c0-0.1,0-0.1,0-0.2
		h4.2c0.2-0.7,0.3-1.2,0.3-1.7c0-1.6-1.1-2.5-2.9-2.5c-2.1,0-3.7,1.8-3.7,4.2C31.8,27.3,33.1,28.4,35.4,28.4L35.4,28.4z M35.5,22.7
		c0.6,0,1,0.3,1,0.9V24h-2.4C34.3,23.2,34.8,22.7,35.5,22.7L35.5,22.7z M46.4,25.9c0,0.1,0,0.2,0,0.3c0,0.4,0.2,0.5,0.7,0.5
		c0.2,0,0.4,0,0.6-0.1l-0.3,1.6c-0.6,0.2-1,0.2-1.5,0.2c-1.1,0-1.7-0.5-1.7-1.5c0-0.2,0-0.4,0-0.6l0.1-0.7l0.1-0.6l1-5.4h2.1
		l-0.3,1.6h1.1L48.1,23H47L46.4,25.9z M42.2,21.1c0.5,0,1.3,0.1,1.9,0.1l-0.3,1.6c-0.6-0.1-1.1-0.1-1.5-0.1c-0.7,0-1,0.2-1,0.6
		c0,0.3,0.1,0.4,1,0.8c1.1,0.4,1.5,1,1.5,2c0,1.6-1,2.3-3.3,2.3c-0.3,0-0.7,0-1.2-0.1c-0.3,0-0.5,0-0.6-0.1l-0.4-0.1l-0.1,0l0.3-1.6
		c0.7,0.2,1.3,0.3,1.9,0.3c0.8,0,1.2-0.2,1.2-0.6c0-0.3-0.1-0.4-1-0.8c-1.1-0.5-1.6-1.1-1.6-2C39,22.2,39.9,21.1,42.2,21.1
		L42.2,21.1z M32.5,31.6H41c-0.3,0.7-0.7,1.3-1,1.9h-6.4C33.2,32.9,32.8,32.2,32.5,31.6L32.5,31.6z M28.7,21.1
		c-0.8,0-1.5,0.1-2.5,0.4l-0.3,1.6l0.2,0l0.3-0.1c0.5-0.1,1.1-0.2,1.7-0.2c1,0,1.4,0.2,1.4,0.6c0,0.1,0,0.2-0.1,0.5
		c-0.3,0-0.6-0.1-0.9-0.1c-2.3,0-3.7,1-3.7,2.7c0,1.1,0.8,1.9,1.9,1.9c1,0,1.7-0.3,2.2-0.9l0,0.7h1.8l0-0.2l0-0.2l0.1-0.4l0.1-0.4
		l0.5-2.5c0.1-0.8,0.2-1,0.2-1.4C31.4,21.8,30.5,21.1,28.7,21.1L28.7,21.1z M27.6,26.9c-0.5,0-0.8-0.3-0.8-0.7
		c0-0.7,0.6-1.1,1.8-1.1c0.2,0,0.3,0,0.5,0C29.1,26.2,28.4,26.9,27.6,26.9L27.6,26.9z M36.8,37.2C36.8,37.3,36.8,37.3,36.8,37.2
		c-0.7-0.6-1.3-1.2-1.9-1.9h3.7C38.1,36,37.5,36.7,36.8,37.2L36.8,37.2z M39.9,14.5h-6.1c0.4-0.6,0.8-1.3,1.3-1.9h3.4
		C39,13.2,39.5,13.8,39.9,14.5L39.9,14.5z M41.7,18.3h-9.9c0.1-0.2,0.4-0.9,1-1.9H41C41.2,17,41.5,17.6,41.7,18.3L41.7,18.3z
		 M25.4,19.7l-1.7,8.6h-2.1l1.3-6.6L20,28.3h-1.9l-0.3-6.6l-1.3,6.6h-1.9l1.6-8.6h3.3l0.2,5.3l2.4-5.3H25.4z M60.6,27.5
		c-0.1,0-0.1,0-0.1,0h-0.2V28h0.1v-0.2h0.1l0.1,0.2h0.1l-0.1-0.2c0.1,0,0.1-0.1,0.1-0.1C60.6,27.6,60.6,27.6,60.6,27.5L60.6,27.5z
		 M60.5,27.7C60.5,27.7,60.4,27.7,60.5,27.7l-0.1,0v-0.1h0c0,0,0.1,0,0.1,0C60.5,27.6,60.5,27.6,60.5,27.7
		C60.5,27.7,60.5,27.7,60.5,27.7L60.5,27.7z M65,33.7c-0.1,0-0.1,0-0.1,0h-0.2v0.5h0.1V34h0.1l0.1,0.2h0.1L65,34
		c0,0,0.1-0.1,0.1-0.1C65.1,33.8,65.1,33.7,65,33.7L65,33.7z M64.9,33.9C64.9,33.9,64.9,33.9,64.9,33.9l-0.1,0v-0.1h0
		c0,0,0.1,0,0.1,0C65,33.8,65,33.8,64.9,33.9C65,33.8,65,33.9,64.9,33.9L64.9,33.9z M69.9,1.4H3.7c-1,0-1.8,0.8-1.8,1.8v41.6
		c0,1,0.8,1.8,1.8,1.8h66.2c1,0,1.8-0.8,1.8-1.8V3.2C71.7,2.2,70.9,1.4,69.9,1.4L69.9,1.4z M65.4,34.2c-0.1,0.1-0.1,0.2-0.2,0.2
		c-0.1,0.1-0.2,0.1-0.3,0.1c-0.1,0-0.2,0-0.3-0.1c-0.1,0-0.2-0.1-0.2-0.2c0-0.1-0.1-0.2-0.1-0.3c0-0.1,0-0.2,0.1-0.3
		c0.1-0.1,0.1-0.2,0.2-0.2c0.1-0.1,0.2-0.1,0.3-0.1c0.1,0,0.2,0,0.3,0.1c0.1,0,0.2,0.1,0.2,0.2c0.1,0.1,0.1,0.2,0.1,0.3
		C65.5,34,65.4,34.1,65.4,34.2L65.4,34.2z M66.7,24c0,9.9-8,17.9-17.9,17.9c-4.6,0-8.8-1.8-12-4.6c-3.2,2.9-7.4,4.6-12,4.6
		c-9.9,0-17.9-8-17.9-17.9c0-9.8,8-17.9,17.8-17.9h0.1c4.6,0,8.8,1.8,12,4.6c3.2-2.9,7.4-4.6,12-4.6C58.7,6.1,66.7,14.1,66.7,24
		L66.7,24L66.7,24z M60.4,27.2c-0.3,0-0.6,0.2-0.6,0.5c0,0.3,0.3,0.5,0.6,0.5c0.3,0,0.6-0.2,0.6-0.5C61,27.4,60.8,27.2,60.4,27.2
		L60.4,27.2z M60.4,28.2c-0.2,0-0.4-0.2-0.4-0.4c0-0.2,0.2-0.4,0.4-0.4c0.2,0,0.4,0.2,0.4,0.4C60.9,28,60.7,28.2,60.4,28.2
		L60.4,28.2z M60.3,24.2c0-1.8-1.2-3.2-3.4-3.2c-2.5,0-4.2,1.7-4.2,4.2c0,1.8,1,3.2,3.4,3.2c2.2,0,3.8-1,4.1-3.4
		C60.3,24.7,60.3,24.7,60.3,24.2L60.3,24.2z M57.9,25.1c-0.2,1.1-1.2,1.7-1.6,1.7c-0.8,0-1.2-0.6-1.2-1.6c0-1.1,0.7-2.4,1.7-2.4
		c0.9,0,1.2,0.7,1.2,1.4C58,24.5,58,24.8,57.9,25.1L57.9,25.1z M52.9,23.3l-0.3,0c-0.1,0-0.2,0-0.3,0c-1,0-1.3,0.8-2.1,5h-2.1l1.3-7
		h1.9l-0.2,1.1c0.7-0.8,1.2-1.1,1.8-1.1c0.1,0,0.2,0,0.2,0c0,0,0.1,0,0.2,0c0,0,0.1,0,0.2,0.1L52.9,23.3z M52.9,23.3"/>
</g>
<g>
	<path class="st0" d="M187.9,21c-1.3,0-2.3,0.4-2.3,0.4l-0.3,1.6c0,0,0.8-0.3,2.1-0.3c0.7,0,1.2,0.1,1.2,0.7c0,0.3-0.1,0.5-0.1,0.5
		s-0.6,0-0.8,0c-1.7,0-3.4,0.7-3.4,2.8c0,1.7,1.1,2.1,1.8,2.1c1.3,0,1.9-0.9,2-0.9l-0.1,0.7h1.7l0.7-5.2
		C190.5,21.1,188.6,21,187.9,21L187.9,21z M187,27.1c-0.6,0-0.7-0.5-0.7-0.7c0-0.5,0.3-1.2,1.7-1.2c0.3,0,0.4,0,0.4,0
		C188.3,25.6,188.1,27.1,187,27.1L187,27.1z M192.9,23.4c0,1,2.3,0.5,2.3,2.9c0,2.5-2.5,2.4-2.9,2.4c-1.6,0-2.1-0.2-2.1-0.2l0.3-1.7
		c0,0,0.8,0.3,1.7,0.3c0.5,0,1.2-0.1,1.2-0.7c0-0.9-2.4-0.7-2.4-2.9c0-1.9,1.4-2.5,2.8-2.5c1.1,0,1.8,0.1,1.8,0.1l-0.2,1.7
		c0,0-1-0.1-1.3-0.1C193.3,22.8,192.9,23,192.9,23.4L192.9,23.4z M197.4,26.3c0,0.3,0,0.6,0.7,0.6c0.2,0,0.4-0.1,0.5-0.1l-0.2,1.6
		c-0.2,0.1-0.7,0.2-1.4,0.3c-0.9,0-1.5-0.5-1.5-1.6c0-0.8,1.1-7,1.1-7h1.9l-0.2,1.1h0.9L199,23h-1L197.4,26.3z M204.8,25.5
		c0,0,0.3-1.2,0.3-1.7c0-1.3-0.6-2.8-2.7-2.8c-1.9,0-3.3,2.1-3.3,4.4c0,2.7,1.8,3.3,3.3,3.3c1.4,0,2-0.3,2-0.3l0.3-1.8
		c0,0-1.1,0.5-2,0.5c-2,0-1.7-1.5-1.7-1.5H204.8z M202.3,22.7c1.1,0,0.9,1.2,0.9,1.3h-2.1C201.1,23.9,201.3,22.7,202.3,22.7
		L202.3,22.7z M185,19.5l-1.5,9.1h-1.9l1.1-6.8l-2.4,6.8h-1.3l-0.2-6.8l-1.2,6.8h-1.8l1.5-9.1h2.8l0.1,5.6l1.9-5.6H185z M209.1,18.3
		h-9.9c0.1-0.2,0.4-0.9,1-1.9h8.2C208.7,17,208.9,17.7,209.1,18.3L209.1,18.3z M207.3,14.5h-6.1c0.4-0.6,0.8-1.3,1.3-1.9h3.4
		C206.5,13.2,206.9,13.9,207.3,14.5L207.3,14.5z M204.2,37.3c-0.7-0.6-1.3-1.3-1.8-2h3.7C205.5,36,204.9,36.7,204.2,37.3L204.2,37.3
		C204.2,37.3,204.2,37.3,204.2,37.3C204.2,37.3,204.2,37.3,204.2,37.3L204.2,37.3z M207.4,33.5H201c-0.4-0.6-0.7-1.2-1.1-1.9h8.4
		C208.1,32.3,207.7,32.9,207.4,33.5L207.4,33.5z M209.6,21.2c-0.3,0.5-0.5,1-0.7,2.2c-1.3-0.5-1.4,2.1-2,5.2h-2l1.2-7.4h1.8
		l-0.2,1.1c0,0,0.6-1.2,1.5-1.2C209.5,21.1,209.6,21.2,209.6,21.2L209.6,21.2z M213.1,26.9c0.6,0,1.6-0.5,1.6-0.5l-0.3,2.1
		c0,0-1,0.3-1.7,0.3c-2.3,0-3.4-1.6-3.4-3.9c0-3.6,2.1-5.5,4.3-5.5c1,0,2.1,0.5,2.1,0.5l-0.3,2c0,0-0.8-0.5-1.8-0.5
		c-1.3,0-2.5,1.2-2.5,3.5C211.3,25.9,211.8,26.9,213.1,26.9L213.1,26.9z M231.8,27.6c-0.1,0-0.2,0.1-0.2,0.2
		c-0.1,0.1-0.1,0.2-0.1,0.3c0,0.1,0,0.2,0.1,0.3c0,0.1,0.1,0.2,0.2,0.2c0.1,0,0.2,0.1,0.3,0.1c0.1,0,0.2,0,0.3-0.1
		c0.1-0.1,0.2-0.1,0.2-0.2c0.1-0.1,0.1-0.2,0.1-0.3c0-0.1,0-0.2-0.1-0.3c-0.1-0.1-0.1-0.2-0.2-0.2c-0.1,0-0.2-0.1-0.3-0.1
		C231.9,27.5,231.8,27.5,231.8,27.6L231.8,27.6z M232.4,27.8c0,0.1,0.1,0.2,0.1,0.2c0,0.1,0,0.2-0.1,0.2c0,0.1-0.1,0.1-0.2,0.2
		c-0.1,0-0.2,0.1-0.2,0.1c-0.1,0-0.2,0-0.2-0.1c-0.1,0-0.1-0.1-0.2-0.2c0-0.1-0.1-0.2-0.1-0.2c0-0.1,0-0.2,0.1-0.2
		c0-0.1,0.1-0.1,0.2-0.2c0.1,0,0.2-0.1,0.2-0.1c0.1,0,0.2,0,0.2,0.1C232.3,27.7,232.4,27.7,232.4,27.8L232.4,27.8z M224.7,25.6
		c0,1.6,0.8,3.1,2.4,3.1c1.1,0,1.8-0.8,1.8-0.8l-0.1,0.7h1.9l1.5-9.1l-1.9,0l-0.4,2.6c0,0-0.7-1-1.8-1
		C226.2,21.1,224.7,23.2,224.7,25.6L224.7,25.6z M229.3,24.5c0,1-0.5,2.4-1.5,2.4c-0.7,0-1-0.6-1-1.5c0-1.5,0.7-2.5,1.5-2.5
		C228.9,22.9,229.3,23.4,229.3,24.5L229.3,24.5z M232.4,34.1C232.4,34,232.3,34,232.4,34.1C232.4,34,232.4,34,232.4,34.1
		c0.1-0.1,0.1-0.2,0.1-0.2c0,0,0-0.1,0-0.1c0,0,0,0-0.1-0.1c0,0-0.1,0-0.2,0H232v0.6h0.1V34h0.1c0,0,0.1,0,0.1,0
		c0,0,0.1,0.1,0.1,0.1l0.1,0.1h0.1l-0.1-0.1C232.4,34.1,232.4,34.1,232.4,34.1L232.4,34.1z M232.2,33.9h-0.1v-0.2h0.1
		c0,0,0.1,0,0.1,0c0,0,0,0,0,0c0,0,0,0,0,0c0,0,0,0.1,0,0.1C232.3,33.9,232.3,33.9,232.2,33.9L232.2,33.9z M237.2,1.5h-66.1
		c-1,0-1.8,0.8-1.8,1.8v41.6c0,1,0.8,1.8,1.8,1.8h66.1c1,0,1.8-0.8,1.8-1.8V3.2C239,2.3,238.2,1.5,237.2,1.5L237.2,1.5z M232.8,34.3
		c-0.1,0.1-0.1,0.2-0.2,0.2c-0.1,0.1-0.2,0.1-0.3,0.1c-0.1,0-0.2,0-0.3-0.1c-0.1,0-0.2-0.1-0.2-0.2c0-0.1-0.1-0.2-0.1-0.3
		c0-0.1,0-0.2,0.1-0.3c0.1-0.1,0.1-0.2,0.2-0.2c0.1-0.1,0.2-0.1,0.3-0.1c0.1,0,0.2,0,0.3,0.1c0.1,0,0.2,0.1,0.2,0.2
		c0.1,0.1,0.1,0.2,0.1,0.3C232.9,34.1,232.8,34.2,232.8,34.3L232.8,34.3z M234.1,24c0,9.9-8,17.9-17.9,17.9c-4.6,0-8.8-1.8-12-4.6
		c-3.2,2.9-7.4,4.6-12,4.6c-9.9,0-17.9-8-17.9-17.9c0-9.8,8-17.8,17.8-17.9h0.1c4.6,0,8.8,1.8,12,4.6c3.2-2.9,7.4-4.6,12-4.6
		C226.1,6.1,234.1,14.2,234.1,24L234.1,24L234.1,24z M231.8,27.8v0.6h0.1v-0.3h0.1c0,0,0.1,0,0.1,0c0,0,0.1,0.1,0.1,0.1l0.1,0.1h0.1
		l-0.1-0.1c0-0.1-0.1-0.1-0.1-0.1c0,0,0,0-0.1,0c0.1,0,0.1,0,0.1-0.1c0,0,0.1-0.1,0.1-0.1c0,0,0-0.1,0-0.1c0,0,0-0.1-0.1-0.1
		c0,0-0.1,0-0.2,0H231.8z M232.1,27.9C232.1,27.9,232.2,27.9,232.1,27.9c0,0.1,0,0.1,0,0.1c0,0-0.1,0-0.1,0h-0.1v-0.2h0.1
		C232,27.8,232.1,27.8,232.1,27.9C232.1,27.9,232.1,27.9,232.1,27.9L232.1,27.9z M218.8,21c-1.3,0-2.3,0.4-2.3,0.4l-0.3,1.6
		c0,0,0.8-0.3,2.1-0.3c0.7,0,1.2,0.1,1.2,0.7c0,0.3-0.1,0.5-0.1,0.5s-0.6,0-0.8,0c-1.6,0-3.4,0.7-3.4,2.8c0,1.7,1.1,2.1,1.8,2.1
		c1.3,0,1.9-0.9,2-0.9l-0.1,0.7h1.7l0.7-5.2C221.4,21.1,219.5,21,218.8,21L218.8,21z M217.8,27.1c-0.6,0-0.7-0.5-0.7-0.7
		c0-0.5,0.3-1.2,1.7-1.2c0.3,0,0.4,0,0.4,0C219.2,25.6,219,27.1,217.8,27.1L217.8,27.1z M224.9,23.4c-1.3-0.5-1.4,2.1-2,5.2h-2
		l1.2-7.4h1.8l-0.2,1.1c0,0,0.6-1.2,1.5-1.2c0.2,0,0.4,0,0.4,0C225.4,21.7,225.1,22.2,224.9,23.4L224.9,23.4z M224.9,23.4"/>
</g>
<path class="st0" d="M142.6,20.2c-0.2,0.7-0.7,1.8-0.6,1.7c0,0-1.5,4-1.9,5.1h3.9c-0.2-0.9-1.1-5.3-1.1-5.3L142.6,20.2z M142.6,20.2
	"/>
<path class="st0" d="M83.3,1.4v45.2h74.4V1.4H83.3z M99.9,33.4L96,18.7l-5.5-4.1h9.8l2.5,12.8l4.7-12.8h5.1L105,33.4H99.9z
	 M116.5,33.4h-4.8l3-18.8h4.8L116.5,33.4z M124.9,33.7c-2.2,0-4.3-0.5-5.4-1l0.7-4.2l0.6,0.3c1.6,0.7,2.6,1,4.6,1
	c1.4,0,2.9-0.6,2.9-1.8c0-0.8-0.6-1.4-2.5-2.3c-1.8-0.9-4.3-2.4-4.2-5.1c0-3.6,3.4-6.2,8.2-6.2c1.9,0,3.4,0.4,4.3,0.8l-0.7,4.1
	l-0.4-0.2c-0.9-0.4-2-0.7-3.6-0.7c-1.9,0-2.8,0.8-2.8,1.6c0,0.9,1,1.5,2.7,2.3c2.8,1.3,4.1,3,4.1,5.1
	C133.3,31.1,130,33.7,124.9,33.7L124.9,33.7z M145.7,33.4c0,0-0.4-2.2-0.6-2.8c-0.7,0-5.7,0-6.2,0c-0.2,0.5-1,2.8-1,2.8h-5.1
	l7.2-17.2c0.5-1.2,1.4-1.6,2.5-1.6h3.7l3.9,18.8H145.7z M145.7,33.4"/>
</svg>
