<svg xmlns="http://www.w3.org/2000/svg" viewBox="0 0 65 12" enable-background="new 0 0 65 12"><style type="text/css">.st0{fill:#BABABA;}</style><path class="st0" d="M.2 9.7l.9-9h5.2l-.9 9h-1.6l.8-7.9h-2l-.8 7.9h-1.6zM6.7 9.7l.9-9h2.5c.8 0 1.4.2 1.7.7.3.3.4.8.4 1.4v.5c-.1.7-.3 1.4-.8 1.7-.5.4-1.1.6-1.8.6h-.9l-.4 4-1.6.1zm2.1-5.2h.5c.5 0 .8-.1 1-.3.2-.2.3-.5.4-1v-.8c0-.2-.1-.4-.3-.4-.1-.2-.4-.2-.7-.2h-.6l-.3 2.7zM14.8 9.8c-.5 0-.9-.1-1.2-.2-.3-.1-.6-.3-.7-.6-.2-.3-.3-.6-.3-.9v-1.2l.4-3.3c.1-1 .4-1.7.8-2.2.5-.5 1.1-.7 2.1-.7.9 0 1.6.2 1.9.7.3.4.4.9.4 1.6v.6l-.4 3.3c-.1 1-.4 1.7-.8 2.2-.6.4-1.3.7-2.2.7zm.1-1.2c.2 0 .3 0 .4-.1.1 0 .2-.1.3-.2l.2-.3c.1-.1.2-.2.2-.4 0-.1 0-.3.1-.5l.4-4.1v-.8c0-.2-.1-.4-.2-.5-.1-.1-.3-.2-.6-.2-.2 0-.4 0-.5.1-.2.3-.3.4-.4.5l-.2.4c0 .1-.1.3-.1.6l-.4 4.1v.7c0 .2.1.4.2.5.2.1.4.2.6.2zM18.6 9.7l.9-9h2.2c.4 0 .8 0 1.1.1.3.1.6.2.8.4.2.2.4.4.5.7.1.2.1.4.1.7v.4c-.1 1.1-.6 1.7-1.5 1.9.5.1.9.3 1.1.7.1.2.2.6.2 1v.4c-.1.8-.4 1.5-.8 1.9-.5.4-1.1.7-1.9.7l-2.7.1zm1.8-1.2h.6c.3 0 .6-.1.8-.2.2-.1.4-.3.5-.5.1-.2.2-.5.2-.8v-.3c0-.4-.1-.7-.2-.8-.2-.2-.5-.4-1-.4h-.5l-.4 3zm.4-4.2h.5c.5 0 .8-.1 1-.3.2-.2.3-.6.4-1.1v-.7c0-.2-.1-.3-.3-.4-.1-.1-.3-.1-.5-.2h-.8999999999999999l-.2 2.7zM27.2 9.8c-.5 0-.9-.1-1.2-.2s-.6-.4-.7-.6c-.2-.3-.3-.6-.3-.9v-1.2l.4-3.3c.1-1 .4-1.7.8-2.2.5-.5 1.1-.7 2.1-.7.9 0 1.6.2 1.9.7.3.4.4.9.4 1.6v.6l-.4 3.3c-.1 1-.4 1.7-.8 2.2-.6.4-1.3.7-2.2.7zm.1-1.2c.2 0 .3 0 .4-.1.1 0 .2-.1.3-.2l.2-.3c.1-.1.1-.3.1-.4 0-.1 0-.3.1-.5l.4-4.1v-.8c0-.2-.1-.4-.2-.5-.1-.1-.3-.2-.6-.2-.2 0-.4 0-.5.1l-.3.3-.2.4c0 .1-.1.3-.1.6l-.4 4.1v.7c0 .2.1.4.2.5.1.3.3.4.6.4zM31 9.7l.9-9h1.6l-.4 3.8h.3l1.9-3.8h1.6l-2.1 4.2 1.3 4.8h-1.6l-1.1-4.2h-.4l-.4 4.2h-1.6zM36.5 9.7l2.8-9h1.7l.9 9h-1.5l-.2-2.1h-1.6l-.6 2.1h-1.5zm2.4-3.2h1.2l-.2-3.7-1 3.7zM47.6 11.4v-1.8h-4.9l.9-9h1.6l-.8 7.9h2.1l.8-7.9h1.6l-.8 7.9h1l-.3 2.9h-1.2zM50 9.7l.9-9h1.3l-.6 5.7 3.1-5.7h1.1l-.9 9h-1.4l.6-5.8-3.1 5.8h-1zM55.7 9.7l2.2-4c-.4-.2-.6-.5-.8-.9-.1-.3-.2-.7-.2-1.1v-.4c.1-.9.4-1.5.9-1.9.5-.4 1.3-.6 2.3-.6h2l-.9 9h-1.6l.4-3.8h-.7l-1.8 3.7h-1.8zm4.1-4.8h.3l.3-3.1h-.3c-.5 0-.9.1-1.2.4-.3.2-.4.6-.5 1.1v.3c0 .4.1.7.2.9.2.2.6.4 1.2.4zM62.4 9.7l.2-1.4h1.4l-.2 1.4h-1.4zm.7-2.1l.3-6.9h1.5l-1.2 6.9h-.6z"/></svg>