<?xml version="1.0" encoding="utf-8"?>
<!-- Generator: Adobe Illustrator 19.2.0, SVG Export Plug-In . SVG Version: 6.00 Build 0)  -->
<svg version="1.1" id="Layer_1" xmlns="http://www.w3.org/2000/svg" xmlns:xlink="http://www.w3.org/1999/xlink" x="0px" y="0px"
	 viewBox="0 0 65 12" style="enable-background:new 0 0 65 12;" xml:space="preserve">
<style type="text/css">
	.st0{fill:#BABABA;}
</style>
<g>
	<g>
		<path class="st0" d="M0.2,9.7l0.9-9h5.2l-0.9,9H3.8l0.8-7.9h-2L1.8,9.7H0.2z"/>
		<path class="st0" d="M6.7,9.7l0.9-9h2.5c0.8,0,1.4,0.2,1.7,0.7c0.3,0.3,0.4,0.8,0.4,1.4c0,0.2,0,0.3,0,0.5C12.1,4,11.9,4.7,11.4,5
			c-0.5,0.4-1.1,0.6-1.8,0.6H8.7l-0.4,4L6.7,9.7L6.7,9.7z M8.8,4.5h0.5c0.5,0,0.8-0.1,1-0.3c0.2-0.2,0.3-0.5,0.4-1
			c0-0.2,0-0.4,0-0.5c0-0.1,0-0.2,0-0.3c0-0.2-0.1-0.4-0.3-0.4C10.3,1.8,10,1.8,9.7,1.8H9.1L8.8,4.5z"/>
		<path class="st0" d="M14.8,9.8c-0.5,0-0.9-0.1-1.2-0.2c-0.3-0.1-0.6-0.3-0.7-0.6c-0.2-0.3-0.3-0.6-0.3-0.9c0-0.2,0-0.4,0-0.6
			c0-0.2,0-0.4,0-0.6l0.4-3.3c0.1-1,0.4-1.7,0.8-2.2c0.5-0.5,1.1-0.7,2.1-0.7c0.9,0,1.6,0.2,1.9,0.7c0.3,0.4,0.4,0.9,0.4,1.6
			c0,0.2,0,0.4,0,0.6l-0.4,3.3c-0.1,1-0.4,1.7-0.8,2.2C16.4,9.5,15.7,9.8,14.8,9.8z M14.9,8.6c0.2,0,0.3,0,0.4-0.1
			c0.1,0,0.2-0.1,0.3-0.2c0.1-0.1,0.1-0.2,0.2-0.3C15.9,7.9,16,7.8,16,7.6c0-0.1,0-0.3,0.1-0.5l0.4-4.1c0-0.2,0-0.3,0-0.5
			c0-0.1,0-0.2,0-0.3c0-0.2-0.1-0.4-0.2-0.5c-0.1-0.1-0.3-0.2-0.6-0.2c-0.2,0-0.4,0-0.5,0.1C15,1.9,14.9,2,14.8,2.1
			c-0.1,0.1-0.1,0.3-0.2,0.4c0,0.1-0.1,0.3-0.1,0.6l-0.4,4.1c0,0.2,0,0.3,0,0.5c0,0.1,0,0.2,0,0.2c0,0.2,0.1,0.4,0.2,0.5
			C14.5,8.5,14.7,8.6,14.9,8.6z"/>
		<path class="st0" d="M18.6,9.7l0.9-9h2.2c0.4,0,0.8,0,1.1,0.1c0.3,0.1,0.6,0.2,0.8,0.4c0.2,0.2,0.4,0.4,0.5,0.7
			c0.1,0.2,0.1,0.4,0.1,0.7c0,0.1,0,0.3,0,0.4c-0.1,1.1-0.6,1.7-1.5,1.9c0.5,0.1,0.9,0.3,1.1,0.7C23.9,5.8,24,6.2,24,6.6
			c0,0.1,0,0.3,0,0.4c-0.1,0.8-0.4,1.5-0.8,1.9c-0.5,0.4-1.1,0.7-1.9,0.7L18.6,9.7L18.6,9.7z M20.4,8.5H21c0.3,0,0.6-0.1,0.8-0.2
			c0.2-0.1,0.4-0.3,0.5-0.5c0.1-0.2,0.2-0.5,0.2-0.8c0-0.1,0-0.2,0-0.3c0-0.4-0.1-0.7-0.2-0.8c-0.2-0.2-0.5-0.4-1-0.4h-0.5L20.4,8.5
			z M20.8,4.3h0.5c0.5,0,0.8-0.1,1-0.3c0.2-0.2,0.3-0.6,0.4-1.1c0-0.1,0-0.2,0-0.3c0-0.1,0-0.3,0-0.4c0-0.2-0.1-0.3-0.3-0.4
			c-0.1-0.1-0.3-0.1-0.5-0.2c-0.2,0-0.4,0-0.7,0h-0.2L20.8,4.3z"/>
		<path class="st0" d="M27.2,9.8c-0.5,0-0.9-0.1-1.2-0.2S25.4,9.2,25.3,9c-0.2-0.3-0.3-0.6-0.3-0.9c0-0.2,0-0.4,0-0.6
			c0-0.2,0-0.4,0-0.6l0.4-3.3c0.1-1,0.4-1.7,0.8-2.2c0.5-0.5,1.1-0.7,2.1-0.7c0.9,0,1.6,0.2,1.9,0.7c0.3,0.4,0.4,0.9,0.4,1.6
			c0,0.2,0,0.4,0,0.6l-0.4,3.3c-0.1,1-0.4,1.7-0.8,2.2C28.8,9.5,28.1,9.8,27.2,9.8z M27.3,8.6c0.2,0,0.3,0,0.4-0.1
			c0.1,0,0.2-0.1,0.3-0.2c0.1-0.1,0.1-0.2,0.2-0.3c0.1-0.1,0.1-0.3,0.1-0.4c0-0.1,0-0.3,0.1-0.5l0.4-4.1c0-0.2,0-0.3,0-0.5
			c0-0.1,0-0.2,0-0.3c0-0.2-0.1-0.4-0.2-0.5c-0.1-0.1-0.3-0.2-0.6-0.2c-0.2,0-0.4,0-0.5,0.1c-0.1,0.1-0.2,0.2-0.3,0.3
			c-0.1,0.1-0.1,0.3-0.2,0.4c0,0.1-0.1,0.3-0.1,0.6l-0.4,4.1c0,0.2,0,0.3,0,0.5c0,0.1,0,0.2,0,0.2c0,0.2,0.1,0.4,0.2,0.5
			C26.8,8.5,27,8.6,27.3,8.6z"/>
		<path class="st0" d="M31,9.7l0.9-9h1.6l-0.4,3.8h0.3l1.9-3.8h1.6l-2.1,4.2l1.3,4.8h-1.6l-1.1-4.2H33l-0.4,4.2H31z"/>
		<path class="st0" d="M36.5,9.7l2.8-9h1.7l0.9,9h-1.5l-0.2-2.1h-1.6L38,9.7H36.5z M38.9,6.5h1.2l-0.2-3.7L38.9,6.5z"/>
		<path class="st0" d="M47.6,11.4l0-1.8h-4.9l0.9-9h1.6l-0.8,7.9h2.1l0.8-7.9h1.6l-0.8,7.9h1l-0.3,2.9
			C48.8,11.4,47.6,11.4,47.6,11.4z"/>
		<path class="st0" d="M50,9.7l0.9-9h1.3l-0.6,5.7l3.1-5.7h1.1l-0.9,9h-1.4l0.6-5.8L51,9.7H50z"/>
		<path class="st0" d="M55.7,9.7l2.2-4c-0.4-0.2-0.6-0.5-0.8-0.9c-0.1-0.3-0.2-0.7-0.2-1.1c0-0.1,0-0.3,0-0.4
			c0.1-0.9,0.4-1.5,0.9-1.9c0.5-0.4,1.3-0.6,2.3-0.6h2l-0.9,9h-1.6L60,6h-0.5h-0.2l-1.8,3.7L55.7,9.7L55.7,9.7z M59.8,4.9h0.3
			l0.3-3.1h-0.3c-0.5,0-0.9,0.1-1.2,0.4c-0.3,0.2-0.4,0.6-0.5,1.1c0,0.1,0,0.2,0,0.3c0,0.4,0.1,0.7,0.2,0.9
			C58.8,4.7,59.2,4.9,59.8,4.9z"/>
		<path class="st0" d="M62.4,9.7l0.2-1.4H64l-0.2,1.4H62.4z M63.1,7.6l0.3-6.9h1.5l-1.2,6.9H63.1z"/>
	</g>
</g>
</svg>
