<?xml version="1.0" encoding="utf-8"?>
<!-- Generator: Adobe Illustrator 19.2.0, SVG Export Plug-In . SVG Version: 6.00 Build 0)  -->
<svg version="1.1" id="Layer_1" xmlns="http://www.w3.org/2000/svg" xmlns:xlink="http://www.w3.org/1999/xlink" x="0px" y="0px"
	 viewBox="0 0 54 54" style="enable-background:new 0 0 54 54;" xml:space="preserve">
<style type="text/css">
	.st0{fill:#B5B5B5;}
	.st1{fill:#FFFFFF;}
	.st2{fill:#262626;}
</style>
<g>
	<path class="st0" d="M27,0C12.5,0,0.8,11.4,0,25.6C0.8,11.4,12.6,0,27,0z"/>
	<path class="st1" d="M37.1,13.5c-2.4,0-4.3,0.7-5.9,2.2c-1.6,1.5-2.4,3.4-2.4,5.8c0,4,2.4,6.8,7.3,8.4c0.2,0.1,0.6,0.3,0.4,0.6
		c-0.6,1.4-1.6,2.8-2.9,4.2c-0.7,0.7-1.8,1.6-3.2,2.9c-0.3,0.3-0.8,0.9-0.4,1.6l0.8,1c0.4,0.5,1.2,0.3,1.5,0.1
		c8.5-5.8,12.8-11.8,12.8-18c0-2.1-0.8-4.1-2.4-5.9C41.1,14.5,39.2,13.5,37.1,13.5z"/>
	<path class="st0" d="M27,54C27,54,27,54,27,54c14.4,0,26.2-11.3,27-25.6C53.2,42.6,41.4,54,27,54z"/>
	<path class="st1" d="M18.6,13.5c-2.4,0-4.3,0.7-5.9,2.2c-1.6,1.5-2.4,3.4-2.4,5.8c0,4,2.4,6.8,7.3,8.4c0.2,0.1,0.6,0.3,0.4,0.6
		c-0.6,1.4-1.6,2.8-2.9,4.2c-0.7,0.7-1.8,1.6-3.2,2.9c-0.3,0.3-0.8,0.9-0.4,1.6l0.8,1c0.4,0.5,1.2,0.3,1.5,0.1
		c8.5-5.8,12.8-11.8,12.8-18c0-2.1-0.8-4.1-2.4-5.9C22.6,14.5,20.7,13.5,18.6,13.5z"/>
	<path class="st0" d="M54,25.6C53.2,11.3,41.4,0,27,0c0,0,0,0,0,0C41.4,0,53.2,11.4,54,25.6z"/>
	<path class="st0" d="M0,28.4C0.8,42.6,12.5,54,27,54C12.6,54,0.8,42.6,0,28.4z"/>
	<path class="st2" d="M54,28.4c0-0.5,0-0.9,0-1.4s0-0.9,0-1.4C53.2,11.4,41.4,0,27,0c0,0,0,0,0,0c0,0,0,0,0,0
		C12.6,0,0.8,11.4,0,25.6c0,0.5,0,0.9,0,1.4s0,0.9,0,1.4C0.8,42.6,12.6,54,27,54c0,0,0,0,0,0c0,0,0,0,0,0C41.4,54,53.2,42.6,54,28.4
		z M13.8,40.3c-0.3,0.2-1.1,0.4-1.5-0.1l-0.8-1c-0.4-0.7,0.1-1.3,0.4-1.6c1.5-1.2,2.6-2.2,3.2-2.9c1.3-1.4,2.3-2.8,2.9-4.2
		c0.1-0.3-0.2-0.5-0.4-0.6c-4.9-1.6-7.3-4.4-7.3-8.4c0-2.4,0.8-4.3,2.4-5.8c1.6-1.5,3.6-2.2,5.9-2.2c2.1,0,4,1,5.6,2.9
		c1.6,1.8,2.4,3.8,2.4,5.9C26.6,28.5,22.3,34.5,13.8,40.3z M32.3,40.3c-0.3,0.2-1.1,0.4-1.5-0.1l-0.8-1c-0.4-0.7,0.1-1.3,0.4-1.6
		c1.5-1.2,2.6-2.2,3.2-2.9c1.3-1.4,2.3-2.8,2.9-4.2c0.1-0.3-0.2-0.5-0.4-0.6c-4.9-1.6-7.3-4.4-7.3-8.4c0-2.4,0.8-4.3,2.4-5.8
		c1.6-1.5,3.6-2.2,5.9-2.2c2.1,0,4,1,5.6,2.9c1.6,1.8,2.4,3.8,2.4,5.9C45.1,28.5,40.8,34.5,32.3,40.3z"/>
</g>
</svg>
