<svg xmlns="http://www.w3.org/2000/svg" xmlns:xlink="http://www.w3.org/1999/xlink" viewBox="0 0 66 66" enable-background="new 0 0 66 66"><style type="text/css">.st0{clip-path:url(#SVGID_2_);fill:#262626;}</style><defs><path id="SVGID_1_" d="M6.9 2.3h57.7v57.9h-57.7z"/></defs><clipPath id="SVGID_2_"><use xlink:href="#SVGID_1_" overflow="visible"/></clipPath><path class="st0" d="M64.4 7.7c-.1-.3-.5-.6-.9-.6h-2.9c-.5 0-.9-.4-.9-.9v-2.9c0-.4-.2-.7-.6-.9-.3-.1-.7-.1-1 .2l-4.8 4.8c-.2.2-.3.4-.3.7v2.9c0 .4.1.8.3 1.2l-4.6 4.6c-4.5-4.2-10.5-6.7-17-6.7-6.7 0-12.9 2.6-17.6 7.4-4.7 4.7-7.3 11-7.3 17.7 0 6.7 2.6 12.9 7.3 17.6 4.7 4.7 11 7.3 17.6 7.3 6.7 0 13-2.6 17.7-7.3 4.7-4.7 7.4-11 7.4-17.6 0-6.6-2.6-12.6-6.7-17l4.6-4.6c.4.2.8.3 1.2.3h2.9c.2 0 .5-.1.7-.3l4.8-4.8c.2-.3.3-.7.1-1.1zm-9.4 27.4c0 12.7-10.4 23.1-23.2 23.1-12.7 0-23.1-10.3-23.1-23.1s10.3-23.2 23.1-23.2c6.1 0 11.6 2.3 15.7 6.2l-5.5 5.4c-2.7-2.4-6.3-3.8-10.2-3.8-4.1 0-8 1.6-10.9 4.5-2.9 2.9-4.5 6.8-4.5 10.9 0 8.5 6.9 15.4 15.4 15.4 4.1 0 8-1.6 10.9-4.5 2.9-2.9 4.5-6.8 4.5-10.9 0-4-1.4-7.5-3.8-10.2l5.5-5.5c3.7 4.1 6.1 9.6 6.1 15.7zm-22.9-.4c.2.2.4.3.7.3.2 0 .5-.1.7-.3l2.4-2.4c.5.8.8 1.7.8 2.7 0 2.7-2.2 4.8-4.8 4.8-2.7 0-4.8-2.2-4.8-4.8s2.2-4.8 4.8-4.8c1 0 1.9.3 2.7.8l-2.4 2.4c-.4.4-.4 1-.1 1.3zm3.7-5c-1.1-.8-2.5-1.4-4-1.4-3.7 0-6.7 3-6.7 6.7s3 6.7 6.7 6.7 6.7-3 6.7-6.7c0-1.5-.5-2.9-1.4-4l4.9-4.9c2.1 2.4 3.3 5.5 3.3 8.9 0 7.5-6.1 13.5-13.5 13.5-7.5 0-13.5-6.1-13.5-13.5 0-7.5 6.1-13.5 13.5-13.5 3.4 0 6.5 1.2 8.9 3.3l-4.9 4.9zm22.6-17.8h-2.5c-.5 0-.9-.4-.9-.9v-2.5l2.9-2.9v.6c0 1.5 1.3 2.8 2.8 2.8h.6l-2.9 2.9zm0 0"/></svg>