<svg xmlns="http://www.w3.org/2000/svg" viewBox="0 0 66 66" enable-background="new 0 0 66 66"><style type="text/css">.st0{fill:#262626;}</style><path class="st0" d="M59.3 6.4h-52.6c-2.5 0-4.6 2.1-4.6 4.6v34.8c0 2.6 2.1 4.6 4.6 4.6h20.8c0 1.5-.2 3.6-.8 5.1h-3.6c-.8 0-1.5.7-1.5 1.5 0 .9.7 1.5 1.5 1.5h19.9c.8 0 1.5-.7 1.5-1.5s-.7-1.5-1.5-1.5h-3.6c-.7-1.5-.8-3.6-.8-5.1h20.8c2.5 0 4.6-2.1 4.6-4.6v-34.8c-.1-2.5-2.2-4.6-4.7-4.6zm2.2 39.4c0 1.2-1 2.2-2.2 2.2h-52.6c-1.2 0-2.2-1-2.2-2.2v-3h57v3zm-57-5.4v-29.4c0-1.2 1-2.2 2.2-2.2h52.6c1.2 0 2.2 1 2.2 2.2v29.3l-57 .1zm0 0"/><path class="st0" d="M29.2 31.5c-1.1 0-2-.9-2-2.2v-9.6c0-1.3.8-2.2 2-2.2.4 0 .8.1 1.2.3l9 4.9c.8.4 1.2 1.1 1.2 1.8s-.4 1.4-1.2 1.8l-9 4.9c-.4.1-.8.3-1.2.3zm.2-11.8v9.5l8.7-4.8-8.7-4.7zM44.6 35.7h-22.6c-1.6 0-2.9-1.4-2.9-3.1v-16.3c0-1.7 1.3-3.1 2.9-3.1h22.6c1.6 0 2.9 1.4 2.9 3.1v16.3c0 1.7-1.3 3.1-2.9 3.1zm-22.6-20.2c-.2 0-.5.3-.5.7v16.3c0 .4.3.7.5.7h22.6c.2 0 .5-.3.5-.7v-16.2c0-.4-.3-.7-.5-.7h-22.6z"/></svg>