<svg xmlns="http://www.w3.org/2000/svg" viewBox="0 0 66 66" enable-background="new 0 0 66 66"><style type="text/css">.st0{fill:#262626;}</style><path class="st0" d="M64.3 62.6c-4.8 0-8.6-3.9-8.6-8.6 5.3-5.6 8.6-13.2 8.6-21.5 0-17.2-14-31.3-31.3-31.3-17.2 0-31.3 14-31.3 31.3s14 31.3 31.3 31.3c7.9 0 15.1-3 20.7-7.8.9 5 5.3 8.9 10.6 8.9.6 0 1.1-.5 1.1-1.1-.1-.7-.5-1.2-1.1-1.2zm-60.4-30.2c0-16 13-29.1 29.1-29.1s29.1 13 29.1 29.1-13 29.1-29.1 29.1-29.1-13-29.1-29.1zm0 0M33 5.5c-14.8 0-26.9 12.1-26.9 26.9 0 14.9 12.1 26.9 26.9 26.9 14.9.1 27-12 27-26.9 0-14.8-12.1-26.9-27-26.9zm0 51.7c-13.7 0-24.8-11.1-24.8-24.8 0-13.7 11.1-24.8 24.8-24.8 13.7 0 24.8 11.1 24.8 24.8 0 13.7-11.1 24.8-24.8 24.8zm0 0M45.9 24.9c-.4 0-.7 0-1.1.1l-.8.2c-.4.1-.8.2-1.2.4-.4.2-.7.4-1 .6-.3.2-.6.4-.9.7l-.2.1c-.3.2-.5.5-.7.8l-.1.2-.6.9c-.2.3-.3.7-.4 1 0 .1 0 .1-.1.2l-.3 1v.2c-.1.4-.1.8-.1 1.1 0 .4 0 .8.1 1.1v.2c.1.4.2.7.3 1 0 .1 0 .1.1.2l.4 1 .6.9c.1.2.1.2.1.3.2.3.4.5.7.8l.2.2.9.7 1 .6c.4.2.8.3 1.2.4l.8.2c.3 0 .7.1 1.1.1 4.2 0 7.5-3.4 7.5-7.5.1-4.3-3.3-7.7-7.5-7.7zm-1 7.5c0 1.7-.4 3.4-1.1 4.9l-.8-.4c-.1-.1-.2-.1-.2-.2l-.5-.4-.2-.2-.5-.6-.1-.1c-.2-.3-.3-.5-.4-.8l-.1-.3c-.1-.2-.2-.4-.2-.7 0-.1 0-.2-.1-.3-.1-.3-.1-.6-.1-1s0-.7.1-1c0-.1 0-.2.1-.3l.2-.7c0-.1.1-.2.1-.2.1-.3.3-.6.4-.8l.1-.1.5-.6.2-.2c.2-.2.3-.3.5-.4.1-.1.2-.1.2-.2.2-.2.5-.3.8-.4.7 1.6 1.1 3.3 1.1 5zm1 5.4c.7-1.7 1.1-3.5 1.1-5.4 0-1.9-.4-3.7-1.1-5.4 3 0 5.4 2.4 5.4 5.4 0 3-2.4 5.4-5.4 5.4zm0 0M26 37.1l.1-.2.6-.9c.2-.3.3-.7.4-1 0-.1 0-.1.1-.2l.3-1v-.2c.1-.4.1-.8.1-1.1 0-.4 0-.8-.1-1.1v-.2c-.1-.4-.2-.7-.3-1 0-.1 0-.1-.1-.2l-.4-1-.6-.9-.1-.2-.7-.8-.2-.2-.9-.7-1-.6h-.1c-.4-.2-.8-.3-1.2-.4l-.8-.2-1-.1c-4.2 0-7.5 3.4-7.5 7.5 0 4.2 3.4 7.5 7.5 7.5.4 0 .7 0 1-.1l.8-.2c.4-.1.8-.2 1.2-.4.4-.2.7-.4 1-.6.3-.2.6-.4.9-.7l.2-.2c.3-.1.6-.3.8-.6zm-.6-3.7c0 .1 0 .2-.1.3l-.2.7-.1.3c-.1.3-.3.6-.4.8l-.1.1-.5.6-.2.2c-.2.2-.3.3-.5.4l-.3.2c-.2.2-.5.3-.8.4-.7-1.5-1.1-3.2-1.1-4.9 0-1.7.4-3.4 1.1-4.9l.8.4.3.2.5.4.2.2.5.6.1.1c.2.3.3.5.4.8 0 .1.1.2.1.2.1.2.2.4.2.7 0 .1 0 .2.1.3.1.3.1.6.1 1s-.1.6-.1.9zm-10.7-1c0-3 2.4-5.4 5.4-5.4-.7 1.7-1.1 3.5-1.1 5.4 0 1.9.4 3.7 1.1 5.4-3 0-5.4-2.4-5.4-5.4zm0 0M25.5 20.6l.2.8c.1.4.2.8.4 1.2.2.4.4.7.6 1 .2.3.4.6.7.9l.1.2c.2.2.5.5.8.7l.2.1.9.6c.3.2.7.3 1 .4.1 0 .1 0 .2.1l1 .3h.2c.4.1.8.1 1.2.1.4 0 .8 0 1.1-.1h.2c.4-.1.7-.2 1-.3.1 0 .1 0 .2-.1l1-.4.9-.6.2-.1c.3-.2.5-.4.8-.7l.1-.2.7-.9.6-1c.2-.4.3-.8.4-1.2l.2-.8.1-1c0-4.2-3.4-7.5-7.5-7.5-4.2 0-7.5 3.4-7.5 7.5v1zm12 1.8l-.2.3-.4.5-.2.2-.6.5-.1.1c-.3.2-.5.3-.8.4l-.3.1c-.2.1-.4.2-.7.2-.1 0-.2 0-.3.1-.3.1-.6.1-1 .1-.3 0-.7 0-1-.1-.1 0-.2 0-.3-.1l-.7-.2c-.1 0-.2-.1-.2-.1-.3-.1-.6-.3-.8-.4l-.1-.1-.6-.5-.2-.2-.4-.5-.2-.3c-.2-.2-.3-.5-.4-.8 3.1-1.4 6.8-1.4 9.9 0-.1.3-.2.6-.4.8zm-4.5-8.3c3 0 5.4 2.4 5.4 5.4-3.4-1.4-7.4-1.4-10.8 0 0-3 2.4-5.4 5.4-5.4zm0 0M40.5 44.3l-.2-.8c-.1-.4-.2-.8-.4-1.2-.2-.4-.4-.7-.6-1-.2-.3-.4-.6-.7-.9l-.2-.2c-.2-.3-.5-.5-.8-.7l-.2-.1-.9-.6c-.3-.2-.7-.3-1-.4-.1 0-.1 0-.2-.1l-1-.3h-.2c-.4-.1-.8-.1-1.1-.1-.4 0-.8 0-1.1.1h-.2c-.4.1-.7.2-1 .3-.1 0-.1 0-.2.1l-1 .4-.9.6-.2.1c-.3.2-.5.4-.8.7-.1.1-.1.1-.1.2l-.7.9-.6 1c-.2.4-.3.8-.4 1.2l-.2.8c0 .3-.1.7-.1 1.1 0 4.2 3.4 7.5 7.5 7.5 4.2 0 7.5-3.4 7.5-7.5.1-.4 0-.8 0-1.1zm-12-1.9c.1-.1.1-.2.2-.2l.4-.5.2-.2.6-.5.1-.1c.3-.2.5-.3.8-.4.1 0 .2-.1.2-.1.2-.1.4-.2.7-.2.1 0 .2 0 .3-.1.3-.1.6-.1 1-.1.3 0 .7 0 1 .1.1 0 .2 0 .3.1l.7.2.3.1c.3.1.6.3.8.4l.1.1.6.5.2.2c.2.2.3.3.4.5.1.1.1.2.2.2.2.2.3.5.4.8-3.1 1.4-6.8 1.4-9.9 0 .1-.3.2-.5.4-.8zm4.5 8.3c-3 0-5.4-2.4-5.4-5.4 1.7.7 3.5 1.1 5.4 1.1 1.9 0 3.7-.4 5.4-1.1 0 3-2.4 5.4-5.4 5.4zm0 0"/></svg>