<svg xmlns="http://www.w3.org/2000/svg" viewBox="0 0 102 102" enable-background="new 0 0 102 102"><style type="text/css">.st0{fill:#BABABA;}</style><path class="st0" d="M80.3 51h-7.7v-14.2c2.7-.7 4.6-3.2 4.6-6.1v-19.7c0-3.5-2.8-6.3-6.3-6.3h-39.8c-3.5 0-6.3 2.8-6.3 6.3v19.8c0 2.9 2 5.3 4.6 6.1v14.1h-7.7v9.3h4.6v35.5c0 .9.7 1.5 1.5 1.5.9 0 1.5-.7 1.5-1.5v-26.3h3.1v23.2c0 .9.7 1.5 1.5 1.5.9 0 1.5-.7 1.5-1.5v-23.2h30.9v23.2c0 .9.7 1.5 1.5 1.5.9 0 1.5-.7 1.5-1.5v-23.2h3.1v26.2c0 .9.7 1.5 1.5 1.5.9 0 1.5-.7 1.5-1.5v-35.4h4.6v-9.3zm-52.5-20.2v-19.8c0-1.8 1.5-3.2 3.3-3.2h39.8c1.8 0 3.2 1.5 3.2 3.2v19.8c0 1.8-1.5 3.2-3.2 3.2h-39.8c-1.8 0-3.3-1.4-3.3-3.2zm4.7 6.3h37.1v13.9h-37.1v-13.9zm-3.1 29.3v-6.2h3.1v6.2h-3.1zm6.2 0v-6.2h30.9v6.2h-30.9zm37 0h-3.1v-6.2h3.1v6.2zm4.7-9.2h-52.5v-3.1h52.5v3.1zm0 0M43.3 21.7h15.4c2.6 0 4.6-2.1 4.6-4.6 0-2.5-2.1-4.6-4.6-4.6h-15.4c-2.6 0-4.6 2.1-4.6 4.6 0 2.5 2 4.6 4.6 4.6zm0-6.2h15.4c.9 0 1.5.7 1.5 1.5 0 .9-.7 1.5-1.5 1.5h-15.4c-.9 0-1.5-.7-1.5-1.5-.1-.8.6-1.5 1.5-1.5zm0 0"/></svg>