<?xml version="1.0" encoding="utf-8"?>
<!-- Generator: Adobe Illustrator 19.2.0, SVG Export Plug-In . SVG Version: 6.00 Build 0)  -->
<svg version="1.1" id="Layer_1" xmlns="http://www.w3.org/2000/svg" xmlns:xlink="http://www.w3.org/1999/xlink" x="0px" y="0px"
	 viewBox="0 0 66 66" style="enable-background:new 0 0 66 66;" xml:space="preserve">
<style type="text/css">
	.st0{clip-path:url(#SVGID_2_);fill:#262626;}
</style>
<g>
	<g>
		<defs>
			<rect id="SVGID_1_" x="6.9" y="2.3" width="57.7" height="57.9"/>
		</defs>
		<clipPath id="SVGID_2_">
			<use xlink:href="#SVGID_1_"  style="overflow:visible;"/>
		</clipPath>
		<path class="st0" d="M64.4,7.7c-0.1-0.3-0.5-0.6-0.9-0.6h-2.9c-0.5,0-0.9-0.4-0.9-0.9V3.3c0-0.4-0.2-0.7-0.6-0.9
			c-0.3-0.1-0.7-0.1-1,0.2l-4.8,4.8c-0.2,0.2-0.3,0.4-0.3,0.7V11c0,0.4,0.1,0.8,0.3,1.2l-4.6,4.6c-4.5-4.2-10.5-6.7-17-6.7
			c-6.7,0-12.9,2.6-17.6,7.4c-4.7,4.7-7.3,11-7.3,17.7c0,6.7,2.6,12.9,7.3,17.6c4.7,4.7,11,7.3,17.6,7.3c6.7,0,13-2.6,17.7-7.3
			c4.7-4.7,7.4-11,7.4-17.6c0-6.6-2.6-12.6-6.7-17l4.6-4.6c0.4,0.2,0.8,0.3,1.2,0.3h2.9c0.2,0,0.5-0.1,0.7-0.3l4.8-4.8
			C64.5,8.5,64.6,8.1,64.4,7.7L64.4,7.7z M55,35.1c0,12.7-10.4,23.1-23.2,23.1c-12.7,0-23.1-10.3-23.1-23.1
			c0-12.8,10.3-23.2,23.1-23.2c6.1,0,11.6,2.3,15.7,6.2L42,23.5c-2.7-2.4-6.3-3.8-10.2-3.8c-4.1,0-8,1.6-10.9,4.5
			c-2.9,2.9-4.5,6.8-4.5,10.9c0,8.5,6.9,15.4,15.4,15.4c4.1,0,8-1.6,10.9-4.5c2.9-2.9,4.5-6.8,4.5-10.9c0-4-1.4-7.5-3.8-10.2
			l5.5-5.5C52.6,23.5,55,29,55,35.1L55,35.1z M32.1,34.7c0.2,0.2,0.4,0.3,0.7,0.3c0.2,0,0.5-0.1,0.7-0.3l2.4-2.4
			c0.5,0.8,0.8,1.7,0.8,2.7c0,2.7-2.2,4.8-4.8,4.8c-2.7,0-4.8-2.2-4.8-4.8s2.2-4.8,4.8-4.8c1,0,1.9,0.3,2.7,0.8l-2.4,2.4
			C31.8,33.8,31.8,34.4,32.1,34.7L32.1,34.7z M35.8,29.7c-1.1-0.8-2.5-1.4-4-1.4c-3.7,0-6.7,3-6.7,6.7c0,3.7,3,6.7,6.7,6.7
			c3.7,0,6.7-3,6.7-6.7c0-1.5-0.5-2.9-1.4-4l4.9-4.9c2.1,2.4,3.3,5.5,3.3,8.9c0,7.5-6.1,13.5-13.5,13.5c-7.5,0-13.5-6.1-13.5-13.5
			c0-7.5,6.1-13.5,13.5-13.5c3.4,0,6.5,1.2,8.9,3.3L35.8,29.7z M58.4,11.9h-2.5c-0.5,0-0.9-0.4-0.9-0.9V8.5l2.9-2.9v0.6
			c0,1.5,1.3,2.8,2.8,2.8h0.6L58.4,11.9z M58.4,11.9"/>
	</g>
</g>
</svg>
