<?xml version="1.0" encoding="utf-8"?>
<!-- Generator: Adobe Illustrator 19.2.0, SVG Export Plug-In . SVG Version: 6.00 Build 0)  -->
<svg version="1.1" id="Layer_1" xmlns="http://www.w3.org/2000/svg" xmlns:xlink="http://www.w3.org/1999/xlink" x="0px" y="0px"
	 viewBox="0 0 66 66" style="enable-background:new 0 0 66 66;" xml:space="preserve">
<style type="text/css">
	.st0{fill:#262626;}
</style>
<g>
	<path class="st0" d="M63,20h-5.1c-2.2-5.1-7.4-8.7-13.3-8.7c-5.9,0-11,3.6-13.3,8.7H16.6v-2.9c0-0.5-0.4-1-1-1H5.9
		c-0.5,0-1,0.4-1,1V20H3c-0.5,0-1,0.4-1,1v24.2c0,0.5,0.4,1,1,1H5V49c0,0.5,0.4,1,1,1c0.5,0,1-0.4,1-1v-2.9h52.2V49c0,0.5,0.4,1,1,1
		c0.5,0,1-0.4,1-1v-2.9H63c0.5,0,1-0.4,1-1V20.9C63.9,20.4,63.5,20,63,20L63,20z M32.8,21.6l0.2-0.6c1.9-4.5,6.4-7.7,11.6-7.7
		c5.2,0,9.7,3.2,11.6,7.7l0.2,0.6c0.5,1.3,0.7,2.7,0.7,4.2c0,6.9-5.6,12.6-12.6,12.6S32,32.7,32,25.8C32,24.3,32.3,22.9,32.8,21.6
		L32.8,21.6z M6.9,18h7.7V20H6.9V18z M62,44.1H4V28.7l1,0c0.5,0,1-0.4,1-1c0-0.5-0.4-1-1-1h0l-1,0v-4.8h26.6
		c-0.3,1.2-0.5,2.5-0.5,3.9c0,0.3,0,0.6,0,1h-3.9c-0.5,0-1,0.4-1,1c0,0.5,0.4,1,1,1h4.2c1.3,6.6,7.2,11.6,14.2,11.6
		c7,0,12.9-5,14.2-11.6H62V44.1z M62,26.7h-2.9c0-0.3,0-0.6,0-1c0-1.3-0.2-2.6-0.5-3.9H62V26.7z M62,26.7"/>
	<path class="st0" d="M44.6,36.4c5.9,0,10.6-4.8,10.6-10.6c0-5.9-4.8-10.6-10.6-10.6c-5.9,0-10.6,4.8-10.6,10.6
		C34,31.6,38.7,36.4,44.6,36.4L44.6,36.4z M44.6,17.1c4.8,0,8.7,3.9,8.7,8.7c0,4.8-3.9,8.7-8.7,8.7c-4.8,0-8.7-3.9-8.7-8.7
		C35.9,21,39.8,17.1,44.6,17.1L44.6,17.1z M44.6,17.1"/>
	<path class="st0" d="M7.9,29.6c0,0.5,0.4,1,1,1h4.8c0.5,0,1-0.4,1-1v-3.9c0-0.5-0.4-1-1-1H8.8c-0.5,0-1,0.4-1,1c0,0,0,0.1,0,0.1
		V29.6z M9.8,26.7h2.9v1.9H9.8V26.7z M9.8,26.7"/>
	<path class="st0" d="M16.6,29.6c0,0.5,0.4,1,1,1h4.8c0.5,0,1-0.4,1-1v-3.9c0-0.5-0.4-1-1-1h-4.8c-0.5,0-1,0.4-1,1c0,0,0,0.1,0,0.1
		V29.6z M18.5,26.7h2.9v1.9h-2.9V26.7z M18.5,26.7"/>
	<path class="st0" d="M8.8,34.5h19.3c0.5,0,1-0.4,1-1c0-0.5-0.4-1-1-1H8.8c-0.5,0-1,0.4-1,1C7.9,34,8.3,34.5,8.8,34.5L8.8,34.5z
		 M8.8,34.5"/>
	<path class="st0" d="M8.8,38.3h22.2c0.5,0,1-0.4,1-1c0-0.5-0.4-1-1-1H8.8c-0.5,0-1,0.4-1,1C7.9,37.9,8.3,38.3,8.8,38.3L8.8,38.3z
		 M8.8,38.3"/>
	<path class="st0" d="M34,40.3H8.8c-0.5,0-1,0.4-1,1c0,0.5,0.4,1,1,1H34c0.5,0,1-0.4,1-1C34.9,40.7,34.5,40.3,34,40.3L34,40.3z
		 M34,40.3"/>
	<path class="st0" d="M44.6,32.5c3.7,0,6.8-3,6.8-6.8c0-0.5-0.4-1-1-1c-0.5,0-1,0.4-1,1c0,2.7-2.2,4.8-4.8,4.8c-0.5,0-1,0.4-1,1
		C43.6,32.1,44.1,32.5,44.6,32.5L44.6,32.5z M44.6,32.5"/>
</g>
</svg>
