<?xml version="1.0" encoding="utf-8"?>
<!-- Generator: Adobe Illustrator 19.2.0, SVG Export Plug-In . SVG Version: 6.00 Build 0)  -->
<svg version="1.1" id="Layer_1" xmlns="http://www.w3.org/2000/svg" xmlns:xlink="http://www.w3.org/1999/xlink" x="0px" y="0px"
	 viewBox="0 0 66 66" style="enable-background:new 0 0 66 66;" xml:space="preserve">
<style type="text/css">
	.st0{fill:#262626;}
</style>
<g>
	<path class="st0" d="M58,49c-1-3.1-4.5-5.8-9.6-7.7l1.7-1c2.8-1.3,4.5-3.2,5-5.8c0.4-2.1-0.3-4.1-1.9-5.1c-1.3-0.8-2.9-0.9-4.4-0.2
		v-1.6c0-1.4-0.9-3.4-4.9-5c-2.9-1.1-6.7-1.7-10.8-1.7c-4.1,0-7.9,0.6-10.8,1.7c-4.1,1.6-4.9,3.6-4.9,5v6.7c0,2.3,0.4,4.5,1.3,6.6
		c-5.6,1.9-9.5,4.8-10.6,8.1c-0.6,1.9-0.3,3.9,0.9,5.7c1.6,2.6,4.8,4.7,9.3,6.2c4.3,1.5,9.5,2.3,14.9,2.3c5.4,0,10.6-0.8,14.9-2.3
		c4.5-1.5,7.6-3.7,9.3-6.2C58.4,52.9,58.7,50.9,58,49L58,49z M48.8,34.3v-2.8c1.1-0.8,2.4-1,3.4-0.3c0.9,0.6,1.3,1.7,1,3v0
		c-0.3,1.9-1.6,3.3-3.9,4.3c0,0-0.1,0-0.1,0.1l-1.2,0.7C48.5,37.6,48.8,36,48.8,34.3L48.8,34.3z M22.9,24.5c2.7-1,6.3-1.6,10.2-1.6
		c3.9,0,7.5,0.6,10.2,1.6c2.3,0.9,3.7,2,3.7,3.1c0,0.8-0.9,1.7-2.6,2.5c0-0.1-0.1-0.1-0.1-0.1c-1.7-2.4-7.1-3.5-11.7-3.5h0
		c-4.3,0.1-9.4,1.2-10.7,3.7c-1.7-0.8-2.6-1.7-2.6-2.5C19.2,26.5,20.6,25.4,22.9,24.5L22.9,24.5z M42.4,30.8
		c-2.3,0.8-5.5,1.3-9.4,1.3c-3.9,0-7-0.6-9.4-1.3c1-1.1,4.4-2.2,8.9-2.4C37.3,28.4,41.1,29.6,42.4,30.8L42.4,30.8z M19.2,30.9
		c0.7,0.6,1.7,1.1,3,1.6c2.9,1.1,6.7,1.7,10.8,1.7c4.1,0,7.9-0.6,10.8-1.7c1.3-0.5,2.3-1,3-1.6v3.5c0,8-6.2,14.6-13.8,14.6
		s-13.8-6.5-13.8-14.6V30.9z M26.5,49.5c2,1,4.2,1.5,6.5,1.5c2.3,0,4.5-0.5,6.5-1.5v2.1c-4,2.4-9.1,2.4-13,0V49.5z M55.6,53.5
		C55.6,53.5,55.6,53.5,55.6,53.5C52.8,58,43.5,61.1,33,61.1c-10.5,0-19.8-3.1-22.6-7.6c0,0,0,0,0,0c-0.9-1.3-1.1-2.6-0.6-3.9
		c0.9-2.7,4.5-5.3,9.6-6.9c0.7,1.2,1.5,2.3,2.4,3.3c0.8,0.9,1.8,1.7,2.7,2.3v3.7c0,0.3,0.2,0.7,0.4,0.8c2.4,1.6,5.2,2.4,8,2.4
		c2.8,0,5.6-0.8,8-2.4c0.3-0.2,0.4-0.5,0.4-0.8v-3.7c1-0.7,1.9-1.4,2.7-2.3c0.9-1,1.7-2.1,2.4-3.3c5.2,1.6,8.7,4.2,9.7,6.9
		C56.7,50.9,56.5,52.2,55.6,53.5L55.6,53.5z M55.6,53.5"/>
	<path class="st0" d="M28.7,17.4c0.2,0,0.3,0,0.4-0.1c0.5-0.3,0.6-0.9,0.4-1.4c-0.4-0.8-0.9-2.2-0.9-2.7c0,0,0,0,0-0.1
		c0.1-0.8,0.6-1.4,1.3-2.2c0.8-0.9,1.6-1.9,1.8-3.2c0,0,0-0.1,0-0.1c0-1.4-1-3.4-1.2-3.8c-0.3-0.5-0.8-0.7-1.3-0.4
		c-0.5,0.3-0.6,0.9-0.4,1.4c0.4,0.8,1,2.2,1,2.8c-0.1,0.7-0.7,1.4-1.3,2.1c-0.8,0.9-1.7,1.9-1.8,3.4c-0.2,1.4,0.9,3.5,1.1,3.9
		C28.1,17.2,28.4,17.4,28.7,17.4L28.7,17.4z M28.7,17.4"/>
	<path class="st0" d="M37.3,17.4c0.2,0,0.3,0,0.5-0.2c0.4-0.3,0.6-0.9,0.3-1.4c-0.5-0.9-1-2.2-1-2.7c0,0,0,0,0-0.1
		c0.1-0.7,0.7-1.4,1.3-2.1c0.8-0.9,1.7-1.9,1.8-3.4c0.2-1.5-1-3.6-1.2-4c-0.3-0.5-0.9-0.6-1.3-0.3c-0.4,0.3-0.6,0.9-0.3,1.4
		c0.5,0.9,1,2.2,1,2.7c0,0,0,0,0,0.1c-0.1,0.7-0.7,1.4-1.3,2.2c-0.8,0.9-1.7,1.9-1.8,3.4c-0.2,1.5,1,3.6,1.2,4
		C36.7,17.2,37,17.4,37.3,17.4L37.3,17.4z M37.3,17.4"/>
</g>
</svg>
