<svg xmlns="http://www.w3.org/2000/svg" viewBox="0 0 102 102" enable-background="new 0 0 102 102"><style type="text/css">.st0{fill:#BABABA;}</style><path class="st0" d="M100.5 35.9c-13.2-13.2-30.7-20.4-49.4-20.4s-36.2 7.2-49.4 20.4c-.7.7-.7 1.9 0 2.6.7.7 1.9.7 2.6 0 12.5-12.5 29.1-19.4 46.8-19.4 17.7 0 34.3 6.9 46.8 19.4.4.4.8.5 1.3.5s.9-.2 1.3-.5c.7-.7.7-1.9 0-2.6zm0 0M12.4 46.6c-.7.7-.7 1.9 0 2.6.4.4.8.5 1.3.5s.9-.2 1.3-.5c19.9-19.9 52.3-19.9 72.2 0 .7.7 1.9.7 2.6 0 .7-.7.7-1.9 0-2.6-21.3-21.3-56-21.3-77.4 0zm0 0M51.1 45.7c-10.6 0-20.5 4.1-28 11.6-.7.7-.7 1.9 0 2.6.7.7 1.9.7 2.6 0 6.8-6.8 15.8-10.5 25.4-10.5 9.6 0 18.6 3.7 25.4 10.5.4.4.8.5 1.3.5s.9-.2 1.3-.5c.7-.7.7-1.9 0-2.6-7.5-7.5-17.4-11.6-28-11.6zm0 0M51.1 62.8c-6.6 0-11.9 5.3-11.9 11.9 0 6.6 5.3 11.9 11.9 11.9 6.6 0 11.9-5.3 11.9-11.9 0-6.6-5.3-11.9-11.9-11.9zm0 20.2c-4.6 0-8.3-3.7-8.3-8.3 0-4.6 3.7-8.3 8.3-8.3 4.6 0 8.3 3.7 8.3 8.3 0 4.6-3.7 8.3-8.3 8.3zm0 0"/></svg>