<?xml version="1.0" encoding="utf-8"?>
<!-- Generator: Adobe Illustrator 19.2.0, SVG Export Plug-In . SVG Version: 6.00 Build 0)  -->
<svg version="1.1" id="Layer_1" xmlns="http://www.w3.org/2000/svg" xmlns:xlink="http://www.w3.org/1999/xlink" x="0px" y="0px"
	 viewBox="0 0 102 102" style="enable-background:new 0 0 102 102;" xml:space="preserve">
<style type="text/css">
	.st0{fill:#BABABA;}
</style>
<g>
	<path class="st0" d="M94.1,77.2c-1.8-5.1-7.6-9.7-16.3-12.8l2.9-1.6c4.7-2.1,7.7-5.4,8.4-9.5c0.7-3.5-0.5-6.8-3.3-8.4
		c-2.2-1.4-5-1.5-7.5-0.4v-2.6c0-2.3-1.4-5.7-8.4-8.3c-4.9-1.8-11.4-2.8-18.4-2.8c-7,0-13.5,1-18.4,2.8c-6.9,2.6-8.4,5.9-8.4,8.3V53
		c0,3.8,0.7,7.5,2.2,10.8C17.4,66.9,10.9,71.7,9,77.2c-1.1,3.2-0.6,6.5,1.5,9.5c2.7,4.2,8.1,7.8,15.7,10.3
		c7.3,2.4,16.1,3.7,25.3,3.7c9.2,0,18-1.3,25.3-3.7c7.6-2.5,13-6.1,15.7-10.3C94.7,83.7,95.2,80.4,94.1,77.2L94.1,77.2z M78.3,53
		v-4.7c1.9-1.4,4.1-1.6,5.8-0.5c1.6,1,2.2,2.8,1.8,4.9v0c-0.6,3.1-2.8,5.5-6.6,7.1c-0.1,0-0.1,0-0.2,0.1l-2,1.1
		C77.9,58.4,78.3,55.7,78.3,53L78.3,53z M34.3,36.7c4.5-1.7,10.7-2.6,17.3-2.6c6.6,0,12.7,0.9,17.3,2.6c3.9,1.5,6.2,3.4,6.2,5.1
		c0,1.3-1.5,2.8-4.3,4.1c0-0.1-0.1-0.2-0.1-0.2c-2.8-4-12-5.8-19.8-5.8h0c-7.4,0.2-15.9,2-18.2,6.1c-2.9-1.3-4.4-2.8-4.4-4.2
		C28.1,40.1,30.4,38.2,34.3,36.7L34.3,36.7z M67.5,47.2c-4,1.3-9.4,2.2-16,2.2c-6.5,0-12-0.9-15.9-2.2c1.7-1.8,7.4-3.7,15.1-4
		C58.9,43.3,65.4,45.2,67.5,47.2L67.5,47.2z M28.1,47.3c1.2,0.9,2.9,1.8,5.1,2.6c4.9,1.8,11.4,2.8,18.4,2.8c6.9,0,13.4-1,18.4-2.8
		c2.2-0.8,3.9-1.7,5.1-2.6V53c0,13.3-10.5,24.1-23.5,24.1S28.1,66.3,28.1,53V47.3z M40.5,78c3.4,1.6,7.2,2.4,11.1,2.4
		c3.9,0,7.6-0.8,11.1-2.4v3.4c-6.7,4-15.4,4-22.1,0V78z M89.9,84.7C89.9,84.8,89.9,84.8,89.9,84.7c-4.7,7.4-20.5,12.6-38.4,12.6
		c-17.9,0-33.6-5.2-38.3-12.6c0,0,0,0,0,0c-1.5-2.1-1.8-4.3-1.1-6.4c1.5-4.5,7.6-8.7,16.4-11.4c1.1,2,2.5,3.8,4.1,5.5
		c1.4,1.5,3,2.8,4.7,3.8v6.2c0,0.6,0.3,1.1,0.7,1.4c4.1,2.7,8.8,4,13.6,4c4.7,0,9.5-1.3,13.6-4c0.5-0.3,0.7-0.8,0.7-1.4v-6.2
		c1.7-1.1,3.2-2.4,4.7-3.8c1.6-1.6,3-3.5,4.1-5.4c8.8,2.7,14.9,6.9,16.4,11.4C91.8,80.5,91.4,82.6,89.9,84.7L89.9,84.7z M89.9,84.7"
		/>
	<path class="st0" d="M44.3,24.9c0.3,0,0.5,0,0.8-0.2c0.8-0.4,1.1-1.5,0.6-2.3c-0.7-1.3-1.6-3.6-1.4-4.5c0,0,0-0.1,0-0.1
		c0.1-1.3,1.1-2.4,2.3-3.7c1.3-1.4,2.8-3.1,3.1-5.4c0-0.1,0-0.2,0-0.2c0-2.2-1.7-5.7-2.1-6.3c-0.4-0.8-1.4-1.1-2.2-0.7
		C44.6,2,44.3,3,44.7,3.8c0.7,1.3,1.6,3.6,1.7,4.6c-0.2,1.2-1.2,2.3-2.3,3.5c-1.4,1.5-2.9,3.2-3.1,5.6c-0.3,2.4,1.5,5.8,1.8,6.5
		C43.1,24.6,43.7,24.9,44.3,24.9L44.3,24.9z M44.3,24.9"/>
	<path class="st0" d="M58.9,24.9c0.3,0,0.6-0.1,0.8-0.3c0.8-0.5,1-1.5,0.5-2.3c-0.9-1.5-1.8-3.6-1.7-4.4c0,0,0-0.1,0-0.1
		c0.1-1.2,1.1-2.4,2.3-3.6c1.4-1.5,2.9-3.2,3.1-5.6c0.3-2.4-1.7-5.9-2.1-6.6c-0.5-0.8-1.5-1-2.2-0.5c-0.8,0.5-1,1.5-0.5,2.3
		c0.9,1.5,1.8,3.6,1.7,4.4c0,0,0,0.1,0,0.1c-0.1,1.2-1.1,2.4-2.3,3.6c-1.4,1.5-2.9,3.2-3.1,5.6c-0.3,2.4,1.7,5.9,2.1,6.6
		C57.8,24.6,58.3,24.9,58.9,24.9L58.9,24.9z M58.9,24.9"/>
</g>
</svg>
