<?xml version="1.0" encoding="utf-8"?>
<!-- Generator: Adobe Illustrator 19.2.0, SVG Export Plug-In . SVG Version: 6.00 Build 0)  -->
<svg version="1.1" id="Layer_1" xmlns="http://www.w3.org/2000/svg" xmlns:xlink="http://www.w3.org/1999/xlink" x="0px" y="0px"
	 viewBox="0 0 102 102" style="enable-background:new 0 0 102 102;" xml:space="preserve">
<style type="text/css">
	.st0{fill:#BABABA;}
</style>
<g>
	<path class="st0" d="M80.3,51h-7.7V36.8c2.7-0.7,4.6-3.2,4.6-6.1V11c0-3.5-2.8-6.3-6.3-6.3H31.1c-3.5,0-6.3,2.8-6.3,6.3v19.8
		c0,2.9,2,5.3,4.6,6.1V51h-7.7v9.3h4.6v35.5c0,0.9,0.7,1.5,1.5,1.5c0.9,0,1.5-0.7,1.5-1.5V69.5h3.1v23.2c0,0.9,0.7,1.5,1.5,1.5
		c0.9,0,1.5-0.7,1.5-1.5V69.5h30.9v23.2c0,0.9,0.7,1.5,1.5,1.5c0.9,0,1.5-0.7,1.5-1.5V69.5h3.1v26.2c0,0.9,0.7,1.5,1.5,1.5
		c0.9,0,1.5-0.7,1.5-1.5V60.3h4.6V51z M27.8,30.8V11c0-1.8,1.5-3.2,3.3-3.2h39.8c1.8,0,3.2,1.5,3.2,3.2v19.8c0,1.8-1.5,3.2-3.2,3.2
		H31.1C29.3,34,27.8,32.6,27.8,30.8L27.8,30.8z M32.5,37.1h37.1V51H32.5V37.1z M29.4,66.4v-6.2h3.1v6.2H29.4z M35.6,66.4v-6.2h30.9
		v6.2H35.6z M72.6,66.4h-3.1v-6.2h3.1V66.4z M77.3,57.2H24.8v-3.1h52.5V57.2z M77.3,57.2"/>
	<path class="st0" d="M43.3,21.7h15.4c2.6,0,4.6-2.1,4.6-4.6c0-2.5-2.1-4.6-4.6-4.6H43.3c-2.6,0-4.6,2.1-4.6,4.6
		C38.7,19.6,40.7,21.7,43.3,21.7L43.3,21.7z M43.3,15.5h15.4c0.9,0,1.5,0.7,1.5,1.5c0,0.9-0.7,1.5-1.5,1.5H43.3
		c-0.9,0-1.5-0.7-1.5-1.5C41.7,16.2,42.4,15.5,43.3,15.5L43.3,15.5z M43.3,15.5"/>
</g>
</svg>
