<?xml version="1.0" encoding="utf-8"?>
<!-- Generator: Adobe Illustrator 19.2.0, SVG Export Plug-In . SVG Version: 6.00 Build 0)  -->
<svg version="1.1" id="Layer_1" xmlns="http://www.w3.org/2000/svg" xmlns:xlink="http://www.w3.org/1999/xlink" x="0px" y="0px"
	 viewBox="0 0 66 66" style="enable-background:new 0 0 66 66;" xml:space="preserve">
<style type="text/css">
	.st0{fill:#262626;}
</style>
<g>
	<path class="st0" d="M64.3,62.6c-4.8,0-8.6-3.9-8.6-8.6c0,0,0,0,0,0c5.3-5.6,8.6-13.2,8.6-21.5c0-17.2-14-31.3-31.3-31.3
		c-17.2,0-31.3,14-31.3,31.3s14,31.3,31.3,31.3c7.9,0,15.1-3,20.7-7.8c0.9,5,5.3,8.9,10.6,8.9c0.6,0,1.1-0.5,1.1-1.1
		C65.3,63.1,64.9,62.6,64.3,62.6L64.3,62.6z M3.9,32.4c0-16,13-29.1,29.1-29.1s29.1,13,29.1,29.1S49.1,61.5,33,61.5
		S3.9,48.5,3.9,32.4L3.9,32.4z M3.9,32.4"/>
	<path class="st0" d="M33,5.5C18.2,5.5,6.1,17.6,6.1,32.4c0,14.9,12.1,26.9,26.9,26.9C47.9,59.4,60,47.3,60,32.4
		C60,17.6,47.9,5.5,33,5.5L33,5.5z M33,57.2c-13.7,0-24.8-11.1-24.8-24.8C8.2,18.7,19.3,7.6,33,7.6c13.7,0,24.8,11.1,24.8,24.8
		C57.8,46.1,46.7,57.2,33,57.2L33,57.2z M33,57.2"/>
	<path class="st0" d="M45.9,24.9c-0.4,0-0.7,0-1.1,0.1l0,0l-0.8,0.2c0,0,0,0,0,0c-0.4,0.1-0.8,0.2-1.2,0.4c0,0,0,0,0,0
		c-0.4,0.2-0.7,0.4-1,0.6c0,0,0,0,0,0c-0.3,0.2-0.6,0.4-0.9,0.7c-0.1,0-0.1,0.1-0.2,0.1c-0.3,0.2-0.5,0.5-0.7,0.8
		c0,0.1-0.1,0.1-0.1,0.2c-0.2,0.3-0.4,0.6-0.6,0.9c0,0,0,0,0,0c-0.2,0.3-0.3,0.7-0.4,1c0,0.1,0,0.1-0.1,0.2c-0.1,0.3-0.2,0.7-0.3,1
		c0,0.1,0,0.1,0,0.2c-0.1,0.4-0.1,0.8-0.1,1.1c0,0.4,0,0.8,0.1,1.1c0,0.1,0,0.1,0,0.2c0.1,0.4,0.2,0.7,0.3,1c0,0.1,0,0.1,0.1,0.2
		c0.1,0.3,0.3,0.7,0.4,1c0,0,0,0,0,0c0.2,0.3,0.4,0.6,0.6,0.9C40,37,40,37,40,37.1c0.2,0.3,0.4,0.5,0.7,0.8c0.1,0.1,0.1,0.1,0.2,0.2
		c0.3,0.2,0.6,0.5,0.9,0.7l0,0c0.3,0.2,0.7,0.4,1,0.6c0,0,0,0,0,0c0.4,0.2,0.8,0.3,1.2,0.4c0,0,0,0,0,0l0.8,0.2l0,0
		c0.3,0,0.7,0.1,1.1,0.1c4.2,0,7.5-3.4,7.5-7.5C53.5,28.3,50.1,24.9,45.9,24.9L45.9,24.9z M44.9,32.4c0,1.7-0.4,3.4-1.1,4.9
		c-0.3-0.1-0.5-0.3-0.8-0.4c-0.1-0.1-0.2-0.1-0.2-0.2c-0.2-0.1-0.3-0.3-0.5-0.4c-0.1-0.1-0.1-0.1-0.2-0.2c-0.2-0.2-0.3-0.4-0.5-0.6
		c0,0-0.1-0.1-0.1-0.1c-0.2-0.3-0.3-0.5-0.4-0.8c0-0.1-0.1-0.2-0.1-0.3c-0.1-0.2-0.2-0.4-0.2-0.7c0-0.1,0-0.2-0.1-0.3
		c-0.1-0.3-0.1-0.6-0.1-1s0-0.7,0.1-1c0-0.1,0-0.2,0.1-0.3c0.1-0.2,0.1-0.5,0.2-0.7c0-0.1,0.1-0.2,0.1-0.2c0.1-0.3,0.3-0.6,0.4-0.8
		c0,0,0.1-0.1,0.1-0.1c0.2-0.2,0.3-0.4,0.5-0.6c0.1-0.1,0.1-0.1,0.2-0.2c0.2-0.2,0.3-0.3,0.5-0.4c0.1-0.1,0.2-0.1,0.2-0.2
		c0.2-0.2,0.5-0.3,0.8-0.4C44.5,29,44.9,30.7,44.9,32.4L44.9,32.4z M45.9,37.8C45.9,37.8,45.9,37.8,45.9,37.8
		c0.7-1.7,1.1-3.5,1.1-5.4c0-1.9-0.4-3.7-1.1-5.4c0,0,0,0,0,0c3,0,5.4,2.4,5.4,5.4C51.3,35.4,48.9,37.8,45.9,37.8L45.9,37.8z
		 M45.9,37.8"/>
	<path class="st0" d="M26,37.1c0-0.1,0.1-0.1,0.1-0.2c0.2-0.3,0.4-0.6,0.6-0.9c0,0,0,0,0,0c0.2-0.3,0.3-0.7,0.4-1
		c0-0.1,0-0.1,0.1-0.2c0.1-0.3,0.2-0.7,0.3-1c0-0.1,0-0.1,0-0.2c0.1-0.4,0.1-0.8,0.1-1.1c0-0.4,0-0.8-0.1-1.1c0-0.1,0-0.1,0-0.2
		c-0.1-0.4-0.2-0.7-0.3-1c0-0.1,0-0.1-0.1-0.2c-0.1-0.3-0.3-0.7-0.4-1c0,0,0,0,0,0c-0.2-0.3-0.4-0.6-0.6-0.9c0-0.1-0.1-0.1-0.1-0.2
		c-0.2-0.3-0.5-0.5-0.7-0.8c-0.1-0.1-0.1-0.1-0.2-0.2c-0.3-0.2-0.6-0.5-0.9-0.7c0,0,0,0,0,0c-0.3-0.2-0.7-0.4-1-0.6c0,0,0,0-0.1,0
		c-0.4-0.2-0.8-0.3-1.2-0.4c0,0,0,0,0,0l-0.8-0.2l0,0c-0.3,0-0.7-0.1-1-0.1c-4.2,0-7.5,3.4-7.5,7.5c0,4.2,3.4,7.5,7.5,7.5
		c0.4,0,0.7,0,1-0.1l0,0l0.8-0.2c0,0,0,0,0,0c0.4-0.1,0.8-0.2,1.2-0.4c0,0,0,0,0,0c0.4-0.2,0.7-0.4,1-0.6c0,0,0,0,0,0
		c0.3-0.2,0.6-0.4,0.9-0.7c0.1-0.1,0.1-0.1,0.2-0.2C25.5,37.6,25.8,37.4,26,37.1L26,37.1z M25.4,33.4c0,0.1,0,0.2-0.1,0.3
		c-0.1,0.2-0.1,0.5-0.2,0.7c0,0.1-0.1,0.2-0.1,0.3c-0.1,0.3-0.3,0.6-0.4,0.8c0,0-0.1,0.1-0.1,0.1c-0.2,0.2-0.3,0.4-0.5,0.6
		c-0.1,0.1-0.1,0.1-0.2,0.2c-0.2,0.2-0.3,0.3-0.5,0.4c-0.1,0.1-0.2,0.1-0.3,0.2c-0.2,0.2-0.5,0.3-0.8,0.4c-0.7-1.5-1.1-3.2-1.1-4.9
		c0-1.7,0.4-3.4,1.1-4.9c0.3,0.1,0.5,0.3,0.8,0.4c0.1,0.1,0.2,0.1,0.3,0.2c0.2,0.1,0.3,0.3,0.5,0.4c0.1,0.1,0.1,0.1,0.2,0.2
		c0.2,0.2,0.3,0.4,0.5,0.6c0,0,0.1,0.1,0.1,0.1c0.2,0.3,0.3,0.5,0.4,0.8c0,0.1,0.1,0.2,0.1,0.2c0.1,0.2,0.2,0.4,0.2,0.7
		c0,0.1,0,0.2,0.1,0.3c0.1,0.3,0.1,0.6,0.1,1S25.4,33.1,25.4,33.4L25.4,33.4z M14.7,32.4c0-3,2.4-5.4,5.4-5.4c0,0,0,0,0,0
		c-0.7,1.7-1.1,3.5-1.1,5.4c0,1.9,0.4,3.7,1.1,5.4c0,0,0,0,0,0C17.1,37.8,14.7,35.4,14.7,32.4L14.7,32.4z M14.7,32.4"/>
	<path class="st0" d="M25.5,20.6l0.2,0.8c0,0,0,0,0,0c0.1,0.4,0.2,0.8,0.4,1.2c0,0,0,0,0,0c0.2,0.4,0.4,0.7,0.6,1l0,0
		c0.2,0.3,0.4,0.6,0.7,0.9c0,0.1,0.1,0.1,0.1,0.2c0.2,0.2,0.5,0.5,0.8,0.7c0.1,0,0.1,0.1,0.2,0.1c0.3,0.2,0.6,0.4,0.9,0.6
		c0,0,0,0,0,0c0.3,0.2,0.7,0.3,1,0.4c0.1,0,0.1,0,0.2,0.1c0.3,0.1,0.7,0.2,1,0.3c0.1,0,0.1,0,0.2,0C32.2,27,32.6,27,33,27
		c0.4,0,0.8,0,1.1-0.1c0.1,0,0.1,0,0.2,0c0.4-0.1,0.7-0.2,1-0.3c0.1,0,0.1,0,0.2-0.1c0.3-0.1,0.7-0.3,1-0.4c0,0,0,0,0,0
		c0.3-0.2,0.6-0.4,0.9-0.6c0.1,0,0.1-0.1,0.2-0.1c0.3-0.2,0.5-0.4,0.8-0.7c0-0.1,0.1-0.1,0.1-0.2c0.2-0.3,0.5-0.6,0.7-0.9l0,0
		c0.2-0.3,0.4-0.7,0.6-1c0,0,0,0,0,0c0.2-0.4,0.3-0.8,0.4-1.2c0,0,0,0,0,0l0.2-0.8l0,0c0-0.3,0.1-0.7,0.1-1c0-4.2-3.4-7.5-7.5-7.5
		c-4.2,0-7.5,3.4-7.5,7.5C25.5,19.8,25.5,20.2,25.5,20.6L25.5,20.6z M37.5,22.4c-0.1,0.1-0.1,0.2-0.2,0.3c-0.1,0.2-0.3,0.3-0.4,0.5
		c-0.1,0.1-0.1,0.1-0.2,0.2c-0.2,0.2-0.4,0.3-0.6,0.5c0,0-0.1,0.1-0.1,0.1c-0.3,0.2-0.5,0.3-0.8,0.4c-0.1,0-0.2,0.1-0.3,0.1
		c-0.2,0.1-0.4,0.2-0.7,0.2c-0.1,0-0.2,0-0.3,0.1c-0.3,0.1-0.6,0.1-1,0.1c-0.3,0-0.7,0-1-0.1c-0.1,0-0.2,0-0.3-0.1
		c-0.2-0.1-0.5-0.1-0.7-0.2c-0.1,0-0.2-0.1-0.2-0.1c-0.3-0.1-0.6-0.3-0.8-0.4c0,0-0.1-0.1-0.1-0.1c-0.2-0.2-0.4-0.3-0.6-0.5
		c-0.1-0.1-0.1-0.1-0.2-0.2c-0.1-0.2-0.3-0.3-0.4-0.5c-0.1-0.1-0.1-0.2-0.2-0.3c-0.2-0.2-0.3-0.5-0.4-0.8c3.1-1.4,6.8-1.4,9.9,0
		C37.8,21.9,37.7,22.2,37.5,22.4L37.5,22.4z M33,14.1c3,0,5.4,2.4,5.4,5.4c0,0,0,0,0,0c-3.4-1.4-7.4-1.4-10.8,0c0,0,0,0,0,0
		C27.6,16.5,30,14.1,33,14.1L33,14.1z M33,14.1"/>
	<path class="st0" d="M40.5,44.3l-0.2-0.8c0,0,0,0,0,0c-0.1-0.4-0.2-0.8-0.4-1.2c0,0,0,0,0,0c-0.2-0.4-0.4-0.7-0.6-1c0,0,0,0,0,0
		c-0.2-0.3-0.4-0.6-0.7-0.9c-0.1-0.1-0.1-0.1-0.2-0.2c-0.2-0.3-0.5-0.5-0.8-0.7c-0.1,0-0.1-0.1-0.2-0.1c-0.3-0.2-0.6-0.4-0.9-0.6
		c0,0,0,0,0,0c-0.3-0.2-0.7-0.3-1-0.4c-0.1,0-0.1,0-0.2-0.1c-0.3-0.1-0.7-0.2-1-0.3c-0.1,0-0.1,0-0.2,0c-0.4-0.1-0.8-0.1-1.1-0.1
		c-0.4,0-0.8,0-1.1,0.1c-0.1,0-0.1,0-0.2,0c-0.4,0.1-0.7,0.2-1,0.3c-0.1,0-0.1,0-0.2,0.1c-0.3,0.1-0.7,0.3-1,0.4c0,0,0,0,0,0
		c-0.3,0.2-0.6,0.4-0.9,0.6c-0.1,0-0.1,0.1-0.2,0.1c-0.3,0.2-0.5,0.4-0.8,0.7c-0.1,0.1-0.1,0.1-0.1,0.2c-0.2,0.3-0.5,0.6-0.7,0.9
		c0,0,0,0,0,0c-0.2,0.3-0.4,0.7-0.6,1c0,0,0,0,0,0c-0.2,0.4-0.3,0.8-0.4,1.2c0,0,0,0,0,0l-0.2,0.8l0,0c0,0.3-0.1,0.7-0.1,1.1
		c0,4.2,3.4,7.5,7.5,7.5c4.2,0,7.5-3.4,7.5-7.5C40.6,45,40.5,44.6,40.5,44.3L40.5,44.3z M28.5,42.4c0.1-0.1,0.1-0.2,0.2-0.2
		c0.1-0.2,0.3-0.3,0.4-0.5c0.1-0.1,0.1-0.1,0.2-0.2c0.2-0.2,0.4-0.3,0.6-0.5c0,0,0.1-0.1,0.1-0.1c0.3-0.2,0.5-0.3,0.8-0.4
		c0.1,0,0.2-0.1,0.2-0.1c0.2-0.1,0.4-0.2,0.7-0.2c0.1,0,0.2,0,0.3-0.1c0.3-0.1,0.6-0.1,1-0.1c0.3,0,0.7,0,1,0.1c0.1,0,0.2,0,0.3,0.1
		c0.2,0.1,0.5,0.1,0.7,0.2c0.1,0,0.2,0.1,0.3,0.1c0.3,0.1,0.6,0.3,0.8,0.4c0,0,0.1,0.1,0.1,0.1c0.2,0.2,0.4,0.3,0.6,0.5
		c0.1,0.1,0.1,0.1,0.2,0.2c0.2,0.2,0.3,0.3,0.4,0.5c0.1,0.1,0.1,0.2,0.2,0.2c0.2,0.2,0.3,0.5,0.4,0.8c-3.1,1.4-6.8,1.4-9.9,0
		C28.2,42.9,28.3,42.7,28.5,42.4L28.5,42.4z M33,50.7c-3,0-5.4-2.4-5.4-5.4c0,0,0,0,0,0c1.7,0.7,3.5,1.1,5.4,1.1
		c1.9,0,3.7-0.4,5.4-1.1c0,0,0,0,0,0C38.4,48.3,36,50.7,33,50.7L33,50.7z M33,50.7"/>
</g>
</svg>
