<svg xmlns="http://www.w3.org/2000/svg" viewBox="0 0 102 102" enable-background="new 0 0 102 102"><style type="text/css">.st0{fill:#BABABA;}</style><path class="st0" d="M94.1 77.2c-1.8-5.1-7.6-9.7-16.3-12.8l2.9-1.6c4.7-2.1 7.7-5.4 8.4-9.5.7-3.5-.5-6.8-3.3-8.4-2.2-1.4-5-1.5-7.5-.4v-2.6c0-2.3-1.4-5.7-8.4-8.3-4.9-1.8-11.4-2.8-18.4-2.8-7 0-13.5 1-18.4 2.8-6.9 2.6-8.4 5.9-8.4 8.3v11.1c0 3.8.7 7.5 2.2 10.8-9.5 3.1-16 7.9-17.9 13.4-1.1 3.2-.6 6.5 1.5 9.5 2.7 4.2 8.1 7.8 15.7 10.3 7.3 2.4 16.1 3.7 25.3 3.7s18-1.3 25.3-3.7c7.6-2.5 13-6.1 15.7-10.3 2.2-3 2.7-6.3 1.6-9.5zm-15.8-24.2v-4.7c1.9-1.4 4.1-1.6 5.8-.5 1.6 1 2.2 2.8 1.8 4.9-.6 3.1-2.8 5.5-6.6 7.1-.1 0-.1 0-.2.1l-2 1.1c.8-2.6 1.2-5.3 1.2-8zm-44-16.3c4.5-1.7 10.7-2.6 17.3-2.6 6.6 0 12.7.9 17.3 2.6 3.9 1.5 6.2 3.4 6.2 5.1 0 1.3-1.5 2.8-4.3 4.1 0-.1-.1-.2-.1-.2-2.8-4-12-5.8-19.8-5.8-7.4.2-15.9 2-18.2 6.1-2.9-1.3-4.4-2.8-4.4-4.2-.2-1.7 2.1-3.6 6-5.1zm33.2 10.5c-4 1.3-9.4 2.2-16 2.2-6.5 0-12-.9-15.9-2.2 1.7-1.8 7.4-3.7 15.1-4 8.2.1 14.7 2 16.8 4zm-39.4.1c1.2.9 2.9 1.8 5.1 2.6 4.9 1.8 11.4 2.8 18.4 2.8 6.9 0 13.4-1 18.4-2.8 2.2-.8 3.9-1.7 5.1-2.6v5.7c0 13.3-10.5 24.1-23.5 24.1s-23.5-10.8-23.5-24.1v-5.7zm12.4 30.7c3.4 1.6 7.2 2.4 11.1 2.4 3.9 0 7.6-.8 11.1-2.4v3.4c-6.7 4-15.4 4-22.1 0v-3.4zm49.4 6.7c-4.7 7.4-20.5 12.6-38.4 12.6s-33.6-5.2-38.3-12.6c-1.5-2.1-1.8-4.3-1.1-6.4 1.5-4.5 7.6-8.7 16.4-11.4 1.1 2 2.5 3.8 4.1 5.5 1.4 1.5 3 2.8 4.7 3.8v6.2c0 .6.3 1.1.7 1.4 4.1 2.7 8.8 4 13.6 4 4.7 0 9.5-1.3 13.6-4 .5-.3.7-.8.7-1.4v-6.2c1.7-1.1 3.2-2.4 4.7-3.8 1.6-1.6 3-3.5 4.1-5.4 8.8 2.7 14.9 6.9 16.4 11.4.7 2.1.3 4.2-1.2 6.3zm0 0M44.3 24.9c.3 0 .5 0 .8-.2.8-.4 1.1-1.5.6-2.3-.7-1.3-1.6-3.6-1.4-4.5v-.1c.1-1.3 1.1-2.4 2.3-3.7 1.3-1.4 2.8-3.1 3.1-5.4v-.2c0-2.2-1.7-5.7-2.1-6.3-.4-.8-1.4-1.1-2.2-.7-.8.5-1.1 1.5-.7 2.3.7 1.3 1.6 3.6 1.7 4.6-.2 1.2-1.2 2.3-2.3 3.5-1.4 1.5-2.9 3.2-3.1 5.6-.3 2.4 1.5 5.8 1.8 6.5.3.6.9.9 1.5.9zm0 0M58.9 24.9c.3 0 .6-.1.8-.3.8-.5 1-1.5.5-2.3-.9-1.5-1.8-3.6-1.7-4.4v-.1c.1-1.2 1.1-2.4 2.3-3.6 1.4-1.5 2.9-3.2 3.1-5.6.3-2.4-1.7-5.9-2.1-6.6-.5-.8-1.5-1-2.2-.5-.8.5-1 1.5-.5 2.3.9 1.5 1.8 3.6 1.7 4.4v.1c-.1 1.2-1.1 2.4-2.3 3.6-1.4 1.5-2.9 3.2-3.1 5.6-.3 2.4 1.7 5.9 2.1 6.6.3.5.8.8 1.4.8zm0 0"/></svg>