<?xml version="1.0" encoding="utf-8"?>
<!-- Generator: Adobe Illustrator 19.2.0, SVG Export Plug-In . SVG Version: 6.00 Build 0)  -->
<svg version="1.1" id="Layer_1" xmlns="http://www.w3.org/2000/svg" xmlns:xlink="http://www.w3.org/1999/xlink" x="0px" y="0px"
	 viewBox="0 0 102 102" style="enable-background:new 0 0 102 102;" xml:space="preserve">
<style type="text/css">
	.st0{fill:#BABABA;}
</style>
<g>
	<path class="st0" d="M83.3,61.4c0,0.8-0.7,1.5-1.5,1.5c-0.8,0-1.5-0.7-1.5-1.5c0-0.8,0.7-1.5,1.5-1.5
		C82.6,59.9,83.3,60.6,83.3,61.4L83.3,61.4z M83.3,61.4"/>
	<path class="st0" d="M77.2,67.5c0,0.8-0.7,1.5-1.5,1.5c-0.8,0-1.5-0.7-1.5-1.5c0-0.8,0.7-1.5,1.5-1.5C76.6,66,77.2,66.7,77.2,67.5
		L77.2,67.5z M77.2,67.5"/>
	<path class="st0" d="M97.2,9.4h-2.5V4.8c0-0.8-0.7-1.5-1.5-1.5S91.6,4,91.6,4.8v4.6H10.4V4.8c0-0.8-0.7-1.5-1.5-1.5
		C8.1,3.3,7.4,4,7.4,4.8v4.6H4.8c-0.8,0-1.5,0.7-1.5,1.5v10.1c0,0.8,0.7,1.5,1.5,1.5h92.3c0.8,0,1.5-0.7,1.5-1.5V10.9
		C98.7,10.1,98,9.4,97.2,9.4L97.2,9.4z M95.6,19.6H6.4v-7.1h89.3V19.6z M95.6,19.6"/>
	<path class="st0" d="M97.2,76.7h-2.5V27.2c0-0.8-0.7-1.5-1.5-1.5s-1.5,0.7-1.5,1.5v49.5H10.4V27.2c0-0.8-0.7-1.5-1.5-1.5
		c-0.8,0-1.5,0.7-1.5,1.5v49.5H4.8c-0.8,0-1.5,0.7-1.5,1.5c0,0.8,0.7,1.5,1.5,1.5h44.6v8c-2.3,0.7-4.1,2.8-4.1,5.4
		c0,3.1,2.5,5.6,5.6,5.6c3.1,0,5.6-2.5,5.6-5.6c0-2.5-1.7-4.7-4.1-5.4v-8h44.6c0.8,0,1.5-0.7,1.5-1.5C98.7,77.3,98,76.7,97.2,76.7
		L97.2,76.7z M53.5,93.1c0,1.4-1.1,2.5-2.5,2.5c-1.4,0-2.5-1.1-2.5-2.5c0-1.4,1.1-2.5,2.5-2.5C52.4,90.6,53.5,91.7,53.5,93.1
		L53.5,93.1z M53.5,93.1"/>
</g>
</svg>
