<svg xmlns="http://www.w3.org/2000/svg" viewBox="0 0 102 102" enable-background="new 0 0 102 102"><style type="text/css">.st0{fill:#BABABA;}</style><path class="st0" d="M83.3 61.4c0 .8-.7 1.5-1.5 1.5s-1.5-.7-1.5-1.5.7-1.5 1.5-1.5 1.5.7 1.5 1.5zm0 0M77.2 67.5c0 .8-.7 1.5-1.5 1.5s-1.5-.7-1.5-1.5.7-1.5 1.5-1.5c.9 0 1.5.7 1.5 1.5zm0 0M97.2 9.4h-2.5v-4.6c0-.8-.7-1.5-1.5-1.5s-1.6.7-1.6 1.5v4.6h-81.2v-4.6c0-.8-.7-1.5-1.5-1.5s-1.5.7-1.5 1.5v4.6h-2.6c-.8 0-1.5.7-1.5 1.5v10.1c0 .8.7 1.5 1.5 1.5h92.3c.8 0 1.5-.7 1.5-1.5v-10.1c.1-.8-.6-1.5-1.4-1.5zm-1.6 10.2h-89.2v-7.1h89.3v7.1zm0 0M97.2 76.7h-2.5v-49.5c0-.8-.7-1.5-1.5-1.5s-1.5.7-1.5 1.5v49.5h-81.3v-49.5c0-.8-.7-1.5-1.5-1.5s-1.5.7-1.5 1.5v49.5h-2.6c-.8 0-1.5.7-1.5 1.5s.7 1.5 1.5 1.5h44.6v8c-2.3.7-4.1 2.8-4.1 5.4 0 3.1 2.5 5.6 5.6 5.6 3.1 0 5.6-2.5 5.6-5.6 0-2.5-1.7-4.7-4.1-5.4v-8h44.6c.8 0 1.5-.7 1.5-1.5.2-.9-.5-1.5-1.3-1.5zm-43.7 16.4c0 1.4-1.1 2.5-2.5 2.5s-2.5-1.1-2.5-2.5 1.1-2.5 2.5-2.5 2.5 1.1 2.5 2.5zm0 0"/></svg>