<?xml version="1.0" encoding="utf-8"?>
<!-- Generator: Adobe Illustrator 19.2.0, SVG Export Plug-In . SVG Version: 6.00 Build 0)  -->
<svg version="1.1" id="Layer_1" xmlns="http://www.w3.org/2000/svg" xmlns:xlink="http://www.w3.org/1999/xlink" x="0px" y="0px"
	 viewBox="0 0 66 66" style="enable-background:new 0 0 66 66;" xml:space="preserve">
<style type="text/css">
	.st0{fill:#262626;}
</style>
<path class="st0" d="M46,34.2c-0.1-0.4-0.5-0.7-0.9-0.7c-0.4,0-0.8,0.3-0.9,0.7l-8.5,25.9c-0.2,0.5,0.1,1,0.5,1.2
	c2.7,1.2,5.7,1.7,8.6,1.7c2.9,0,5.9-0.6,8.6-1.7c0.5-0.2,0.7-0.7,0.5-1.2L46,34.2z M37.7,59.8L45,37.6l6.7,22.2
	C47.2,61.5,42.2,61.5,37.7,59.8L37.7,59.8z M37.7,59.8"/>
<path class="st0" d="M34.2,37.5c-1.3,1-2.1,2.5-2.2,4.2c-0.2,1.7,0.3,3.3,1.4,4.5c0.2,0.2,0.5,0.3,0.7,0.3c0.2,0,0.4-0.1,0.6-0.2
	c0.4-0.3,0.5-0.9,0.1-1.4c-0.7-0.9-1.1-2-1-3.1c0.1-1.1,0.7-2.2,1.5-2.9c1.3-1.1,2.1-2.5,2.2-4.2c0.2-1.7-0.4-3.3-1.4-4.5
	c5.4-1.1,9.5-6.7,9.5-13.5C45.7,9.2,40.6,3,34.3,3c-4.2,0-8.1,2.8-10,7.2c-0.3,0-0.5,0-0.8,0c-6.3,0-11.4,6.2-11.4,13.7
	c0,7.4,4.9,13.4,10.9,13.7l0.9,1c0.7,0.9,1.1,2,1,3.1c-0.1,1.1-0.7,2.2-1.5,2.9c-1.3,1-2.1,2.5-2.2,4.2c-0.2,1.7,0.3,3.3,1.4,4.5
	l3.3,3.9c0.2,0.2,0.5,0.3,0.7,0.3c0.2,0,0.4-0.1,0.6-0.2c0.4-0.3,0.5-0.9,0.1-1.4L24,52.2c-0.7-0.9-1.1-2-1-3.1
	c0.1-1.1,0.7-2.2,1.5-2.9c1.3-1.1,2.1-2.5,2.2-4.2c0.2-1.7-0.4-3.3-1.4-4.5c3.5-0.7,6.5-3.4,8.1-7c0.1,0,0.2,0,0.3,0l0.9,1
	c0.7,0.9,1.1,2,1,3.1C35.6,35.7,35.1,36.8,34.2,37.5L34.2,37.5z M34.3,4.9c5.2,0,9.5,5.3,9.5,11.8c0,6.5-4.2,11.8-9.5,11.8
	c0,0-0.1,0-0.1,0c0.4-1.4,0.7-3,0.7-4.6c0-6.4-3.7-11.8-8.6-13.3C27.9,7.1,31,4.9,34.3,4.9L34.3,4.9z M23.5,35.7
	c-5.2,0-9.5-5.3-9.5-11.8c0-6.5,4.2-11.8,9.5-11.8s9.5,5.3,9.5,11.8C32.9,30.4,28.7,35.7,23.5,35.7L23.5,35.7z M23.5,35.7"/>
</svg>
