<svg xmlns="http://www.w3.org/2000/svg" viewBox="0 0 66 66" enable-background="new 0 0 66 66"><style type="text/css">.st0{fill:#262626;}</style><path class="st0" d="M58 49c-1-3.1-4.5-5.8-9.6-7.7l1.7-1c2.8-1.3 4.5-3.2 5-5.8.4-2.1-.3-4.1-1.9-5.1-1.3-.8-2.9-.9-4.4-.2v-1.6c0-1.4-.9-3.4-4.9-5-2.9-1.1-6.7-1.7-10.8-1.7-4.1 0-7.9.6-10.8 1.7-4.1 1.6-4.9 3.6-4.9 5v6.7c0 2.3.4 4.5 1.3 6.6-5.6 1.9-9.5 4.8-10.6 8.1-.6 1.9-.3 3.9.9 5.7 1.6 2.6 4.8 4.7 9.3 6.2 4.3 1.5 9.5 2.3 14.9 2.3s10.6-.8 14.9-2.3c4.5-1.5 7.6-3.7 9.3-6.2 1-1.8 1.3-3.8.6-5.7zm-9.2-14.7v-2.8c1.1-.8 2.4-1 3.4-.3.9.6 1.3 1.7 1 3-.3 1.9-1.6 3.3-3.9 4.3 0 0-.1 0-.1.1l-1.2.7c.5-1.7.8-3.3.8-5zm-25.9-9.8c2.7-1 6.3-1.6 10.2-1.6 3.9 0 7.5.6 10.2 1.6 2.3.9 3.7 2 3.7 3.1 0 .8-.9 1.7-2.6 2.5 0-.1-.1-.1-.1-.1-1.7-2.4-7.1-3.5-11.7-3.5-4.3.1-9.4 1.2-10.7 3.7-1.7-.8-2.6-1.7-2.6-2.5-.1-1.2 1.3-2.3 3.6-3.2zm19.5 6.3c-2.3.8-5.5 1.3-9.4 1.3-3.9 0-7-.6-9.4-1.3 1-1.1 4.4-2.2 8.9-2.4 4.8 0 8.6 1.2 9.9 2.4zm-23.2.1c.7.6 1.7 1.1 3 1.6 2.9 1.1 6.7 1.7 10.8 1.7 4.1 0 7.9-.6 10.8-1.7 1.3-.5 2.3-1 3-1.6v3.5c0 8-6.2 14.6-13.8 14.6s-13.8-6.5-13.8-14.6v-3.5zm7.3 18.6c2 1 4.2 1.5 6.5 1.5s4.5-.5 6.5-1.5v2.1c-4 2.4-9.1 2.4-13 0v-2.1zm29.1 4c-2.8 4.5-12.1 7.6-22.6 7.6-10.5 0-19.8-3.1-22.6-7.6-.9-1.3-1.1-2.6-.6-3.9.9-2.7 4.5-5.3 9.6-6.9.7 1.2 1.5 2.3 2.4 3.3.8.9 1.8 1.7 2.7 2.3v3.7c0 .3.2.7.4.8 2.4 1.6 5.2 2.4 8 2.4s5.6-.8 8-2.4c.3-.2.4-.5.4-.8v-3.7c1-.7 1.9-1.4 2.7-2.3.9-1 1.7-2.1 2.4-3.3 5.2 1.6 8.7 4.2 9.7 6.9.6 1.3.4 2.6-.5 3.9zm0 0M28.7 17.4c.2 0 .3 0 .4-.1.5-.3.6-.9.4-1.4-.4-.8-.9-2.2-.9-2.7v-.1c.1-.8.6-1.4 1.3-2.2.8-.9 1.6-1.9 1.8-3.2v-.1c0-1.4-1-3.4-1.2-3.8-.3-.5-.8-.7-1.3-.4-.5.3-.6.9-.4 1.4.4.8 1 2.2 1 2.8-.1.7-.7 1.4-1.3 2.1-.8.9-1.7 1.9-1.8 3.4-.2 1.4.9 3.5 1.1 3.9.3.2.6.4.9.4zm0 0M37.3 17.4c.2 0 .3 0 .5-.2.4-.3.6-.9.3-1.4-.5-.9-1-2.2-1-2.7v-.1c.1-.7.7-1.4 1.3-2.1.8-.9 1.7-1.9 1.8-3.4.2-1.5-1-3.6-1.2-4-.3-.5-.9-.6-1.3-.3s-.6.9-.3 1.4c.5.9 1 2.2 1 2.7v.1c-.1.7-.7 1.4-1.3 2.2-.8.9-1.7 1.9-1.8 3.4-.2 1.5 1 3.6 1.2 4 .2.2.5.4.8.4zm0 0"/></svg>