<svg xmlns="http://www.w3.org/2000/svg" viewBox="0 0 66 66" enable-background="new 0 0 66 66"><style type="text/css">.st0{fill:#262626;}</style><path class="st0" d="M46 34.2c-.1-.4-.5-.7-.9-.7s-.8.3-.9.7l-8.5 25.9c-.2.5.1 1 .5 1.2 2.7 1.2 5.7 1.7 8.6 1.7 2.9 0 5.9-.6 8.6-1.7.5-.2.7-.7.5-1.2l-7.9-25.9zm-8.3 25.6l7.3-22.2 6.7 22.2c-4.5 1.7-9.5 1.7-14 0zm0 0M34.2 37.5c-1.3 1-2.1 2.5-2.2 4.2-.2 1.7.3 3.3 1.4 4.5.2.2.5.3.7.3.2 0 .4-.1.6-.2.4-.3.5-.9.1-1.4-.7-.9-1.1-2-1-3.1.1-1.1.7-2.2 1.5-2.9 1.3-1.1 2.1-2.5 2.2-4.2.2-1.7-.4-3.3-1.4-4.5 5.4-1.1 9.5-6.7 9.5-13.5.1-7.5-5-13.7-11.3-13.7-4.2 0-8.1 2.8-10 7.2h-.8c-6.3 0-11.4 6.2-11.4 13.7 0 7.4 4.9 13.4 10.9 13.7l.9 1c.7.9 1.1 2 1 3.1-.1 1.1-.7 2.2-1.5 2.9-1.3 1-2.1 2.5-2.2 4.2-.2 1.7.3 3.3 1.4 4.5l3.3 3.9c.2.2.5.3.7.3.2 0 .4-.1.6-.2.4-.3.5-.9.1-1.4l-3.3-3.7c-.7-.9-1.1-2-1-3.1.1-1.1.7-2.2 1.5-2.9 1.3-1.1 2.1-2.5 2.2-4.2.2-1.7-.4-3.3-1.4-4.5 3.5-.7 6.5-3.4 8.1-7h.3l.9 1c.7.9 1.1 2 1 3.1 0 1.1-.5 2.2-1.4 2.9zm.1-32.6c5.2 0 9.5 5.3 9.5 11.8 0 6.5-4.2 11.8-9.5 11.8h-.1c.4-1.4.7-3 .7-4.6 0-6.4-3.7-11.8-8.6-13.3 1.6-3.5 4.7-5.7 8-5.7zm-10.8 30.8c-5.2 0-9.5-5.3-9.5-11.8 0-6.5 4.2-11.8 9.5-11.8s9.5 5.3 9.5 11.8c-.1 6.5-4.3 11.8-9.5 11.8zm0 0"/></svg>