<svg xmlns="http://www.w3.org/2000/svg" viewBox="0 0 24 24" enable-background="new 0 0 24 24"><style type="text/css">.st0{fill:#FFFFFF;}</style><path class="st0" d="M23.9 4.7v16.5c0 1.5-1.2 2.8-2.8 2.8h-18.3c-1.5 0-2.8-1.2-2.8-2.8v-16.5c0-1.5 1.2-2.8 2.8-2.8h1.7v-.4c0-.8.7-1.5 1.5-1.5s1.5.7 1.5 1.5v.4h9v-.4c0-.8.7-1.5 1.5-1.5s1.5.7 1.5 1.5v.4h1.7c1.5 0 2.7 1.3 2.7 2.8zm-6.5-2.8v1.8c0 .3.3.6.6.6s.6-.3.6-.6v-2.2c0-.3-.3-.5-.6-.5s-.6.3-.6.6v.3zm-12 0v1.8c0 .3.3.6.6.6s.6-.3.6-.6v-2.2c0-.3-.3-.5-.6-.5s-.6.2-.6.5v.4zm-4.4 5.6h22v-2.8c0-1-.8-1.8-1.8-1.8h-1.7v.9c0 .8-.7 1.5-1.5 1.5s-1.5-.7-1.5-1.5v-.9h-9v.9c0 .8-.7 1.5-1.5 1.5s-1.5-.7-1.5-1.5v-.9h-1.7c-1 0-1.8.8-1.8 1.8v2.8zm22 .9h-22v12.8c0 1 .8 1.8 1.8 1.8h18.4c1 0 1.8-.8 1.8-1.8v-12.8zm0 0"/><path class="st0" d="M7.9 14.1h3.8v-3.9h1.3v3.9h3.8v1.1h-3.8v4.1h-1.3v-4.1h-3.8v-1.1z"/></svg>