<svg xmlns="http://www.w3.org/2000/svg" viewBox="0 0 72 54" enable-background="new 0 0 72 54"><style type="text/css">.st0{fill:#434343;}</style><path class="st0" d="M57.7 40.4c-.3 0-.6-.1-.8-.3l-13-12.2c-.5-.4-.5-1.1-.1-1.6s1.2-.5 1.6 0l13 12.2c.5.4.5 1.1 0 1.6-.1.2-.4.3-.7.3zM14.2 40.4c-.3 0-.6-.1-.8-.4-.4-.5-.4-1.2 0-1.6l13-12.2c.5-.4 1.2-.4 1.6 0 .4.5.4 1.2 0 1.6l-13 12.3c-.2.2-.5.3-.8.3zM65.4 51.8h-58.9c-3.1 0-5.7-2.5-5.7-5.7v-38.6c0-3.1 2.5-5.7 5.7-5.7h58.9c3.1 0 5.7 2.5 5.7 5.7v38.6c0 3.2-2.6 5.7-5.7 5.7zm-58.9-47.6c-1.9 0-3.4 1.5-3.4 3.4v38.6c0 1.9 1.5 3.4 3.4 3.4h58.9c1.9 0 3.4-1.5 3.4-3.4v-38.7c0-1.9-1.5-3.4-3.4-3.4l-58.9.1zM36 32.5c-1.5 0-3-.5-4.2-1.5l-29-25.3c-.5-.4-.6-1.2-.1-1.6.4-.5 1.1-.5 1.6-.1l29.1 25.4c1.4 1.3 3.9 1.3 5.3 0l29-25.4c.5-.4 1.2-.4 1.6.1s.4 1.2-.1 1.6l-29.1 25.3c-1.1 1-2.6 1.5-4.1 1.5z"/></svg>