<?xml version="1.0" encoding="utf-8"?>
<!-- Generator: Adobe Illustrator 19.2.0, SVG Export Plug-In . SVG Version: 6.00 Build 0)  -->
<svg version="1.1" id="Layer_1" xmlns="http://www.w3.org/2000/svg" xmlns:xlink="http://www.w3.org/1999/xlink" x="0px" y="0px"
	 viewBox="0 0 72 54" style="enable-background:new 0 0 72 54;" xml:space="preserve">
<style type="text/css">
	.st0{fill:#BABABA;}
</style>
<g>
	<path class="st0" d="M57.7,40.4c-0.3,0-0.6-0.1-0.8-0.3l-13-12.2c-0.5-0.4-0.5-1.1-0.1-1.6c0.4-0.5,1.2-0.5,1.6,0l13,12.2
		c0.5,0.4,0.5,1.1,0,1.6C58.3,40.3,58,40.4,57.7,40.4L57.7,40.4z M57.7,40.4"/>
	<path class="st0" d="M14.2,40.4c-0.3,0-0.6-0.1-0.8-0.4c-0.4-0.5-0.4-1.2,0-1.6l13-12.2c0.5-0.4,1.2-0.4,1.6,0
		c0.4,0.5,0.4,1.2,0,1.6L15,40.1C14.8,40.3,14.5,40.4,14.2,40.4L14.2,40.4z M14.2,40.4"/>
	<path class="st0" d="M65.4,51.8H6.5c-3.1,0-5.7-2.5-5.7-5.7V7.5c0-3.1,2.5-5.7,5.7-5.7h58.9c3.1,0,5.7,2.5,5.7,5.7v38.6
		C71.1,49.3,68.5,51.8,65.4,51.8L65.4,51.8z M6.5,4.2c-1.9,0-3.4,1.5-3.4,3.4v38.6c0,1.9,1.5,3.4,3.4,3.4h58.9
		c1.9,0,3.4-1.5,3.4-3.4V7.5c0-1.9-1.5-3.4-3.4-3.4H6.5z M6.5,4.2"/>
	<path class="st0" d="M36,32.5c-1.5,0-3-0.5-4.2-1.5L2.8,5.7C2.3,5.3,2.2,4.5,2.7,4.1C3.1,3.6,3.8,3.6,4.3,4l29.1,25.4
		c1.4,1.3,3.9,1.3,5.3,0L67.7,4c0.5-0.4,1.2-0.4,1.6,0.1c0.4,0.5,0.4,1.2-0.1,1.6L40.1,31C39,32,37.5,32.5,36,32.5L36,32.5z
		 M36,32.5"/>
</g>
</svg>
