<?xml version="1.0" encoding="utf-8"?>
<!-- Generator: Adobe Illustrator 19.2.0, SVG Export Plug-In . SVG Version: 6.00 Build 0)  -->
<svg version="1.1" id="Layer_1" xmlns="http://www.w3.org/2000/svg" xmlns:xlink="http://www.w3.org/1999/xlink" x="0px" y="0px"
	 viewBox="0 0 102 102" style="enable-background:new 0 0 102 102;" xml:space="preserve">
<style type="text/css">
	.st0{fill:#BABABA;}
</style>
<g>
	<path class="st0" d="M79.3,25.6c-3.1,0-6.1,0.7-8.8,2c-4.2-4.6-9.9-7.6-16-8.5c0,0,0,0,0,0c-0.3,0-0.6-0.1-1-0.1c0,0,0,0,0,0
		c-0.3,0-0.6-0.1-0.9-0.1c0,0-0.1,0-0.1,0c-0.3,0-0.5,0-0.8,0c-0.1,0-0.2,0-0.2,0c-0.3,0-0.6,0-0.9,0c-0.3,0-0.6,0-0.9,0
		c-0.1,0-0.2,0-0.2,0c-0.3,0-0.5,0-0.8,0c0,0-0.1,0-0.1,0c-0.3,0-0.6,0.1-0.9,0.1c0,0,0,0,0,0c-0.3,0-0.6,0.1-1,0.1c0,0,0,0,0,0
		c-6.1,0.9-11.8,3.9-16,8.5c-2.8-1.3-5.8-2-8.8-2c-11.2,0-20.2,9.1-20.2,20.2c0,7.3,3.9,14,10.2,17.5v13c0,2.7,2.2,5,5,5h67.8
		c2.7,0,5-2.2,5-5v-13c6.2-3.6,10.2-10.3,10.2-17.5C99.5,34.7,90.4,25.6,79.3,25.6L79.3,25.6z M57.2,78.1H43.7
		c-1.9,0-3.5-1.6-3.5-3.5c0-1.9,1.6-3.5,3.5-3.5h13.6c1.9,0,3.5,1.6,3.5,3.5C60.7,76.6,59.1,78.1,57.2,78.1L57.2,78.1z M86.1,76.3
		c0,1-0.8,1.8-1.8,1.8H62.9c0.6-1,1-2.2,1-3.5c0-3.7-3-6.7-6.7-6.7H43.7C40,68,37,71,37,74.6c0,1.3,0.4,2.5,1,3.5H16.5
		c-1,0-1.8-0.8-1.8-1.8v-12h71.4V76.3z M86.6,61.2h-14c0.6-0.9,1.2-1.8,1.7-2.8c0.4-0.8,0.1-1.7-0.7-2.1c-0.8-0.4-1.7-0.1-2.1,0.7
		c-0.8,1.5-1.8,2.9-2.9,4.2H32.2c-1.1-1.3-2.1-2.7-2.9-4.2c-0.4-0.8-1.4-1.1-2.1-0.7c-0.8,0.4-1.1,1.4-0.7,2.1
		c0.5,1,1.1,1.9,1.7,2.8h-14c-5.9-2.8-9.7-8.8-9.7-15.4c0-9.4,7.7-17.1,17.1-17.1c2.3,0,4.7,0.5,6.8,1.4c-1.1,1.5-2,3.1-2.7,4.8
		c-0.4,0.8,0,1.7,0.8,2.1c0.8,0.4,1.7,0,2.1-0.8c3.3-7.6,10.3-12.9,18.3-14c0,0,0,0,0,0c0.6-0.1,1.1-0.1,1.7-0.2c0.1,0,0.1,0,0.2,0
		c0.2,0,0.4,0,0.6,0c0.1,0,0.1,0,0.2,0c0.3,0,0.5,0,0.8,0c0.3,0,0.5,0,0.8,0c0.1,0,0.1,0,0.2,0c0.2,0,0.4,0,0.6,0c0.1,0,0.1,0,0.2,0
		c0.6,0,1.1,0.1,1.7,0.2c0,0,0,0,0,0c8,1.2,15,6.4,18.3,14c0.3,0.6,0.8,1,1.5,1c0.2,0,0.4,0,0.6-0.1c0.8-0.4,1.2-1.3,0.8-2.1
		c-0.8-1.7-1.7-3.3-2.7-4.8c2.1-0.9,4.5-1.4,6.8-1.4c9.4,0,17.1,7.7,17.1,17.1C96.3,52.4,92.5,58.3,86.6,61.2L86.6,61.2z M86.6,61.2
		"/>
</g>
</svg>
